SplineFontDB: 2.0
FontName: ArundinaSans
FullName: Arundina Sans
FamilyName: Arundina Sans
Weight: Book
Copyright: Copyright (c) 2003 by Bitstream, Inc. All Rights Reserved.\nCopyright (c) 2007 by Software Industry Promotion Agency (Public Organization). All Rights Reserved.
Version: 1.20
ItalicAngle: 0
UnderlinePosition: -153
UnderlineWidth: 102
Ascent: 1638
Descent: 410
Order2: 1
NeedsXUIDChange: 1
XUID: [1021 375 425136265 761299]
FSType: 4
OS2Version: 2
OS2_WeightWidthSlopeOnly: 0
OS2_UseTypoMetrics: 1
CreationTime: 1131303360
ModificationTime: 1195119133
PfmFamily: 33
TTFWeight: 400
TTFWidth: 5
LineGap: 25
VLineGap: 0
Panose: 2 11 3 0 2 2 2 2 2 4
OS2TypoAscent: 0
OS2TypoAOffset: 1
OS2TypoDescent: -410
OS2TypoDOffset: 1
OS2TypoLinegap: 0
OS2WinAscent: -379
OS2WinAOffset: 1
OS2WinDescent: 125
OS2WinDOffset: 1
HheadAscent: -379
HheadAOffset: 1
HheadDescent: -125
HheadDOffset: 1
OS2SubXSize: 1434
OS2SubYSize: 1331
OS2SubXOff: 0
OS2SubYOff: 287
OS2SupXSize: 1434
OS2SupYSize: 1331
OS2SupXOff: 0
OS2SupYOff: 977
OS2StrikeYSize: 82
OS2StrikeYPos: 512
OS2FamilyClass: 2050
OS2Vendor: 'BLWK'
Lookup: 4 0 0 "'frac' Diagonal Fractions in Latin lookup 0"  {"'frac' Diagonal Fractions in Latin lookup 0 subtable"  } ['frac' ('latn' <'dflt' > ) ]
Lookup: 6 0 0 "'liga' Standard Ligatures in Latin lookup 1"  {"'liga' Standard Ligatures in Latin lookup 1 subtable"  } ['liga' ('latn' <'dflt' > ) ]
Lookup: 6 0 0 "'liga' Standard Ligatures in Latin lookup 2"  {"'liga' Standard Ligatures in Latin lookup 2 subtable"  } ['liga' ('latn' <'dflt' > ) ]
Lookup: 6 0 0 "'liga' Standard Ligatures in Latin lookup 3"  {"'liga' Standard Ligatures in Latin lookup 3 subtable"  } ['liga' ('latn' <'dflt' > ) ]
Lookup: 6 0 0 "'liga' Standard Ligatures in Latin lookup 4"  {"'liga' Standard Ligatures in Latin lookup 4 subtable"  } ['liga' ('latn' <'dflt' > ) ]

StartChar: .notdef
Encoding: 65536 -1 0
Width: 1293
VWidth: 3555
Flags: W
HStem: -380 120<231 1062> 1394 120<231 1062>
VStem: 109 122<-260 1394> 1062 122<-260 1394>
Fore
109 1514 m 1,0,-1
 1184 1514 l 1,1,-1
 1184 -380 l 1,2,-1
 109 -380 l 1,3,-1
 109 1514 l 1,0,-1
1062 -260 m 1,4,-1
 1062 1394 l 1,5,-1
 231 1394 l 1,6,-1
 231 -260 l 1,7,-1
 1062 -260 l 1,4,-1
EndSplineSet
EndChar
StartChar: exclam
Encoding: 33 33 4
Width: 824
VWidth: 3555
Flags: W
HStem: 0 252<309 512> 1473 20G<309 512>
VStem: 309 203<0 252 732.967 1493> 330 165<479 584.033>
Fore
512 0 m 1,0,-1
 309 0 l 1,1,-1
 309 252 l 1,2,-1
 512 252 l 1,3,-1
 512 0 l 1,0,-1
512 838 m 1,4,-1
 495 479 l 1,5,-1
 330 479 l 1,6,-1
 309 838 l 1,7,-1
 309 1493 l 1,8,-1
 512 1493 l 1,9,-1
 512 838 l 1,4,-1
EndSplineSet
EndChar
StartChar: quotedbl
Encoding: 34 34 5
Width: 944
VWidth: 3555
Flags: W
HStem: 1473 20G<200 370 576 746>
VStem: 200 170<939 1493> 576 170<939 1493>
Fore
200 939 m 1,0,-1
 200 1493 l 1,1,-1
 370 1493 l 1,2,-1
 370 939 l 1,3,-1
 200 939 l 1,0,-1
576 939 m 1,4,-1
 576 1493 l 1,5,-1
 746 1493 l 1,6,-1
 746 939 l 1,7,-1
 576 939 l 1,4,-1
EndSplineSet
EndChar
StartChar: numbersign
Encoding: 35 35 6
Width: 1716
VWidth: 3555
Flags: W
HStem: 0 21G<370 534.085 825 989.036> 413 156<156 472 675 929 1127 1448> 903 156<271 597 797 1049 1248 1561>
Fore
675 569 m 1,0,-1
 967 569 l 1,1,-1
 1049 903 l 1,2,-1
 757 903 l 1,3,-1
 675 569 l 1,0,-1
1088 1059 m 1,4,-1
 1191 1472 l 1,5,-1
 1351 1472 l 1,6,-1
 1248 1059 l 1,7,-1
 1561 1059 l 1,8,-1
 1561 903 l 1,9,-1
 1208 903 l 1,10,-1
 1127 569 l 1,11,-1
 1448 569 l 1,12,-1
 1448 413 l 1,13,-1
 1088 413 l 1,14,-1
 984 0 l 1,15,-1
 825 0 l 1,16,-1
 929 413 l 1,17,-1
 634 413 l 1,18,-1
 529 0 l 1,19,-1
 370 0 l 1,20,-1
 472 413 l 1,21,-1
 156 413 l 1,22,-1
 156 569 l 1,23,-1
 512 569 l 1,24,-1
 597 903 l 1,25,-1
 271 903 l 1,26,-1
 271 1059 l 1,27,-1
 634 1059 l 1,28,-1
 736 1472 l 1,29,-1
 896 1472 l 1,30,-1
 797 1059 l 1,31,-1
 1088 1059 l 1,4,-1
EndSplineSet
EndChar
StartChar: dollar
Encoding: 36 36 7
Width: 1303
VWidth: 3555
Flags: W
HStem: 0 142<386.281 594> 1180 146<693 870.28>
VStem: 167 189<852.091 1102.49> 594 99<-302 0 146 580 767 1180 1326 1557> 950 184<236.392 486.594>
Fore
594 0 m 1,0,1
 488 0 488 0 383 23.5 c 128,-1,2
 278 47 278 47 167 92 c 1,3,-1
 167 271 l 1,4,5
 271 210 271 210 375 176 c 128,-1,6
 479 142 479 142 594 142 c 1,7,-1
 594 601 l 1,8,9
 370 634 370 634 268.5 720.5 c 128,-1,10
 167 807 167 807 167 957 c 0,11,12
 167 1120 167 1120 277 1214.5 c 128,-1,13
 387 1309 387 1309 594 1323 c 1,14,-1
 594 1557 l 1,15,-1
 693 1557 l 1,16,-1
 693 1326 l 1,17,18
 786 1323 786 1323 873 1308 c 128,-1,19
 960 1293 960 1293 1045 1262 c 1,20,-1
 1045 1088 l 1,21,22
 865 1177 865 1177 693 1180 c 1,23,-1
 693 753 l 1,24,25
 920 719 920 719 1027 629.5 c 128,-1,26
 1134 540 1134 540 1134 380 c 0,27,28
 1134 210 1134 210 1020 113.5 c 128,-1,29
 906 17 906 17 693 0 c 1,30,-1
 693 -302 l 1,31,-1
 594 -302 l 1,32,-1
 594 0 l 1,0,1
594 1184 m 1,33,34
 356 1160 356 1160 356 974 c 0,35,36
 356 889 356 889 412.5 839.5 c 128,-1,37
 469 790 469 790 594 767 c 1,38,-1
 594 1184 l 1,33,34
693 146 m 1,39,40
 950 174 950 174 950 363 c 0,41,42
 950 451 950 451 889 502.5 c 128,-1,43
 828 554 828 554 693 580 c 1,44,-1
 693 146 l 1,39,40
EndSplineSet
EndChar
StartChar: percent
Encoding: 37 37 8
Width: 1947
VWidth: 3555
Flags: W
HStem: -28 127<1377.47 1601.1> 658 125<1378.36 1600.17> 708 127<348.172 567.933> 1394 128<348.172 564.541>
VStem: 115 156<917.112 1310.03> 644 163<922.075 1305.76> 1144 161<178.332 576.911> 1679 156<184.089 571.049>
Fore
1489 658 m 0,0,1
 1401 658 1401 658 1353 583.5 c 128,-1,2
 1305 509 1305 509 1305 377 c 256,3,4
 1305 245 1305 245 1353 172 c 128,-1,5
 1401 99 1401 99 1489 99 c 0,6,7
 1575 99 1575 99 1627 172 c 128,-1,8
 1679 245 1679 245 1679 377 c 256,9,10
 1679 509 1679 509 1627 583.5 c 128,-1,11
 1575 658 1575 658 1489 658 c 0,0,1
1489 783 m 256,12,13
 1649 783 1649 783 1742 676 c 128,-1,14
 1835 569 1835 569 1835 377 c 0,15,16
 1835 193 1835 193 1742 82.5 c 128,-1,17
 1649 -28 1649 -28 1489 -28 c 256,18,19
 1330 -28 1330 -28 1237 82.5 c 128,-1,20
 1144 193 1144 193 1144 377 c 0,21,22
 1144 569 1144 569 1237 676 c 128,-1,23
 1330 783 1330 783 1489 783 c 256,12,13
458 1394 m 0,24,25
 373 1394 373 1394 322 1319.5 c 128,-1,26
 271 1245 271 1245 271 1116 c 0,27,28
 271 984 271 984 320.5 909.5 c 128,-1,29
 370 835 370 835 458 835 c 0,30,31
 543 835 543 835 593.5 909.5 c 128,-1,32
 644 984 644 984 644 1116 c 0,33,34
 644 1245 644 1245 592 1319.5 c 128,-1,35
 540 1394 540 1394 458 1394 c 0,24,25
587 -28 m 1,36,-1
 431 -28 l 1,37,-1
 1361 1522 l 1,38,-1
 1522 1522 l 1,39,-1
 587 -28 l 1,36,-1
458 1522 m 256,40,41
 618 1522 618 1522 712.5 1415.5 c 128,-1,42
 807 1309 807 1309 807 1116 c 256,43,44
 807 924 807 924 712.5 816 c 128,-1,45
 618 708 618 708 458 708 c 256,46,47
 299 708 299 708 207 816 c 128,-1,48
 115 924 115 924 115 1116 c 0,49,50
 115 1302 115 1302 207 1412 c 128,-1,51
 299 1522 299 1522 458 1522 c 256,40,41
EndSplineSet
EndChar
StartChar: ampersand
Encoding: 38 38 9
Width: 1598
VWidth: 3555
Flags: W
HStem: -28 160<503.105 894.832> 1364 158<569.329 931.434>
VStem: 128 195<303.71 642.038> 299 192<1052.28 1288.43> 1283 182<687.642 804>
Fore
498 807 m 1,0,1
 404 722 404 722 363.5 642 c 128,-1,2
 323 562 323 562 323 472 c 0,3,4
 323 323 323 323 428 227.5 c 128,-1,5
 533 132 533 132 696 132 c 0,6,7
 878 132 878 132 1028 260 c 1,8,-1
 498 807 l 1,0,1
1144 394 m 1,9,10
 1208 484 1208 484 1240 586.5 c 128,-1,11
 1272 689 1272 689 1283 804 c 1,12,-1
 1465 804 l 1,13,14
 1443 533 1443 533 1255 285 c 1,15,-1
 1536 0 l 1,16,-1
 1286 0 l 1,17,-1
 1141 146 l 1,18,19
 936 -28 936 -28 679 -28 c 0,20,21
 437 -28 437 -28 281 106 c 0,22,23
 128 245 128 245 128 462 c 0,24,25
 128 715 128 715 394 917 c 1,26,27
 349 977 349 977 324 1039.5 c 128,-1,28
 299 1102 299 1102 299 1163 c 0,29,30
 299 1326 299 1326 411 1424 c 128,-1,31
 523 1522 523 1522 708 1522 c 0,32,33
 861 1522 861 1522 1042 1451 c 1,34,-1
 1042 1266 l 1,35,36
 868 1364 868 1364 726 1364 c 0,37,38
 618 1364 618 1364 554.5 1308 c 128,-1,39
 491 1252 491 1252 491 1167 c 0,40,41
 491 1113 491 1113 520.5 1061.5 c 128,-1,42
 550 1010 550 1010 641 917 c 2,43,-1
 1144 394 l 1,9,10
EndSplineSet
EndChar
StartChar: quotesingle
Encoding: 39 39 10
Width: 564
VWidth: 3555
Flags: W
HStem: 1473 20G<200 370>
VStem: 200 170<939 1493>
Fore
200 939 m 1,0,-1
 200 1493 l 1,1,-1
 370 1493 l 1,2,-1
 370 939 l 1,3,-1
 200 939 l 1,0,-1
EndSplineSet
EndChar
StartChar: parenleft
Encoding: 40 40 11
Width: 798
VWidth: 3555
Flags: W
VStem: 174 199<299.209 983.82>
Fore
637 1557 m 1,0,1
 502 1323 502 1323 437.5 1100.5 c 128,-1,2
 373 878 373 878 373 644 c 256,3,4
 373 410 373 410 437.5 187.5 c 128,-1,5
 502 -35 502 -35 637 -271 c 1,6,-1
 476 -271 l 1,7,8
 326 -35 326 -35 250 192.5 c 128,-1,9
 174 420 174 420 174 644 c 0,10,11
 174 1085 174 1085 476 1557 c 1,12,-1
 637 1557 l 1,0,1
EndSplineSet
EndChar
StartChar: parenright
Encoding: 41 41 12
Width: 798
VWidth: 3555
Flags: W
VStem: 431 190<303.336 983.82>
Fore
323 1557 m 1,0,1
 621 1085 621 1085 621 644 c 0,2,3
 621 200 621 200 323 -271 c 1,4,-1
 163 -271 l 1,5,6
 295 -35 295 -35 363 187.5 c 128,-1,7
 431 410 431 410 431 644 c 256,8,9
 431 878 431 878 363 1100.5 c 128,-1,10
 295 1323 295 1323 163 1557 c 1,11,-1
 323 1557 l 1,0,1
EndSplineSet
EndChar
StartChar: asterisk
Encoding: 42 42 13
Width: 1022
VWidth: 3555
Flags: W
HStem: 1502 20G<458 573>
VStem: 458 115<587 963 1144 1522>
Fore
963 858 m 1,0,-1
 906 760 l 1,1,-1
 573 963 l 1,2,-1
 573 587 l 1,3,-1
 458 587 l 1,4,-1
 458 963 l 1,5,-1
 122 760 l 1,6,-1
 64 858 l 1,7,-1
 420 1055 l 1,8,-1
 64 1248 l 1,9,-1
 122 1347 l 1,10,-1
 458 1144 l 1,11,-1
 458 1522 l 1,12,-1
 573 1522 l 1,13,-1
 573 1144 l 1,14,-1
 906 1347 l 1,15,-1
 963 1248 l 1,16,-1
 604 1055 l 1,17,-1
 963 858 l 1,0,-1
EndSplineSet
EndChar
StartChar: plus
Encoding: 43 43 14
Width: 1716
VWidth: 3555
Flags: W
HStem: 0 21G<771 946> 559 170<220 771 946 1500>
VStem: 771 175<0 559 729 1286>
Fore
1500 729 m 1,0,-1
 1500 559 l 1,1,-1
 946 559 l 1,2,-1
 946 0 l 1,3,-1
 771 0 l 1,4,-1
 771 559 l 1,5,-1
 220 559 l 1,6,-1
 220 729 l 1,7,-1
 771 729 l 1,8,-1
 771 1286 l 1,9,-1
 946 1286 l 1,10,-1
 946 729 l 1,11,-1
 1500 729 l 1,0,-1
EndSplineSet
EndChar
StartChar: comma
Encoding: 44 44 15
Width: 649
VWidth: 3555
Flags: W
VStem: 238 217<82 252>
Fore
455 82 m 1,0,-1
 288 -238 l 1,1,-1
 156 -238 l 1,2,-1
 238 82 l 1,3,-1
 238 252 l 1,4,-1
 455 252 l 1,5,-1
 455 82 l 1,0,-1
EndSplineSet
EndChar
StartChar: hyphen
Encoding: 45 45 16
Width: 737
VWidth: 3555
Flags: W
HStem: 479 165<99 641>
Fore
641 479 m 1,0,-1
 99 479 l 1,1,-1
 99 644 l 1,2,-1
 641 644 l 1,3,-1
 641 479 l 1,0,-1
EndSplineSet
EndChar
StartChar: period
Encoding: 46 46 17
Width: 649
VWidth: 3555
Flags: W
HStem: 0 252<220 434>
VStem: 220 214<0 252>
Fore
434 0 m 1,0,-1
 220 0 l 1,1,-1
 220 252 l 1,2,-1
 434 252 l 1,3,-1
 434 0 l 1,0,-1
EndSplineSet
EndChar
StartChar: slash
Encoding: 47 47 18
Width: 689
VWidth: 3555
Flags: W
HStem: 1473 20G<512.843 689>
VStem: 0 689<-193 1493>
Fore
167 -193 m 1,0,-1
 0 -193 l 1,1,-1
 519 1493 l 1,2,-1
 689 1493 l 1,3,-1
 167 -193 l 1,0,-1
EndSplineSet
EndChar
StartChar: zero
Encoding: 48 48 19
Width: 1303
VWidth: 3555
Flags: W
HStem: -28 160<508.454 797.471> 1361 161<508.454 797.471>
VStem: 135 204<371.126 1121.67> 967 203<371.126 1121.67>
Fore
651 1361 m 0,0,1
 339 1361 339 1361 339 746 c 256,2,3
 339 132 339 132 651 132 c 0,4,5
 967 132 967 132 967 746 c 256,6,7
 967 1361 967 1361 651 1361 c 0,0,1
651 1522 m 256,8,9
 906 1522 906 1522 1038 1322.5 c 128,-1,10
 1170 1123 1170 1123 1170 746 c 256,11,12
 1170 370 1170 370 1038 171 c 128,-1,13
 906 -28 906 -28 651 -28 c 256,14,15
 394 -28 394 -28 264.5 171 c 128,-1,16
 135 370 135 370 135 746 c 256,17,18
 135 1123 135 1123 264.5 1322.5 c 128,-1,19
 394 1522 394 1522 651 1522 c 256,8,9
EndSplineSet
EndChar
StartChar: one
Encoding: 49 49 20
Width: 1303
VWidth: 3555
Flags: W
HStem: 0 167<252 587 783 1116> 1473 20G<478.294 783>
VStem: 587 196<167 1312>
Fore
587 1312 m 1,0,-1
 227 1238 l 1,1,-1
 227 1425 l 1,2,-1
 583 1493 l 1,3,-1
 783 1493 l 1,4,-1
 783 167 l 1,5,-1
 1116 167 l 1,6,-1
 1116 0 l 1,7,-1
 252 0 l 1,8,-1
 252 167 l 1,9,-1
 587 167 l 1,10,-1
 587 1312 l 1,0,-1
EndSplineSet
EndChar
StartChar: two
Encoding: 50 50 21
Width: 1303
VWidth: 3555
Flags: W
HStem: 0 167<391 1099> 1351 171<422.692 763.685>
VStem: 889 203<928.954 1231.6>
Fore
1099 0 m 1,0,-1
 149 0 l 1,1,-1
 149 167 l 1,2,3
 207 227 207 227 285 307 c 128,-1,4
 363 387 363 387 462 488 c 0,5,6
 562 590 562 590 624 656 c 128,-1,7
 686 722 686 722 715 750 c 0,8,9
 814 858 814 858 851.5 932.5 c 128,-1,10
 889 1007 889 1007 889 1082 c 0,11,12
 889 1201 889 1201 805.5 1276 c 128,-1,13
 722 1351 722 1351 587 1351 c 0,14,15
 398 1351 398 1351 160 1219 c 1,16,-1
 160 1425 l 1,17,18
 281 1472 281 1472 388 1497 c 128,-1,19
 495 1522 495 1522 583 1522 c 0,20,21
 818 1522 818 1522 955 1406 c 128,-1,22
 1092 1290 1092 1290 1092 1095 c 0,23,24
 1092 1003 1092 1003 1056.5 920.5 c 128,-1,25
 1021 838 1021 838 932 726 c 0,26,27
 906 696 906 696 771.5 560 c 128,-1,28
 637 424 637 424 391 167 c 1,29,-1
 1099 167 l 1,30,-1
 1099 0 l 1,0,-1
EndSplineSet
EndChar
StartChar: three
Encoding: 51 51 22
Width: 1303
VWidth: 3555
Flags: W
HStem: -28 170<394.424 793.548> 715 167<413 800.726> 1351 171<394.939 793.793>
VStem: 903 203<972.302 1251.09> 939 202<273.907 590.34>
Fore
832 807 m 1,0,1
 981 771 981 771 1061 675.5 c 128,-1,2
 1141 580 1141 580 1141 437 c 0,3,4
 1141 214 1141 214 989.5 93 c 128,-1,5
 838 -28 838 -28 559 -28 c 0,6,7
 462 -28 462 -28 363 -10.5 c 128,-1,8
 264 7 264 7 153 43 c 1,9,-1
 153 238 l 1,10,11
 238 193 238 193 339.5 167.5 c 128,-1,12
 441 142 441 142 550 142 c 0,13,14
 939 142 939 142 939 437 c 0,15,16
 939 569 939 569 846 642 c 128,-1,17
 753 715 753 715 590 715 c 2,18,-1
 413 715 l 1,19,-1
 413 882 l 1,20,-1
 597 882 l 2,21,22
 903 882 903 882 903 1113 c 0,23,24
 903 1227 903 1227 821.5 1289 c 128,-1,25
 740 1351 740 1351 590 1351 c 0,26,27
 505 1351 505 1351 410.5 1333.5 c 128,-1,28
 316 1316 316 1316 203 1276 c 1,29,-1
 203 1458 l 1,30,31
 434 1522 434 1522 608 1522 c 0,32,33
 842 1522 842 1522 974 1419 c 128,-1,34
 1106 1316 1106 1316 1106 1134 c 0,35,36
 1106 1010 1106 1010 1034.5 924 c 128,-1,37
 963 838 963 838 832 807 c 1,0,1
EndSplineSet
EndChar
StartChar: four
Encoding: 52 52 23
Width: 1303
VWidth: 3555
Flags: W
HStem: 0 21G<771 977> 352 167<264 771 977 1191> 1473 20G<708.884 977>
VStem: 771 206<0 352 519 1319>
Fore
771 519 m 1,0,-1
 771 1319 l 1,1,-1
 264 519 l 1,2,-1
 771 519 l 1,0,-1
977 519 m 1,3,-1
 1191 519 l 1,4,-1
 1191 352 l 1,5,-1
 977 352 l 1,6,-1
 977 0 l 1,7,-1
 771 0 l 1,8,-1
 771 352 l 1,9,-1
 99 352 l 1,10,-1
 99 543 l 1,11,-1
 722 1493 l 1,12,-1
 977 1493 l 1,13,-1
 977 519 l 1,3,-1
EndSplineSet
EndChar
StartChar: five
Encoding: 53 53 24
Width: 1303
VWidth: 3555
Flags: W
HStem: -28 170<313.968 759.879> 821 167<433.205 758.623> 1326 167<404 1014>
VStem: 224 180<960 1326> 924 199<297.514 662.301>
Fore
1014 1326 m 1,0,-1
 404 1326 l 1,1,-1
 404 960 l 1,2,3
 509 988 509 988 583 988 c 0,4,5
 838 988 838 988 980.5 851.5 c 128,-1,6
 1123 715 1123 715 1123 479 c 0,7,8
 1123 234 1123 234 974 103 c 128,-1,9
 825 -28 825 -28 554 -28 c 0,10,11
 370 -28 370 -28 156 35 c 1,12,-1
 156 238 l 1,13,14
 248 193 248 193 344.5 167.5 c 128,-1,15
 441 142 441 142 543 142 c 0,16,17
 726 142 726 142 825 230.5 c 128,-1,18
 924 319 924 319 924 479 c 256,19,20
 924 641 924 641 825 731 c 128,-1,21
 726 821 726 821 543 821 c 0,22,23
 465 821 465 821 383.5 800 c 128,-1,24
 302 779 302 779 224 743 c 1,25,-1
 224 1493 l 1,26,-1
 1014 1493 l 1,27,-1
 1014 1326 l 1,0,-1
EndSplineSet
EndChar
StartChar: six
Encoding: 54 54 25
Width: 1303
VWidth: 3555
Flags: W
HStem: -28 160<515.793 836.697> 828 160<512.592 836.399> 1351 171<573.456 856.014>
VStem: 142 238<375.796 903.777> 974 203<278.727 680.928>
Fore
679 828 m 0,0,1
 536 828 536 828 458 734.5 c 128,-1,2
 380 641 380 641 380 479 c 256,3,4
 380 319 380 319 458 225.5 c 128,-1,5
 536 132 536 132 679 132 c 0,6,7
 814 132 814 132 894 225.5 c 128,-1,8
 974 319 974 319 974 479 c 256,9,10
 974 641 974 641 894 734.5 c 128,-1,11
 814 828 814 828 679 828 c 0,0,1
1078 1276 m 1,12,13
 1003 1316 1003 1316 924 1333.5 c 128,-1,14
 845 1351 845 1351 767 1351 c 0,15,16
 373 1351 373 1351 345 811 c 1,17,18
 401 896 401 896 492 942 c 128,-1,19
 583 988 583 988 689 988 c 0,20,21
 917 988 917 988 1047 851.5 c 128,-1,22
 1177 715 1177 715 1177 479 c 256,23,24
 1177 245 1177 245 1040 108.5 c 128,-1,25
 903 -28 903 -28 679 -28 c 0,26,27
 413 -28 413 -28 277.5 171 c 128,-1,28
 142 370 142 370 142 746 c 0,29,30
 142 924 142 924 186.5 1066 c 128,-1,31
 231 1208 231 1208 311 1309.5 c 128,-1,32
 391 1411 391 1411 506 1466.5 c 128,-1,33
 621 1522 621 1522 760 1522 c 0,34,35
 838 1522 838 1522 914.5 1505.5 c 128,-1,36
 991 1489 991 1489 1078 1462 c 1,37,-1
 1078 1276 l 1,12,13
EndSplineSet
EndChar
StartChar: seven
Encoding: 55 55 26
Width: 1303
VWidth: 3555
Flags: W
HStem: 0 21G<377 594.697> 1326 167<167 885>
Fore
1130 1411 m 1,0,-1
 587 0 l 1,1,-1
 377 0 l 1,2,-1
 885 1326 l 1,3,-1
 167 1326 l 1,4,-1
 167 1493 l 1,5,-1
 1130 1493 l 1,6,-1
 1130 1411 l 1,0,-1
EndSplineSet
EndChar
StartChar: eight
Encoding: 56 56 27
Width: 1303
VWidth: 3555
Flags: W
HStem: -28 160<471.289 836.637> 712 156<474.796 827.16> 1361 161<476.603 825.253>
VStem: 139 206<255.273 589.7> 170 207<964.284 1264.65> 932 198<967.693 1259.39> 963 204<252.586 589.7>
Fore
651 712 m 0,0,1
 509 712 509 712 427 635.5 c 128,-1,2
 345 559 345 559 345 420 c 0,3,4
 345 285 345 285 427 208.5 c 128,-1,5
 509 132 509 132 651 132 c 0,6,7
 800 132 800 132 881.5 208.5 c 128,-1,8
 963 285 963 285 963 420 c 0,9,10
 963 559 963 559 881.5 635.5 c 128,-1,11
 800 712 800 712 651 712 c 0,0,1
451 797 m 1,12,13
 319 828 319 828 244.5 917.5 c 128,-1,14
 170 1007 170 1007 170 1134 c 0,15,16
 170 1316 170 1316 298.5 1419 c 128,-1,17
 427 1522 427 1522 651 1522 c 256,18,19
 875 1522 875 1522 1002.5 1419 c 128,-1,20
 1130 1316 1130 1316 1130 1134 c 0,21,22
 1130 1007 1130 1007 1057 917.5 c 128,-1,23
 984 828 984 828 854 797 c 1,24,25
 1003 760 1003 760 1085 664.5 c 128,-1,26
 1167 569 1167 569 1167 420 c 0,27,28
 1167 207 1167 207 1033 89.5 c 128,-1,29
 899 -28 899 -28 651 -28 c 256,30,31
 401 -28 401 -28 270 89.5 c 128,-1,32
 139 207 139 207 139 420 c 0,33,34
 139 569 139 569 220.5 664.5 c 128,-1,35
 302 760 302 760 451 797 c 1,12,13
377 1116 m 0,36,37
 377 998 377 998 448 933 c 128,-1,38
 519 868 519 868 651 868 c 0,39,40
 779 868 779 868 855.5 933 c 128,-1,41
 932 998 932 998 932 1116 c 0,42,43
 932 1231 932 1231 855.5 1296 c 128,-1,44
 779 1361 779 1361 651 1361 c 0,45,46
 519 1361 519 1361 448 1296 c 128,-1,47
 377 1231 377 1231 377 1116 c 0,36,37
EndSplineSet
EndChar
StartChar: nine
Encoding: 57 57 28
Width: 1303
VWidth: 3555
Flags: W
HStem: -28 170<370.459 734.618> 505 160<468.554 785.409> 1361 161<469.305 782.597>
VStem: 128 207<806.907 1218.25> 924 239<746 1113.96>
Fore
227 217 m 1,0,1
 302 177 302 177 380 159.5 c 128,-1,2
 458 142 458 142 533 142 c 0,3,4
 736 142 736 142 841 276 c 128,-1,5
 946 410 946 410 960 686 c 1,6,7
 899 601 899 601 810.5 553 c 128,-1,8
 722 505 722 505 615 505 c 0,9,10
 387 505 387 505 257.5 639.5 c 128,-1,11
 128 774 128 774 128 1014 c 0,12,13
 128 1248 128 1248 264.5 1385 c 128,-1,14
 401 1522 401 1522 625 1522 c 0,15,16
 885 1522 885 1522 1024 1322.5 c 128,-1,17
 1163 1123 1163 1123 1163 746 c 0,18,19
 1163 573 1163 573 1118 429 c 128,-1,20
 1073 285 1073 285 993 183.5 c 128,-1,21
 913 82 913 82 797.5 27 c 128,-1,22
 682 -28 682 -28 540 -28 c 0,23,24
 384 -28 384 -28 227 28 c 1,25,-1
 227 217 l 1,0,1
625 665 m 256,26,27
 760 665 760 665 842 757 c 128,-1,28
 924 849 924 849 924 1014 c 256,29,30
 924 1177 924 1177 842 1269 c 128,-1,31
 760 1361 760 1361 625 1361 c 256,32,33
 491 1361 491 1361 413 1269 c 128,-1,34
 335 1177 335 1177 335 1014 c 256,35,36
 335 849 335 849 413 757 c 128,-1,37
 491 665 491 665 625 665 c 256,26,27
EndSplineSet
EndChar
StartChar: colon
Encoding: 58 58 29
Width: 689
VWidth: 3555
Flags: W
HStem: 0 252<238 455> 807 255<238 455>
VStem: 238 217<0 252 807 1062>
Fore
455 0 m 1,0,-1
 238 0 l 1,1,-1
 238 252 l 1,2,-1
 455 252 l 1,3,-1
 455 0 l 1,0,-1
455 807 m 1,4,-1
 238 807 l 1,5,-1
 238 1062 l 1,6,-1
 455 1062 l 1,7,-1
 455 807 l 1,4,-1
EndSplineSet
EndChar
StartChar: semicolon
Encoding: 59 59 30
Width: 689
VWidth: 3555
Flags: W
HStem: 807 255<238 455>
VStem: 238 217<82 252 807 1062>
Fore
455 807 m 1,0,-1
 238 807 l 1,1,-1
 238 1062 l 1,2,-1
 455 1062 l 1,3,-1
 455 807 l 1,0,-1
455 82 m 1,4,-1
 288 -238 l 1,5,-1
 156 -238 l 1,6,-1
 238 82 l 1,7,-1
 238 252 l 1,8,-1
 455 252 l 1,9,-1
 455 82 l 1,4,-1
EndSplineSet
EndChar
StartChar: less
Encoding: 60 60 31
Width: 1716
VWidth: 3555
Flags: W
Fore
1500 278 m 1,0,-1
 1500 95 l 1,1,-1
 220 562 l 1,2,-1
 220 726 l 1,3,-1
 1500 1191 l 1,4,-1
 1500 1007 l 1,5,-1
 469 641 l 1,6,-1
 1500 278 l 1,0,-1
EndSplineSet
EndChar
StartChar: equal
Encoding: 61 61 32
Width: 1716
VWidth: 3555
Flags: W
HStem: 352 171<220 1500> 760 172<220 1500>
Fore
1500 760 m 1,0,-1
 220 760 l 1,1,-1
 220 932 l 1,2,-1
 1500 932 l 1,3,-1
 1500 760 l 1,0,-1
1500 352 m 1,4,-1
 220 352 l 1,5,-1
 220 523 l 1,6,-1
 1500 523 l 1,7,-1
 1500 352 l 1,4,-1
EndSplineSet
EndChar
StartChar: greater
Encoding: 62 62 33
Width: 1716
VWidth: 3555
Flags: W
Fore
1500 726 m 1,0,-1
 1500 562 l 1,1,-1
 220 95 l 1,2,-1
 220 278 l 1,3,-1
 1248 641 l 1,4,-1
 220 1007 l 1,5,-1
 220 1191 l 1,6,-1
 1500 726 l 1,0,-1
EndSplineSet
EndChar
StartChar: question
Encoding: 63 63 34
Width: 1086
VWidth: 3555
Flags: W
HStem: 0 252<391 597> 1358 164<324.157 661.089>
VStem: 391 206<0 252> 394 196<401 607.602> 743 203<1034.31 1281.04>
Fore
597 0 m 1,0,-1
 391 0 l 1,1,-1
 391 252 l 1,2,-1
 597 252 l 1,3,-1
 597 0 l 1,0,-1
394 559 m 2,4,5
 394 654 394 654 424.5 720 c 128,-1,6
 455 786 455 786 540 871 c 2,7,-1
 634 963 l 2,8,9
 743 1062 743 1062 743 1156 c 256,10,11
 743 1248 743 1248 677 1303 c 128,-1,12
 611 1358 611 1358 502 1358 c 0,13,14
 424 1358 424 1358 334.5 1324 c 128,-1,15
 245 1290 245 1290 146 1219 c 1,16,-1
 146 1411 l 1,17,18
 342 1522 342 1522 536 1522 c 0,19,20
 722 1522 722 1522 834 1426 c 128,-1,21
 946 1330 946 1330 946 1170 c 0,22,23
 946 1092 946 1092 908.5 1024.5 c 128,-1,24
 871 957 871 957 783 868 c 2,25,-1
 696 783 l 2,26,27
 648 736 648 736 628 711 c 128,-1,28
 608 686 608 686 601 658 c 0,29,30
 597 637 597 637 593.5 608.5 c 128,-1,31
 590 580 590 580 590 523 c 2,32,-1
 590 401 l 1,33,-1
 394 401 l 1,34,-1
 394 559 l 2,4,5
EndSplineSet
EndChar
StartChar: at
Encoding: 64 64 35
Width: 2050
VWidth: 3555
Flags: W
HStem: -356 142<771.704 1293.55> 89 142<872.704 1181.95> 842 146<872.355 1180.63> 1302 146<787.643 1320.4>
VStem: 135 143<279.141 802.671> 604 156<350.254 725.768> 1309 142<231 238 838 970> 1760 150<424.03 871.459>
Fore
760 536 m 0,0,1
 760 394 760 394 831.5 312.5 c 128,-1,2
 903 231 903 231 1028 231 c 256,3,4
 1153 231 1153 231 1226 312.5 c 128,-1,5
 1299 394 1299 394 1299 536 c 256,6,7
 1299 679 1299 679 1224 760.5 c 128,-1,8
 1149 842 1149 842 1028 842 c 256,9,10
 906 842 906 842 833 764 c 128,-1,11
 760 686 760 686 760 536 c 0,0,1
1309 238 m 1,12,13
 1191 89 1191 89 991 89 c 0,14,15
 821 89 821 89 712.5 212 c 128,-1,16
 604 335 604 335 604 536 c 256,17,18
 604 740 604 740 712.5 864 c 128,-1,19
 821 988 821 988 991 988 c 0,20,21
 1191 988 1191 988 1309 838 c 1,22,-1
 1309 970 l 1,23,-1
 1451 970 l 1,24,-1
 1451 231 l 1,25,26
 1601 252 1601 252 1680.5 362 c 128,-1,27
 1760 472 1760 472 1760 654 c 0,28,29
 1760 760 1760 760 1730 855 c 128,-1,30
 1700 950 1700 950 1635 1028 c 0,31,32
 1533 1163 1533 1163 1382 1232.5 c 128,-1,33
 1231 1302 1231 1302 1059 1302 c 0,34,35
 811 1302 811 1302 611 1174 c 0,36,37
 451 1069 451 1069 364.5 902.5 c 128,-1,38
 278 736 278 736 278 540 c 0,39,40
 278 220 278 220 502 0 c 0,41,42
 722 -214 722 -214 1042 -214 c 0,43,44
 1170 -214 1170 -214 1294 -171 c 128,-1,45
 1418 -128 1418 -128 1522 -43 c 1,46,-1
 1611 -153 l 1,47,48
 1486 -252 1486 -252 1338.5 -304 c 128,-1,49
 1191 -356 1191 -356 1042 -356 c 0,50,51
 658 -356 658 -356 394 -99 c 0,52,53
 271 24 271 24 203 190 c 128,-1,54
 135 356 135 356 135 540 c 256,55,56
 135 726 135 726 203 892.5 c 128,-1,57
 271 1059 271 1059 394 1184 c 0,58,59
 526 1309 526 1309 695.5 1378.5 c 128,-1,60
 865 1448 865 1448 1055 1448 c 0,61,62
 1269 1448 1269 1448 1448.5 1358.5 c 128,-1,63
 1628 1269 1628 1269 1753 1109 c 0,64,65
 1831 1010 1831 1010 1870.5 894.5 c 128,-1,66
 1910 779 1910 779 1910 658 c 0,67,68
 1910 391 1910 391 1749 240 c 128,-1,69
 1588 89 1588 89 1309 85 c 1,70,-1
 1309 238 l 1,12,13
EndSplineSet
EndChar
StartChar: A
Encoding: 65 65 36
Width: 1399
VWidth: 3555
Flags: W
HStem: 0 21G<14 238.105 1169.89 1384> 380 174<431 977> 1473 20G<579.324 825.582>
Fore
977 554 m 1,0,-1
 700 1299 l 1,1,-1
 431 554 l 1,2,-1
 977 554 l 1,0,-1
1384 0 m 1,3,-1
 1177 0 l 1,4,-1
 1042 380 l 1,5,-1
 366 380 l 1,6,-1
 231 0 l 1,7,-1
 14 0 l 1,8,-1
 587 1493 l 1,9,-1
 818 1493 l 1,10,-1
 1384 0 l 1,3,-1
EndSplineSet
EndChar
StartChar: B
Encoding: 66 66 37
Width: 1407
VWidth: 3555
Flags: W
HStem: 0 163<401 929.494> 715 163<401 903.242> 1330 163<401 902.695>
VStem: 203 198<163 715 878 1330> 995 206<960.764 1243.89> 1049 213<273.981 607.263>
Fore
729 163 m 2,0,1
 1049 163 1049 163 1049 441 c 0,2,3
 1049 715 1049 715 729 715 c 2,4,-1
 401 715 l 1,5,-1
 401 163 l 1,6,-1
 729 163 l 2,0,1
705 878 m 2,7,8
 995 878 995 878 995 1102 c 0,9,10
 995 1330 995 1330 705 1330 c 2,11,-1
 401 1330 l 1,12,-1
 401 878 l 1,13,-1
 705 878 l 2,7,8
719 1493 m 1,14,15
 953 1493 953 1493 1077 1399 c 128,-1,16
 1201 1305 1201 1305 1201 1123 c 0,17,18
 1201 988 1201 988 1135 908 c 128,-1,19
 1069 828 1069 828 950 807 c 1,20,21
 1099 771 1099 771 1180.5 673.5 c 128,-1,22
 1262 576 1262 576 1262 417 c 0,23,24
 1262 220 1262 220 1125 110 c 128,-1,25
 988 0 988 0 740 0 c 2,26,-1
 203 0 l 1,27,-1
 203 1493 l 1,28,-1
 719 1493 l 1,14,15
EndSplineSet
EndChar
StartChar: C
Encoding: 67 67 38
Width: 1432
VWidth: 3555
Flags: W
HStem: -28 167<618.502 1094.24> 1354 168<618.502 1094.24>
VStem: 115 215<450.564 1042.24>
Fore
1323 1167 m 1,0,1
 1116 1354 1116 1354 858 1354 c 0,2,3
 601 1354 601 1354 465.5 1201.5 c 128,-1,4
 330 1049 330 1049 330 746 c 256,5,6
 330 444 330 444 465.5 291.5 c 128,-1,7
 601 139 601 139 858 139 c 0,8,9
 1116 139 1116 139 1323 326 c 1,10,-1
 1323 115 l 1,11,12
 1116 -28 1116 -28 845 -28 c 0,13,14
 502 -28 502 -28 308.5 176 c 128,-1,15
 115 380 115 380 115 746 c 256,16,17
 115 1113 115 1113 308.5 1317.5 c 128,-1,18
 502 1522 502 1522 845 1522 c 0,19,20
 1116 1522 1116 1522 1323 1380 c 1,21,-1
 1323 1167 l 1,0,1
EndSplineSet
EndChar
StartChar: D
Encoding: 68 68 39
Width: 1578
VWidth: 3555
Flags: W
HStem: 0 163<401 938.557> 1330 163<401 943.802>
VStem: 203 198<163 1330> 1245 213<468.434 1030.75>
Fore
648 163 m 2,0,1
 960 163 960 163 1102.5 305.5 c 128,-1,2
 1245 448 1245 448 1245 750 c 256,3,4
 1245 1052 1245 1052 1102.5 1191 c 128,-1,5
 960 1330 960 1330 648 1330 c 2,6,-1
 401 1330 l 1,7,-1
 401 163 l 1,8,-1
 648 163 l 2,0,1
615 1493 m 1,9,10
 1055 1493 1055 1493 1256.5 1315 c 128,-1,11
 1458 1137 1458 1137 1458 750 c 256,12,13
 1458 363 1458 363 1256.5 181.5 c 128,-1,14
 1055 0 1055 0 615 0 c 2,15,-1
 203 0 l 1,16,-1
 203 1493 l 1,17,-1
 615 1493 l 1,9,10
EndSplineSet
EndChar
StartChar: E
Encoding: 69 69 40
Width: 1296
VWidth: 3555
Flags: W
HStem: 0 167<401 1167> 712 170<401 1116> 1326 167<401 1144>
VStem: 203 198<167 712 882 1326>
Fore
1144 1326 m 1,0,-1
 401 1326 l 1,1,-1
 401 882 l 1,2,-1
 1116 882 l 1,3,-1
 1116 712 l 1,4,-1
 401 712 l 1,5,-1
 401 167 l 1,6,-1
 1167 167 l 1,7,-1
 1167 0 l 1,8,-1
 203 0 l 1,9,-1
 203 1493 l 1,10,-1
 1144 1493 l 1,11,-1
 1144 1326 l 1,0,-1
EndSplineSet
EndChar
StartChar: F
Encoding: 70 70 41
Width: 1178
VWidth: 3555
Flags: W
HStem: 0 21G<203 401> 715 167<401 995> 1326 167<401 1062>
VStem: 203 198<0 715 882 1326>
Fore
1062 1326 m 1,0,-1
 401 1326 l 1,1,-1
 401 882 l 1,2,-1
 995 882 l 1,3,-1
 995 715 l 1,4,-1
 401 715 l 1,5,-1
 401 0 l 1,6,-1
 203 0 l 1,7,-1
 203 1493 l 1,8,-1
 1062 1493 l 1,9,-1
 1062 1326 l 1,0,-1
EndSplineSet
EndChar
StartChar: G
Encoding: 71 71 42
Width: 1588
VWidth: 3555
Flags: W
HStem: -28 167<625.729 1080.33> 615 164<889 1219> 1354 168<625.729 1135.13>
VStem: 115 215<454.667 1037.96> 1219 203<214 615>
Fore
889 615 m 1,0,-1
 889 779 l 1,1,-1
 1422 779 l 1,2,-1
 1422 139 l 1,3,4
 1305 54 1305 54 1163 13 c 128,-1,5
 1021 -28 1021 -28 861 -28 c 0,6,7
 505 -28 505 -28 310 176 c 128,-1,8
 115 380 115 380 115 746 c 256,9,10
 115 1113 115 1113 310 1317.5 c 128,-1,11
 505 1522 505 1522 861 1522 c 0,12,13
 1163 1522 1163 1522 1380 1380 c 1,14,-1
 1380 1167 l 1,15,16
 1160 1354 1160 1354 878 1354 c 0,17,18
 330 1354 330 1354 330 746 c 256,19,20
 330 139 330 139 878 139 c 0,21,22
 984 139 984 139 1068.5 154.5 c 128,-1,23
 1153 170 1153 170 1219 214 c 1,24,-1
 1219 615 l 1,25,-1
 889 615 l 1,0,-1
EndSplineSet
EndChar
StartChar: H
Encoding: 72 72 43
Width: 1541
VWidth: 3555
Flags: W
HStem: 0 21G<203 401 1137 1340> 712 170<401 1137> 1473 20G<203 401 1137 1340>
VStem: 203 198<0 712 882 1493> 1137 203<0 712 882 1493>
Fore
401 882 m 1,0,-1
 1137 882 l 1,1,-1
 1137 1493 l 1,2,-1
 1340 1493 l 1,3,-1
 1340 0 l 1,4,-1
 1137 0 l 1,5,-1
 1137 712 l 1,6,-1
 401 712 l 1,7,-1
 401 0 l 1,8,-1
 203 0 l 1,9,-1
 203 1493 l 1,10,-1
 401 1493 l 1,11,-1
 401 882 l 1,0,-1
EndSplineSet
EndChar
StartChar: I
Encoding: 73 73 44
Width: 604
VWidth: 3555
Flags: W
HStem: 0 21G<203 401> 1473 20G<203 401>
VStem: 203 198<0 1493>
Fore
401 0 m 1,0,-1
 203 0 l 1,1,-1
 203 1493 l 1,2,-1
 401 1493 l 1,3,-1
 401 0 l 1,0,-1
EndSplineSet
EndChar
StartChar: J
Encoding: 74 74 45
Width: 604
VWidth: 3555
Flags: W
HStem: -410 172<-106 113.684> 1473 20G<203 401>
VStem: 203 198<-145.525 1493>
Fore
401 102 m 2,0,1
 401 -163 401 -163 300.5 -286.5 c 128,-1,2
 200 -410 200 -410 -28 -410 c 2,3,-1
 -106 -410 l 1,4,-1
 -106 -238 l 1,5,-1
 -43 -238 l 2,6,7
 92 -238 92 -238 147.5 -163.5 c 128,-1,8
 203 -89 203 -89 203 102 c 2,9,-1
 203 1493 l 1,10,-1
 401 1493 l 1,11,-1
 401 102 l 2,0,1
EndSplineSet
EndChar
StartChar: K
Encoding: 75 75 46
Width: 1343
VWidth: 3555
Flags: W
HStem: 0 21G<203 401 1100.08 1387> 1473 20G<203 401 1051.6 1333>
VStem: 203 198<0 722 865 1493>
Fore
401 865 m 1,0,-1
 1073 1493 l 1,1,-1
 1333 1493 l 1,2,-1
 594 800 l 1,3,-1
 1387 0 l 1,4,-1
 1120 0 l 1,5,-1
 401 722 l 1,6,-1
 401 0 l 1,7,-1
 203 0 l 1,8,-1
 203 1493 l 1,9,-1
 401 1493 l 1,10,-1
 401 865 l 1,0,-1
EndSplineSet
EndChar
StartChar: L
Encoding: 76 76 47
Width: 1140
VWidth: 3555
Flags: W
HStem: 0 167<401 1130> 1473 20G<203 401>
VStem: 203 198<167 1493>
Fore
401 167 m 1,0,-1
 1130 167 l 1,1,-1
 1130 0 l 1,2,-1
 203 0 l 1,3,-1
 203 1493 l 1,4,-1
 401 1493 l 1,5,-1
 401 167 l 1,0,-1
EndSplineSet
EndChar
StartChar: M
Encoding: 77 77 48
Width: 1765
VWidth: 3555
Flags: W
HStem: 0 21G<203 394 1373 1571> 1473 20G<203 509.473 1258.45 1571>
VStem: 203 191<0 1312> 1373 198<0 1312>
Fore
882 476 m 1,0,-1
 1266 1493 l 1,1,-1
 1571 1493 l 1,2,-1
 1571 0 l 1,3,-1
 1373 0 l 1,4,-1
 1373 1312 l 1,5,-1
 988 288 l 1,6,-1
 783 288 l 1,7,-1
 394 1312 l 1,8,-1
 394 0 l 1,9,-1
 203 0 l 1,10,-1
 203 1493 l 1,11,-1
 502 1493 l 1,12,-1
 882 476 l 1,0,-1
EndSplineSet
EndChar
StartChar: N
Encoding: 78 78 49
Width: 1534
VWidth: 3555
Flags: W
HStem: 0 21G<203 394 1051.29 1333> 1473 20G<203 482.657 1137 1333>
VStem: 203 191<0 1248> 1137 196<245 1493>
Fore
1137 245 m 1,0,-1
 1137 1493 l 1,1,-1
 1333 1493 l 1,2,-1
 1333 0 l 1,3,-1
 1062 0 l 1,4,-1
 394 1248 l 1,5,-1
 394 0 l 1,6,-1
 203 0 l 1,7,-1
 203 1493 l 1,8,-1
 472 1493 l 1,9,-1
 1137 245 l 1,0,-1
EndSplineSet
EndChar
StartChar: O
Encoding: 79 79 50
Width: 1612
VWidth: 3555
Flags: W
HStem: -28 163<606.837 1013.46> 1358 164<606.837 1011.35>
VStem: 115 215<454.666 1034.75> 1286 210<453.478 1033.73>
Fore
811 1358 m 0,0,1
 587 1358 587 1358 458.5 1193 c 128,-1,2
 330 1028 330 1028 330 746 c 0,3,4
 330 458 330 458 458.5 296.5 c 128,-1,5
 587 135 587 135 811 135 c 0,6,7
 1028 135 1028 135 1157 296.5 c 128,-1,8
 1286 458 1286 458 1286 746 c 0,9,10
 1286 1028 1286 1028 1157 1193 c 128,-1,11
 1028 1358 1028 1358 811 1358 c 0,0,1
811 1522 m 0,12,13
 967 1522 967 1522 1093 1466.5 c 128,-1,14
 1219 1411 1219 1411 1310 1309.5 c 128,-1,15
 1401 1208 1401 1208 1448.5 1066 c 128,-1,16
 1496 924 1496 924 1496 746 c 0,17,18
 1496 573 1496 573 1448.5 429 c 128,-1,19
 1401 285 1401 285 1310 183.5 c 128,-1,20
 1219 82 1219 82 1093 27 c 128,-1,21
 967 -28 967 -28 811 -28 c 0,22,23
 495 -28 495 -28 302 181 c 0,24,25
 115 391 115 391 115 746 c 0,26,27
 115 1099 115 1099 302 1309 c 0,28,29
 495 1522 495 1522 811 1522 c 0,12,13
EndSplineSet
EndChar
StartChar: P
Encoding: 80 80 51
Width: 1236
VWidth: 3555
Flags: W
HStem: 0 21G<203 401> 601 163<401 833.821> 1330 163<401 839.897>
VStem: 203 198<0 601 764 1330> 953 214<879.671 1219.22>
Fore
658 764 m 2,0,1
 800 764 800 764 876.5 840.5 c 128,-1,2
 953 917 953 917 953 1049 c 0,3,4
 953 1184 953 1184 876.5 1257 c 128,-1,5
 800 1330 800 1330 658 1330 c 2,6,-1
 401 1330 l 1,7,-1
 401 764 l 1,8,-1
 658 764 l 2,0,1
658 1493 m 1,9,10
 906 1493 906 1493 1036.5 1379.5 c 128,-1,11
 1167 1266 1167 1266 1167 1049 c 0,12,13
 1167 825 1167 825 1036.5 713 c 128,-1,14
 906 601 906 601 658 601 c 2,15,-1
 401 601 l 1,16,-1
 401 0 l 1,17,-1
 203 0 l 1,18,-1
 203 1493 l 1,19,-1
 658 1493 l 1,9,10
EndSplineSet
EndChar
StartChar: Q
Encoding: 81 81 52
Width: 1612
VWidth: 3555
Flags: W
HStem: -28 163<606.837 886.536 842.02 892> 1358 164<606.837 1011.35>
VStem: 115 215<454.666 1034.75> 1286 210<453.355 1033.73>
Fore
811 1358 m 0,0,1
 587 1358 587 1358 458.5 1193 c 128,-1,2
 330 1028 330 1028 330 746 c 0,3,4
 330 458 330 458 458.5 296.5 c 128,-1,5
 587 135 587 135 811 135 c 0,6,7
 1028 135 1028 135 1157 296.5 c 128,-1,8
 1286 458 1286 458 1286 746 c 0,9,10
 1286 1028 1286 1028 1157 1193 c 128,-1,11
 1028 1358 1028 1358 811 1358 c 0,0,1
1113 -264 m 1,12,-1
 892 -24 l 1,13,14
 858 -24 858 -24 841.5 -26 c 128,-1,15
 825 -28 825 -28 811 -28 c 0,16,17
 495 -28 495 -28 302 181 c 0,18,19
 115 391 115 391 115 746 c 0,20,21
 115 1099 115 1099 302 1309 c 0,22,23
 495 1522 495 1522 811 1522 c 0,24,25
 967 1522 967 1522 1093 1466.5 c 128,-1,26
 1219 1411 1219 1411 1310 1309.5 c 128,-1,27
 1401 1208 1401 1208 1448.5 1066 c 128,-1,28
 1496 924 1496 924 1496 746 c 0,29,30
 1496 488 1496 488 1394.5 301.5 c 128,-1,31
 1293 115 1293 115 1092 24 c 1,32,-1
 1358 -264 l 1,33,-1
 1113 -264 l 1,12,-1
EndSplineSet
EndChar
StartChar: R
Encoding: 82 82 53
Width: 1425
VWidth: 3555
Flags: W
HStem: 0 21G<203 401 1134.16 1364> 628 172<401 707.157> 1330 163<401 843.78>
VStem: 203 198<0 628 800 1330> 953 214<899.536 1226.91>
Fore
910 700 m 1,0,1
 1038 661 1038 661 1163 404 c 2,2,-1
 1364 0 l 1,3,-1
 1144 0 l 1,4,-1
 957 380 l 2,5,6
 920 455 920 455 887 504.5 c 128,-1,7
 854 554 854 554 814 581 c 128,-1,8
 774 608 774 608 728 618 c 128,-1,9
 682 628 682 628 621 628 c 2,10,-1
 401 628 l 1,11,-1
 401 0 l 1,12,-1
 203 0 l 1,13,-1
 203 1493 l 1,14,-1
 658 1493 l 2,15,16
 1167 1493 1167 1493 1167 1066 c 0,17,18
 1167 924 1167 924 1101 830 c 128,-1,19
 1035 736 1035 736 910 700 c 1,0,1
658 800 m 2,20,21
 953 800 953 800 953 1066 c 0,22,23
 953 1330 953 1330 658 1330 c 2,24,-1
 401 1330 l 1,25,-1
 401 800 l 1,26,-1
 658 800 l 2,20,21
EndSplineSet
EndChar
StartChar: S
Encoding: 83 83 54
Width: 1300
VWidth: 3555
Flags: W
HStem: -28 163<444.474 842.434> 1358 164<459.031 855.528>
VStem: 135 204<976.239 1251.33> 977 210<253.782 541.211>
Fore
1099 1248 m 1,0,1
 875 1358 875 1358 686 1358 c 0,2,3
 516 1358 516 1358 427.5 1294.5 c 128,-1,4
 339 1231 339 1231 339 1113 c 0,5,6
 339 1010 339 1010 398.5 960 c 128,-1,7
 458 910 458 910 621 878 c 2,8,-1
 746 854 l 2,9,10
 974 814 974 814 1080.5 705.5 c 128,-1,11
 1187 597 1187 597 1187 413 c 0,12,13
 1187 196 1187 196 1041.5 84 c 128,-1,14
 896 -28 896 -28 615 -28 c 0,15,16
 509 -28 509 -28 390 -5.5 c 128,-1,17
 271 17 271 17 142 68 c 1,18,-1
 142 274 l 1,19,20
 264 207 264 207 383 171 c 128,-1,21
 502 135 502 135 615 135 c 0,22,23
 786 135 786 135 881.5 203 c 128,-1,24
 977 271 977 271 977 394 c 0,25,26
 977 509 977 509 907.5 568.5 c 128,-1,27
 838 628 838 628 689 661 c 2,28,-1
 566 689 l 2,29,30
 339 733 339 733 237 828.5 c 128,-1,31
 135 924 135 924 135 1095 c 0,32,33
 135 1299 135 1299 274 1410.5 c 128,-1,34
 413 1522 413 1522 658 1522 c 0,35,36
 764 1522 764 1522 874 1502.5 c 128,-1,37
 984 1483 984 1483 1099 1448 c 1,38,-1
 1099 1248 l 1,0,1
EndSplineSet
EndChar
StartChar: T
Encoding: 84 84 55
Width: 1249
VWidth: 3555
Flags: W
HStem: 0 21G<523 729> 1326 167<-3 523 729 1259>
VStem: 523 206<0 1326>
Fore
1259 1326 m 1,0,-1
 729 1326 l 1,1,-1
 729 0 l 1,2,-1
 523 0 l 1,3,-1
 523 1326 l 1,4,-1
 -3 1326 l 1,5,-1
 -3 1493 l 1,6,-1
 1259 1493 l 1,7,-1
 1259 1326 l 1,0,-1
EndSplineSet
EndChar
StartChar: U
Encoding: 85 85 56
Width: 1499
VWidth: 3555
Flags: W
HStem: -28 163<549.003 956.212> 1473 20G<177 380 1120 1323>
VStem: 177 203<320.279 562 562 1493> 1120 203<313.292 1493>
Fore
380 587 m 2,0,1
 380 349 380 349 469.5 242 c 128,-1,2
 559 135 559 135 750 135 c 0,3,4
 946 135 946 135 1033 242 c 128,-1,5
 1120 349 1120 349 1120 587 c 2,6,-1
 1120 1493 l 1,7,-1
 1323 1493 l 1,8,-1
 1323 562 l 2,9,10
 1323 271 1323 271 1177 121.5 c 128,-1,11
 1031 -28 1031 -28 750 -28 c 256,12,13
 469 -28 469 -28 323 121.5 c 128,-1,14
 177 271 177 271 177 562 c 2,15,-1
 177 1493 l 1,16,-1
 380 1493 l 1,17,-1
 380 587 l 2,0,1
EndSplineSet
EndChar
StartChar: V
Encoding: 86 86 57
Width: 1399
VWidth: 3555
Flags: W
HStem: 0 21G<579.324 825.582> 1473 20G<14 234.514 1169.42 1384>
Fore
227 1493 m 1,0,-1
 700 234 l 1,1,-1
 1177 1493 l 1,2,-1
 1384 1493 l 1,3,-1
 818 0 l 1,4,-1
 587 0 l 1,5,-1
 14 1493 l 1,6,-1
 227 1493 l 1,0,-1
EndSplineSet
EndChar
StartChar: W
Encoding: 87 87 58
Width: 2029
VWidth: 3555
Flags: W
HStem: 0 21G<439.003 700.896 1325.13 1590> 1473 20G<71 276.008 894.055 1132.01 1748.09 1958>
Fore
587 231 m 1,0,-1
 899 1493 l 1,1,-1
 1127 1493 l 1,2,-1
 1443 231 l 1,3,-1
 1753 1493 l 1,4,-1
 1958 1493 l 1,5,-1
 1585 0 l 1,6,-1
 1330 0 l 1,7,-1
 1014 1299 l 1,8,-1
 696 0 l 1,9,-1
 444 0 l 1,10,-1
 71 1493 l 1,11,-1
 271 1493 l 1,12,-1
 587 231 l 1,0,-1
EndSplineSet
EndChar
StartChar: X
Encoding: 88 88 59
Width: 1407
VWidth: 3555
Flags: W
HStem: 0 21G<64 291.407 1109.88 1340> 1473 20G<128 362.357 1078.53 1309>
Fore
719 939 m 1,0,-1
 1092 1493 l 1,1,-1
 1309 1493 l 1,2,-1
 828 774 l 1,3,-1
 1340 0 l 1,4,-1
 1123 0 l 1,5,-1
 705 637 l 1,6,-1
 278 0 l 1,7,-1
 64 0 l 1,8,-1
 597 800 l 1,9,-1
 128 1493 l 1,10,-1
 349 1493 l 1,11,-1
 719 939 l 1,0,-1
EndSplineSet
EndChar
StartChar: Y
Encoding: 89 89 60
Width: 1249
VWidth: 3555
Flags: W
HStem: 0 21G<523 729> 1473 20G<-3 227.366 1028.44 1255>
VStem: 523 206<0 712>
Fore
625 878 m 1,0,-1
 1042 1493 l 1,1,-1
 1255 1493 l 1,2,-1
 729 712 l 1,3,-1
 729 0 l 1,4,-1
 523 0 l 1,5,-1
 523 712 l 1,6,-1
 -3 1493 l 1,7,-1
 214 1493 l 1,8,-1
 625 878 l 1,0,-1
EndSplineSet
EndChar
StartChar: Z
Encoding: 90 90 61
Width: 1407
VWidth: 3555
Flags: W
HStem: 0 167<345 1312> 1326 167<115 1035>
Fore
1290 1340 m 1,0,-1
 345 167 l 1,1,-1
 1312 167 l 1,2,-1
 1312 0 l 1,3,-1
 92 0 l 1,4,-1
 92 153 l 1,5,-1
 1035 1326 l 1,6,-1
 115 1326 l 1,7,-1
 115 1493 l 1,8,-1
 1290 1493 l 1,9,-1
 1290 1340 l 1,0,-1
EndSplineSet
EndChar
StartChar: bracketleft
Encoding: 91 91 62
Width: 798
VWidth: 3555
Flags: W
HStem: -271 143<363 601> 1415 142<363 601>
VStem: 174 189<-128 1415> 174 427<-271 -128 1415 1557>
Fore
601 1415 m 1,0,-1
 363 1415 l 1,1,-1
 363 -128 l 1,2,-1
 601 -128 l 1,3,-1
 601 -271 l 1,4,-1
 174 -271 l 1,5,-1
 174 1557 l 1,6,-1
 601 1557 l 1,7,-1
 601 1415 l 1,0,-1
EndSplineSet
EndChar
StartChar: backslash
Encoding: 92 92 63
Width: 689
VWidth: 3555
Flags: W
HStem: 1473 20G<0 173.192>
VStem: 0 689<-193 1493>
Fore
519 -193 m 1,0,-1
 0 1493 l 1,1,-1
 167 1493 l 1,2,-1
 689 -193 l 1,3,-1
 519 -193 l 1,0,-1
EndSplineSet
EndChar
StartChar: bracketright
Encoding: 93 93 64
Width: 798
VWidth: 3555
Flags: W
HStem: -271 143<200 441> 1415 142<200 441>
VStem: 200 421<-271 -128 1415 1557> 441 180<-128 1415>
Fore
200 -271 m 1,0,-1
 200 -128 l 1,1,-1
 441 -128 l 1,2,-1
 441 1415 l 1,3,-1
 200 1415 l 1,4,-1
 200 1557 l 1,5,-1
 621 1557 l 1,6,-1
 621 -271 l 1,7,-1
 200 -271 l 1,0,-1
EndSplineSet
EndChar
StartChar: asciicircum
Encoding: 94 94 65
Width: 1716
VWidth: 3555
Flags: W
HStem: 939 554<760 1302>
Fore
1302 939 m 1,0,-1
 858 1333 l 1,1,-1
 417 939 l 1,2,-1
 220 939 l 1,3,-1
 760 1493 l 1,4,-1
 957 1493 l 1,5,-1
 1500 939 l 1,6,-1
 1302 939 l 1,0,-1
EndSplineSet
EndChar
StartChar: underscore
Encoding: 95 95 66
Width: 1022
VWidth: 3555
Flags: W
HStem: -484 142<-17 1049>
Fore
-17 -484 m 1,0,-1
 -17 -342 l 1,1,-1
 1049 -342 l 1,2,-1
 1049 -484 l 1,3,-1
 -17 -484 l 1,0,-1
EndSplineSet
EndChar
StartChar: grave
Encoding: 96 96 67
Width: 1022
VWidth: 3555
Flags: W
HStem: 1266 373<167 498>
VStem: 167 481<1266 1639>
Fore
498 1266 m 1,0,-1
 167 1639 l 1,1,-1
 370 1639 l 1,2,-1
 648 1266 l 1,3,-1
 498 1266 l 1,0,-1
EndSplineSet
EndChar
StartChar: a
Encoding: 97 97 68
Width: 1253
VWidth: 3555
Flags: W
HStem: -28 153<387.851 716.445> 566 142<418.091 885> 991 153<397.383 764.221>
VStem: 125 184<203.47 476.99> 885 184<0 167 304.312 566 708 872.729>
Fore
705 566 m 1,0,1
 479 566 479 566 394 514 c 128,-1,2
 309 462 309 462 309 339 c 0,3,4
 309 238 309 238 373 181.5 c 128,-1,5
 437 125 437 125 543 125 c 0,6,7
 705 125 705 125 795 233.5 c 128,-1,8
 885 342 885 342 885 523 c 2,9,-1
 885 566 l 1,10,-1
 705 566 l 1,0,1
885 0 m 1,11,-1
 885 167 l 1,12,13
 764 -28 764 -28 498 -28 c 0,14,15
 326 -28 326 -28 225.5 67.5 c 128,-1,16
 125 163 125 163 125 326 c 0,17,18
 125 708 125 708 625 708 c 2,19,-1
 885 708 l 1,20,-1
 885 726 l 2,21,22
 885 854 885 854 802 922.5 c 128,-1,23
 719 991 719 991 569 991 c 0,24,25
 373 991 373 991 207 899 c 1,26,-1
 207 1069 l 1,27,28
 302 1109 302 1109 400 1126.5 c 128,-1,29
 498 1144 498 1144 587 1144 c 0,30,31
 1069 1144 1069 1144 1069 641 c 2,32,-1
 1069 0 l 1,33,-1
 885 0 l 1,11,-1
EndSplineSet
Substitution2: "Single Substitution lookup 22 subtable" uni0E38
Substitution2: "Single Substitution lookup 22 subtable" uni0E38
EndChar
StartChar: b
Encoding: 98 98 69
Width: 1300
VWidth: 3555
Flags: W
HStem: -28 153<528.69 843.435> 991 153<525.176 845.098>
VStem: 189 184<0 167 308.245 810.959 953 1557> 995 196<305.997 814.682>
Fore
995 562 m 0,0,1
 995 764 995 764 915 877.5 c 128,-1,2
 835 991 835 991 686 991 c 256,3,4
 536 991 536 991 454.5 877.5 c 128,-1,5
 373 764 373 764 373 562 c 0,6,7
 373 356 373 356 454.5 240.5 c 128,-1,8
 536 125 536 125 686 125 c 256,9,10
 835 125 835 125 915 240.5 c 128,-1,11
 995 356 995 356 995 562 c 0,0,1
373 953 m 1,12,13
 488 1144 488 1144 729 1144 c 0,14,15
 936 1144 936 1144 1063.5 986 c 128,-1,16
 1191 828 1191 828 1191 562 c 256,17,18
 1191 295 1191 295 1063.5 133.5 c 128,-1,19
 936 -28 936 -28 729 -28 c 0,20,21
 484 -28 484 -28 373 167 c 1,22,-1
 373 0 l 1,23,-1
 189 0 l 1,24,-1
 189 1557 l 1,25,-1
 373 1557 l 1,26,-1
 373 953 l 1,12,13
EndSplineSet
Substitution2: "Single Substitution lookup 22 subtable" uni0E39
Substitution2: "Single Substitution lookup 22 subtable" uni0E39
EndChar
StartChar: c
Encoding: 99 99 70
Width: 1126
VWidth: 3555
Flags: W
HStem: -28 156<493.887 844.549> 991 153<494.062 912.885>
VStem: 115 194<327.754 793.605>
Fore
998 906 m 1,0,1
 849 991 849 991 686 991 c 0,2,3
 505 991 505 991 407 877.5 c 128,-1,4
 309 764 309 764 309 562 c 0,5,6
 309 356 309 356 407 242 c 128,-1,7
 505 128 505 128 686 128 c 0,8,9
 764 128 764 128 844 147.5 c 128,-1,10
 924 167 924 167 998 214 c 1,11,-1
 998 43 l 1,12,13
 838 -28 838 -28 665 -28 c 0,14,15
 410 -28 410 -28 262.5 128.5 c 128,-1,16
 115 285 115 285 115 562 c 256,17,18
 115 838 115 838 264 991 c 128,-1,19
 413 1144 413 1144 679 1144 c 0,20,21
 861 1144 861 1144 998 1078 c 1,22,-1
 998 906 l 1,0,1
EndSplineSet
Substitution2: "Single Substitution lookup 22 subtable" uni0E3A
Substitution2: "Single Substitution lookup 22 subtable" uni0E3A
EndChar
StartChar: d
Encoding: 100 100 71
Width: 1300
VWidth: 3555
Flags: W
HStem: -28 153<458.374 773.838> 991 153<454.258 775.219>
VStem: 115 187<308.245 807.599> 932 184<0 167 312.627 806.656 953 1557>
Fore
1116 1557 m 1,0,-1
 1116 0 l 1,1,-1
 932 0 l 1,2,-1
 932 167 l 1,3,4
 871 71 871 71 783.5 21.5 c 128,-1,5
 696 -28 696 -28 573 -28 c 0,6,7
 370 -28 370 -28 242.5 133.5 c 128,-1,8
 115 295 115 295 115 562 c 256,9,10
 115 828 115 828 242.5 986 c 128,-1,11
 370 1144 370 1144 573 1144 c 0,12,13
 696 1144 696 1144 783.5 1098 c 128,-1,14
 871 1052 871 1052 932 953 c 1,15,-1
 932 1557 l 1,16,-1
 1116 1557 l 1,0,-1
302 562 m 0,17,18
 302 356 302 356 383.5 240.5 c 128,-1,19
 465 125 465 125 615 125 c 256,20,21
 764 125 764 125 848 240.5 c 128,-1,22
 932 356 932 356 932 562 c 0,23,24
 932 764 932 764 848 877.5 c 128,-1,25
 764 991 764 991 615 991 c 256,26,27
 465 991 465 991 383.5 877.5 c 128,-1,28
 302 764 302 764 302 562 c 0,17,18
EndSplineSet
EndChar
StartChar: e
Encoding: 101 101 72
Width: 1262
VWidth: 3555
Flags: W
HStem: -28 156<499.968 972.478> 516 145<312 970> 991 153<476.722 831.224>
VStem: 970 183<661 843.427>
Fore
302 516 m 1,0,1
 339 128 339 128 708 128 c 0,2,3
 913 128 913 128 1109 231 c 1,4,-1
 1109 57 l 1,5,6
 913 -28 913 -28 696 -28 c 0,7,8
 431 -28 431 -28 273 126.5 c 128,-1,9
 115 281 115 281 115 550 c 0,10,11
 115 828 115 828 259.5 986 c 128,-1,12
 404 1144 404 1144 661 1144 c 0,13,14
 889 1144 889 1144 1021 1001 c 128,-1,15
 1153 858 1153 858 1153 608 c 2,16,-1
 1153 516 l 1,17,-1
 302 516 l 1,0,1
970 661 m 1,18,19
 967 814 967 814 885.5 902.5 c 128,-1,20
 804 991 804 991 665 991 c 0,21,22
 512 991 512 991 419 906 c 128,-1,23
 326 821 326 821 312 658 c 1,24,-1
 970 661 l 1,18,19
EndSplineSet
EndChar
StartChar: f
Encoding: 102 102 73
Width: 720
VWidth: 3555
Flags: W
HStem: 0 21G<224 404> 977 143<47 224 404 712> 1408 149<447.326 760>
VStem: 224 180<0 977 1120 1365.7>
Fore
587 1408 m 2,0,1
 488 1408 488 1408 446 1367 c 128,-1,2
 404 1326 404 1326 404 1219 c 2,3,-1
 404 1120 l 1,4,-1
 712 1120 l 1,5,-1
 712 977 l 1,6,-1
 404 977 l 1,7,-1
 404 0 l 1,8,-1
 224 0 l 1,9,-1
 224 977 l 1,10,-1
 47 977 l 1,11,-1
 47 1120 l 1,12,-1
 224 1120 l 1,13,-1
 224 1201 l 2,14,15
 224 1387 224 1387 309 1472 c 128,-1,16
 394 1557 394 1557 587 1557 c 2,17,-1
 760 1557 l 1,18,-1
 760 1408 l 1,19,-1
 587 1408 l 2,0,1
EndSplineSet
EndChar
StartChar: g
Encoding: 103 103 74
Width: 1300
VWidth: 3555
Flags: W
HStem: -431 157<489.06 776.706> 0 153<452.921 774.881> 991 153<452.921 775.628>
VStem: 115 187<328.268 815.938> 932 184<-110.348 200 332.231 812.401 953 1120>
Fore
932 576 m 0,0,1
 932 771 932 771 848 881 c 128,-1,2
 764 991 764 991 615 991 c 256,3,4
 465 991 465 991 383.5 881 c 128,-1,5
 302 771 302 771 302 576 c 0,6,7
 302 373 302 373 383.5 263 c 128,-1,8
 465 153 465 153 615 153 c 256,9,10
 764 153 764 153 848 263 c 128,-1,11
 932 373 932 373 932 576 c 0,0,1
1116 139 m 1,12,13
 1116 -431 1116 -431 601 -431 c 0,14,15
 502 -431 502 -431 416 -412.5 c 128,-1,16
 330 -394 330 -394 248 -370 c 1,17,-1
 248 -189 l 1,18,19
 330 -231 330 -231 409 -252.5 c 128,-1,20
 488 -274 488 -274 573 -274 c 0,21,22
 932 -274 932 -274 932 106 c 2,23,-1
 932 200 l 1,24,25
 818 0 818 0 573 0 c 0,26,27
 366 0 366 0 240.5 158 c 128,-1,28
 115 316 115 316 115 576 c 256,29,30
 115 835 115 835 240.5 989.5 c 128,-1,31
 366 1144 366 1144 573 1144 c 0,32,33
 821 1144 821 1144 932 953 c 1,34,-1
 932 1120 l 1,35,-1
 1116 1120 l 1,36,-1
 1116 139 l 1,12,13
EndSplineSet
EndChar
StartChar: h
Encoding: 104 104 75
Width: 1300
VWidth: 3555
Flags: W
HStem: 0 21G<189 373 943 1123> 988 156<538.079 842.997>
VStem: 189 184<0 841.622 950 1557> 943 180<0 879>
Fore
943 0 m 1,0,-1
 943 668 l 2,1,2
 943 988 943 988 693 988 c 0,3,4
 540 988 540 988 456.5 896 c 128,-1,5
 373 804 373 804 373 634 c 2,6,-1
 373 0 l 1,7,-1
 189 0 l 1,8,-1
 189 1557 l 1,9,-1
 373 1557 l 1,10,-1
 373 950 l 1,11,12
 505 1144 505 1144 733 1144 c 0,13,14
 929 1144 929 1144 1026 1025 c 128,-1,15
 1123 906 1123 906 1123 679 c 2,16,-1
 1123 0 l 1,17,-1
 943 0 l 1,0,-1
EndSplineSet
EndChar
StartChar: i
Encoding: 105 105 76
Width: 571
VWidth: 3555
Flags: W
HStem: 0 21G<196 377> 1100 20G<196 377> 1326 231<196 377>
VStem: 196 181<0 1120 1326 1557>
Fore
377 0 m 1,0,-1
 196 0 l 1,1,-1
 196 1120 l 1,2,-1
 377 1120 l 1,3,-1
 377 0 l 1,0,-1
377 1326 m 1,4,-1
 196 1326 l 1,5,-1
 196 1557 l 1,6,-1
 377 1557 l 1,7,-1
 377 1326 l 1,4,-1
EndSplineSet
EndChar
StartChar: j
Encoding: 106 106 77
Width: 571
VWidth: 3555
Flags: W
HStem: -431 160<-35 150.998> 1100 20G<196 377> 1326 231<196 377>
VStem: 196 181<-218.897 1120 1326 1557>
Fore
377 -17 m 2,0,1
 377 -234 377 -234 297 -332.5 c 128,-1,2
 217 -431 217 -431 31 -431 c 2,3,-1
 -35 -431 l 1,4,-1
 -35 -271 l 1,5,-1
 10 -271 l 2,6,7
 118 -271 118 -271 157 -220.5 c 128,-1,8
 196 -170 196 -170 196 -17 c 2,9,-1
 196 1120 l 1,10,-1
 377 1120 l 1,11,-1
 377 -17 l 2,0,1
377 1326 m 1,12,-1
 196 1326 l 1,13,-1
 196 1557 l 1,14,-1
 377 1557 l 1,15,-1
 377 1326 l 1,12,-1
EndSplineSet
EndChar
StartChar: k
Encoding: 107 107 78
Width: 1187
VWidth: 3555
Flags: W
HStem: 0 21G<189 373 922.006 1184> 1100 20G<897.35 1156>
VStem: 189 184<0 543 637 1557>
Fore
373 637 m 1,0,-1
 920 1120 l 1,1,-1
 1156 1120 l 1,2,-1
 562 597 l 1,3,-1
 1184 0 l 1,4,-1
 943 0 l 1,5,-1
 373 543 l 1,6,-1
 373 0 l 1,7,-1
 189 0 l 1,8,-1
 189 1557 l 1,9,-1
 373 1557 l 1,10,-1
 373 637 l 1,0,-1
EndSplineSet
EndChar
StartChar: l
Encoding: 108 108 79
Width: 571
VWidth: 3555
Flags: W
HStem: 0 21G<196 377>
VStem: 196 181<0 1557>
Fore
377 0 m 1,0,-1
 196 0 l 1,1,-1
 196 1557 l 1,2,-1
 377 1557 l 1,3,-1
 377 0 l 1,0,-1
EndSplineSet
EndChar
StartChar: m
Encoding: 109 109 80
Width: 1992
VWidth: 3555
Flags: W
HStem: 0 21G<189 373 910 1099 1635 1825> 988 156<526.378 826.391 1260.09 1545.65>
VStem: 189 184<0 845.125 950 1120> 910 189<0 843.391> 1635 190<0 886.75>
Fore
1066 906 m 1,0,1
 1198 1144 1198 1144 1458 1144 c 0,2,3
 1632 1144 1632 1144 1728.5 1023.5 c 128,-1,4
 1825 903 1825 903 1825 679 c 2,5,-1
 1825 0 l 1,6,-1
 1635 0 l 1,7,-1
 1635 668 l 2,8,9
 1635 988 1635 988 1408 988 c 0,10,11
 1259 988 1259 988 1179 896 c 128,-1,12
 1099 804 1099 804 1099 634 c 2,13,-1
 1099 0 l 1,14,-1
 910 0 l 1,15,-1
 910 668 l 2,16,17
 910 838 910 838 855 913 c 128,-1,18
 800 988 800 988 682 988 c 0,19,20
 533 988 533 988 453 896 c 128,-1,21
 373 804 373 804 373 634 c 2,22,-1
 373 0 l 1,23,-1
 189 0 l 1,24,-1
 189 1120 l 1,25,-1
 373 1120 l 1,26,-1
 373 950 l 1,27,28
 437 1052 437 1052 524 1098 c 128,-1,29
 611 1144 611 1144 733 1144 c 0,30,31
 981 1144 981 1144 1066 906 c 1,0,1
EndSplineSet
EndChar
StartChar: n
Encoding: 110 110 81
Width: 1300
VWidth: 3555
Flags: W
HStem: 0 21G<189 373 943 1123> 988 156<538.079 842.997>
VStem: 189 184<0 841.622 950 1120> 943 180<0 879>
Fore
943 0 m 1,0,-1
 943 668 l 2,1,2
 943 988 943 988 693 988 c 0,3,4
 540 988 540 988 456.5 896 c 128,-1,5
 373 804 373 804 373 634 c 2,6,-1
 373 0 l 1,7,-1
 189 0 l 1,8,-1
 189 1120 l 1,9,-1
 373 1120 l 1,10,-1
 373 950 l 1,11,12
 505 1144 505 1144 733 1144 c 0,13,14
 929 1144 929 1144 1026 1025 c 128,-1,15
 1123 906 1123 906 1123 679 c 2,16,-1
 1123 0 l 1,17,-1
 943 0 l 1,0,-1
EndSplineSet
EndChar
StartChar: o
Encoding: 111 111 82
Width: 1253
VWidth: 3555
Flags: W
HStem: -28 156<468.792 782.475> 991 153<463.886 782.475>
VStem: 115 194<313.079 809.104> 950 191<320.859 799.087>
Fore
625 991 m 256,0,1
 476 991 476 991 392.5 877.5 c 128,-1,2
 309 764 309 764 309 562 c 256,3,4
 309 359 309 359 392.5 243.5 c 128,-1,5
 476 128 476 128 625 128 c 256,6,7
 774 128 774 128 862 243.5 c 128,-1,8
 950 359 950 359 950 562 c 0,9,10
 950 757 950 757 862 874 c 128,-1,11
 774 991 774 991 625 991 c 256,0,1
625 1144 m 256,12,13
 871 1144 871 1144 1006 991 c 128,-1,14
 1141 838 1141 838 1141 562 c 256,15,16
 1141 285 1141 285 1006 128.5 c 128,-1,17
 871 -28 871 -28 625 -28 c 256,18,19
 380 -28 380 -28 247.5 128.5 c 128,-1,20
 115 285 115 285 115 562 c 256,21,22
 115 838 115 838 247.5 991 c 128,-1,23
 380 1144 380 1144 625 1144 c 256,12,13
EndSplineSet
EndChar
StartChar: p
Encoding: 112 112 83
Width: 1300
VWidth: 3555
Flags: W
HStem: -431 21G<189 373> -28 153<528.69 843.435> 991 153<525.258 844.9>
VStem: 189 184<-431 167 308.245 810.959 953 1120> 995 196<308.087 814.145>
Fore
189 -431 m 1,0,-1
 189 1120 l 1,1,-1
 373 1120 l 1,2,-1
 373 953 l 1,3,4
 488 1144 488 1144 729 1144 c 0,5,6
 936 1144 936 1144 1063.5 986 c 128,-1,7
 1191 828 1191 828 1191 562 c 256,8,9
 1191 295 1191 295 1063.5 133.5 c 128,-1,10
 936 -28 936 -28 729 -28 c 0,11,12
 484 -28 484 -28 373 167 c 1,13,-1
 373 -431 l 1,14,-1
 189 -431 l 1,0,-1
995 562 m 0,15,16
 995 764 995 764 915 877.5 c 128,-1,17
 835 991 835 991 686 991 c 256,18,19
 536 991 536 991 454.5 877.5 c 128,-1,20
 373 764 373 764 373 562 c 0,21,22
 373 356 373 356 454.5 240.5 c 128,-1,23
 536 125 536 125 686 125 c 256,24,25
 835 125 835 125 915 240.5 c 128,-1,26
 995 356 995 356 995 562 c 0,15,16
EndSplineSet
EndChar
StartChar: q
Encoding: 113 113 84
Width: 1300
VWidth: 3555
Flags: W
HStem: -431 21G<932 1116> -28 153<458.374 773.838> 991 153<453.878 775.539>
VStem: 115 187<308.166 809.279> 932 184<-431 167 312.627 806.656 953 1120>
Fore
302 562 m 0,0,1
 302 356 302 356 383.5 240.5 c 128,-1,2
 465 125 465 125 615 125 c 256,3,4
 764 125 764 125 848 240.5 c 128,-1,5
 932 356 932 356 932 562 c 0,6,7
 932 764 932 764 848 877.5 c 128,-1,8
 764 991 764 991 615 991 c 256,9,10
 465 991 465 991 383.5 877.5 c 128,-1,11
 302 764 302 764 302 562 c 0,0,1
932 167 m 1,12,13
 871 71 871 71 783.5 21.5 c 128,-1,14
 696 -28 696 -28 573 -28 c 0,15,16
 370 -28 370 -28 242.5 133.5 c 128,-1,17
 115 295 115 295 115 562 c 256,18,19
 115 828 115 828 242.5 986 c 128,-1,20
 370 1144 370 1144 573 1144 c 0,21,22
 696 1144 696 1144 783.5 1098 c 128,-1,23
 871 1052 871 1052 932 953 c 1,24,-1
 932 1120 l 1,25,-1
 1116 1120 l 1,26,-1
 1116 -431 l 1,27,-1
 932 -431 l 1,28,-1
 932 167 l 1,12,13
EndSplineSet
EndChar
StartChar: r
Encoding: 114 114 85
Width: 841
VWidth: 3555
Flags: W
HStem: 0 21G<189 373> 984 160<526.664 840.242>
VStem: 189 184<0 823.583 950 1120>
Fore
842 950 m 1,0,1
 786 984 786 984 696 984 c 0,2,3
 536 984 536 984 454.5 883.5 c 128,-1,4
 373 783 373 783 373 590 c 2,5,-1
 373 0 l 1,6,-1
 189 0 l 1,7,-1
 189 1120 l 1,8,-1
 373 1120 l 1,9,-1
 373 950 l 1,10,11
 431 1052 431 1052 523 1098 c 128,-1,12
 615 1144 615 1144 750 1144 c 0,13,14
 767 1144 767 1144 790.5 1144 c 128,-1,15
 814 1144 814 1144 842 1137 c 1,16,-1
 842 950 l 1,0,1
EndSplineSet
EndChar
StartChar: s
Encoding: 115 115 86
Width: 1069
VWidth: 3555
Flags: W
HStem: -28 153<256.406 704.911> 991 153<359.4 681.729>
VStem: 122 173<728.852 930.216> 779 191<193.783 375.33>
Fore
906 917 m 1,0,1
 832 957 832 957 746.5 974 c 128,-1,2
 661 991 661 991 573 991 c 0,3,4
 295 991 295 991 295 828 c 0,5,6
 295 760 295 760 344.5 724.5 c 128,-1,7
 394 689 394 689 540 654 c 2,8,-1
 608 641 l 2,9,10
 804 601 804 601 887 524.5 c 128,-1,11
 970 448 970 448 970 309 c 0,12,13
 970 149 970 149 846 60.5 c 128,-1,14
 722 -28 722 -28 505 -28 c 0,15,16
 316 -28 316 -28 109 40 c 1,17,-1
 109 231 l 1,18,19
 319 125 319 125 509 125 c 0,20,21
 637 125 637 125 708 171 c 128,-1,22
 779 217 779 217 779 295 c 0,23,24
 779 335 779 335 768 361 c 128,-1,25
 757 387 757 387 728.5 409 c 128,-1,26
 700 431 700 431 645 450 c 128,-1,27
 590 469 590 469 505 488 c 2,28,-1
 444 502 l 2,29,30
 271 536 271 536 196.5 612.5 c 128,-1,31
 122 689 122 689 122 821 c 0,32,33
 122 981 122 981 233.5 1062.5 c 128,-1,34
 345 1144 345 1144 550 1144 c 0,35,36
 651 1144 651 1144 741.5 1132 c 128,-1,37
 832 1120 832 1120 906 1088 c 1,38,-1
 906 917 l 1,0,1
EndSplineSet
EndChar
StartChar: t
Encoding: 116 116 87
Width: 805
VWidth: 3555
Flags: W
HStem: 0 153<415.175 753> 977 143<54 193 377 753>
VStem: 193 184<193.243 977 1120 1439>
Fore
753 1120 m 1,0,-1
 753 977 l 1,1,-1
 377 977 l 1,2,-1
 377 370 l 2,3,4
 377 231 377 231 414 192 c 128,-1,5
 451 153 451 153 566 153 c 2,6,-1
 753 153 l 1,7,-1
 753 0 l 1,8,-1
 566 0 l 2,9,10
 352 0 352 0 272.5 78 c 128,-1,11
 193 156 193 156 193 370 c 2,12,-1
 193 977 l 1,13,-1
 54 977 l 1,14,-1
 54 1120 l 1,15,-1
 193 1120 l 1,16,-1
 193 1439 l 1,17,-1
 377 1439 l 1,18,-1
 377 1120 l 1,19,-1
 753 1120 l 1,0,-1
EndSplineSet
EndChar
StartChar: u
Encoding: 117 117 88
Width: 1300
VWidth: 3555
Flags: W
HStem: -28 160<460.469 764.244> 1100 20G<170 359 932 1113>
VStem: 170 189<238.619 1120> 932 181<0 170 290.328 1120>
Fore
359 1120 m 1,0,-1
 359 451 l 2,1,2
 359 132 359 132 608 132 c 0,3,4
 757 132 757 132 844.5 227.5 c 128,-1,5
 932 323 932 323 932 488 c 2,6,-1
 932 1120 l 1,7,-1
 1113 1120 l 1,8,-1
 1113 0 l 1,9,-1
 932 0 l 1,10,-1
 932 170 l 1,11,12
 861 71 861 71 773.5 21.5 c 128,-1,13
 686 -28 686 -28 569 -28 c 0,14,15
 170 -28 170 -28 170 444 c 2,16,-1
 170 1120 l 1,17,-1
 359 1120 l 1,0,-1
EndSplineSet
EndChar
StartChar: v
Encoding: 118 118 89
Width: 1215
VWidth: 3555
Flags: W
HStem: 0 21G<471.589 740.5> 1100 20G<64 262.487 949.598 1153>
Fore
608 177 m 1,0,-1
 957 1120 l 1,1,-1
 1153 1120 l 1,2,-1
 733 0 l 1,3,-1
 479 0 l 1,4,-1
 64 1120 l 1,5,-1
 255 1120 l 1,6,-1
 608 177 l 1,0,-1
EndSplineSet
EndChar
StartChar: w
Encoding: 119 119 90
Width: 1676
VWidth: 3555
Flags: W
HStem: 0 21G<374.732 602.239 1076.7 1304.27> 1100 20G<85 276.28 723.811 955.257 1402.79 1594>
Fore
502 245 m 1,0,-1
 729 1120 l 1,1,-1
 950 1120 l 1,2,-1
 1180 245 l 1,3,-1
 1408 1120 l 1,4,-1
 1594 1120 l 1,5,-1
 1299 0 l 1,6,-1
 1082 0 l 1,7,-1
 838 920 l 1,8,-1
 597 0 l 1,9,-1
 380 0 l 1,10,-1
 85 1120 l 1,11,-1
 271 1120 l 1,12,-1
 502 245 l 1,0,-1
EndSplineSet
EndChar
StartChar: x
Encoding: 120 120 91
Width: 1215
VWidth: 3555
Flags: W
HStem: 0 21G<57 292.785 917.125 1144> 1100 20G<95 327.025 891.176 1123>
Fore
1144 0 m 1,0,-1
 932 0 l 1,1,-1
 604 441 l 1,2,-1
 278 0 l 1,3,-1
 57 0 l 1,4,-1
 495 587 l 1,5,-1
 95 1120 l 1,6,-1
 312 1120 l 1,7,-1
 611 722 l 1,8,-1
 906 1120 l 1,9,-1
 1123 1120 l 1,10,-1
 722 576 l 1,11,-1
 1144 0 l 1,0,-1
EndSplineSet
EndChar
StartChar: y
Encoding: 121 121 92
Width: 1215
VWidth: 3555
Flags: W
HStem: -431 160<160 338.545> 1100 20G<64 263.069 949.023 1153>
Fore
658 -102 m 1,0,1
 621 -203 621 -203 585.5 -266.5 c 128,-1,2
 550 -330 550 -330 509.5 -365.5 c 128,-1,3
 469 -401 469 -401 419.5 -416 c 128,-1,4
 370 -431 370 -431 309 -431 c 2,5,-1
 160 -431 l 1,6,-1
 160 -271 l 1,7,-1
 271 -271 l 2,8,9
 309 -271 309 -271 339.5 -265.5 c 128,-1,10
 370 -260 370 -260 393.5 -238.5 c 128,-1,11
 417 -217 417 -217 437.5 -178 c 128,-1,12
 458 -139 458 -139 479 -68 c 2,13,-1
 516 17 l 1,14,-1
 64 1120 l 1,15,-1
 255 1120 l 1,16,-1
 608 245 l 1,17,-1
 957 1120 l 1,18,-1
 1153 1120 l 1,19,-1
 658 -102 l 1,0,1
EndSplineSet
EndChar
StartChar: z
Encoding: 122 122 93
Width: 1076
VWidth: 3555
Flags: W
HStem: 0 146<295 988> 974 146<115 779>
Fore
988 953 m 1,0,-1
 295 146 l 1,1,-1
 988 146 l 1,2,-1
 988 0 l 1,3,-1
 89 0 l 1,4,-1
 89 167 l 1,5,-1
 779 974 l 1,6,-1
 115 974 l 1,7,-1
 115 1120 l 1,8,-1
 988 1120 l 1,9,-1
 988 953 l 1,0,-1
EndSplineSet
EndChar
StartChar: braceleft
Encoding: 123 123 94
Width: 1303
VWidth: 3555
Flags: W
HStem: -335 142<884.672 1049> 540 146<255 498.32> 1415 142<883.119 1049>
VStem: 569 184<-58.541 468.212 754.978 1284.53>
Fore
988 -335 m 2,0,1
 736 -335 736 -335 651 -260 c 0,2,3
 569 -189 569 -189 569 35 c 2,4,-1
 569 274 l 2,5,6
 569 424 569 424 513.5 482 c 128,-1,7
 458 540 458 540 319 540 c 2,8,-1
 255 540 l 1,9,-1
 255 686 l 1,10,-1
 319 686 l 2,11,12
 462 686 462 686 515.5 743 c 128,-1,13
 569 800 569 800 569 950 c 2,14,-1
 569 1191 l 2,15,16
 569 1411 569 1411 651 1483 c 0,17,18
 736 1557 736 1557 988 1557 c 2,19,-1
 1049 1557 l 1,20,-1
 1049 1415 l 1,21,-1
 981 1415 l 2,22,23
 910 1415 910 1415 865.5 1406 c 128,-1,24
 821 1397 821 1397 796 1370.5 c 128,-1,25
 771 1344 771 1344 762 1301.5 c 128,-1,26
 753 1259 753 1259 753 1187 c 2,27,-1
 753 939 l 2,28,29
 753 779 753 779 707 708 c 128,-1,30
 661 637 661 637 554 611 c 1,31,32
 661 587 661 587 707 517.5 c 128,-1,33
 753 448 753 448 753 288 c 2,34,-1
 753 40 l 2,35,36
 753 -31 753 -31 762 -76.5 c 128,-1,37
 771 -122 771 -122 796 -148 c 128,-1,38
 821 -174 821 -174 865.5 -183.5 c 128,-1,39
 910 -193 910 -193 981 -193 c 2,40,-1
 1049 -193 l 1,41,-1
 1049 -335 l 1,42,-1
 988 -335 l 2,0,1
EndSplineSet
EndChar
StartChar: bar
Encoding: 124 124 95
Width: 689
VWidth: 3555
Flags: W
VStem: 260 174<-484 1568>
Fore
260 -484 m 1,0,-1
 260 1568 l 1,1,-1
 434 1568 l 1,2,-1
 434 -484 l 1,3,-1
 260 -484 l 1,0,-1
EndSplineSet
EndChar
StartChar: braceright
Encoding: 125 125 96
Width: 1303
VWidth: 3555
Flags: W
HStem: -335 142<255 507.562> 540 146<803.703 1049> 1415 142<255 423.855>
VStem: 554 182<-143.374 474.193 754.978 1285.52>
Fore
326 -193 m 1,0,1
 465 -193 465 -193 509.5 -147.5 c 128,-1,2
 554 -102 554 -102 554 40 c 2,3,-1
 554 288 l 2,4,5
 554 448 554 448 597.5 517.5 c 128,-1,6
 641 587 641 587 753 611 c 1,7,8
 641 637 641 637 597.5 708 c 128,-1,9
 554 779 554 779 554 939 c 2,10,-1
 554 1187 l 2,11,12
 554 1259 554 1259 545 1303 c 128,-1,13
 536 1347 536 1347 510 1372 c 128,-1,14
 484 1397 484 1397 441 1406 c 128,-1,15
 398 1415 398 1415 326 1415 c 2,16,-1
 255 1415 l 1,17,-1
 255 1557 l 1,18,-1
 319 1557 l 2,19,20
 573 1557 573 1557 651 1483 c 0,21,22
 736 1415 736 1415 736 1191 c 2,23,-1
 736 950 l 2,24,25
 736 800 736 800 789 743 c 128,-1,26
 842 686 842 686 988 686 c 2,27,-1
 1049 686 l 1,28,-1
 1049 540 l 1,29,-1
 988 540 l 2,30,31
 838 540 838 540 787 482 c 128,-1,32
 736 424 736 424 736 274 c 2,33,-1
 736 35 l 2,34,35
 736 -193 736 -193 651 -260 c 0,36,37
 573 -335 573 -335 319 -335 c 2,38,-1
 255 -335 l 1,39,-1
 255 -193 l 1,40,-1
 326 -193 l 1,0,1
EndSplineSet
EndChar
StartChar: asciitilde
Encoding: 126 126 97
Width: 1716
VWidth: 3555
Flags: W
HStem: 495 163<943.171 1305.52> 625 172<409.994 780.892>
Fore
1500 641 m 1,0,1
 1394 562 1394 562 1304.5 528.5 c 128,-1,2
 1215 495 1215 495 1120 495 c 0,3,4
 1017 495 1017 495 865 554 c 1,5,6
 861 559 861 559 845 559 c 1,7,8
 845 562 845 562 842 562 c 256,9,10
 838 562 838 562 835 564 c 128,-1,11
 832 566 832 566 825 566 c 1,12,13
 661 625 661 625 576 625 c 0,14,15
 488 625 488 625 402 587.5 c 128,-1,16
 316 550 316 550 220 469 c 1,17,-1
 220 644 l 1,18,19
 323 726 323 726 412.5 761.5 c 128,-1,20
 502 797 502 797 601 797 c 0,21,22
 708 797 708 797 858 733 c 1,23,24
 861 729 861 729 871 729 c 1,25,26
 875 726 875 726 878 726 c 0,27,28
 885 726 885 726 892 722 c 0,29,30
 1049 658 1049 658 1141 658 c 0,31,32
 1227 658 1227 658 1312 695.5 c 128,-1,33
 1397 733 1397 733 1500 821 c 1,34,-1
 1500 641 l 1,0,1
EndSplineSet
EndChar
StartChar: Adieresis
Encoding: 196 196 98
Width: 1399
VWidth: 3555
Flags: W
HStem: 0 21G<14 238.105 1169.89 1384> 380 174<431 977> 1473 20G<579.324 825.582> 1672 198<404 604 797 998>
VStem: 404 200<1672 1870> 797 201<1672 1870>
Fore
977 554 m 1,0,-1
 700 1299 l 1,1,-1
 431 554 l 1,2,-1
 977 554 l 1,0,-1
1384 0 m 1,3,-1
 1177 0 l 1,4,-1
 1042 380 l 1,5,-1
 366 380 l 1,6,-1
 231 0 l 1,7,-1
 14 0 l 1,8,-1
 587 1493 l 1,9,-1
 818 1493 l 1,10,-1
 1384 0 l 1,3,-1
998 1672 m 1,11,-1
 797 1672 l 1,12,-1
 797 1870 l 1,13,-1
 998 1870 l 1,14,-1
 998 1672 l 1,11,-1
604 1672 m 1,15,-1
 404 1672 l 1,16,-1
 404 1870 l 1,17,-1
 604 1870 l 1,18,-1
 604 1672 l 1,15,-1
EndSplineSet
EndChar
StartChar: Aring
Encoding: 197 197 99
Width: 1399
VWidth: 3555
Flags: W
HStem: 0 21G<14 238.105 1169.89 1384> 380 174<431 974> 1781 125<593.819 805.404>
VStem: 431 119<1520.88 1736.65> 854 123<1524.22 1734.43>
Fore
854 1628 m 256,0,1
 854 1693 854 1693 807 1737 c 128,-1,2
 760 1781 760 1781 700 1781 c 0,3,4
 637 1781 637 1781 593.5 1737 c 128,-1,5
 550 1693 550 1693 550 1628 c 256,6,7
 550 1564 550 1564 593.5 1520 c 128,-1,8
 637 1476 637 1476 700 1476 c 0,9,10
 760 1476 760 1476 807 1520 c 128,-1,11
 854 1564 854 1564 854 1628 c 256,0,1
974 554 m 1,12,-1
 700 1299 l 1,13,-1
 431 554 l 1,14,-1
 974 554 l 1,12,-1
550 1397 m 1,15,16
 431 1476 431 1476 431 1628 c 0,17,18
 431 1743 431 1743 509 1824.5 c 128,-1,19
 587 1906 587 1906 700 1906 c 0,20,21
 818 1906 818 1906 897.5 1824.5 c 128,-1,22
 977 1743 977 1743 977 1628 c 0,23,24
 977 1479 977 1479 854 1397 c 1,25,-1
 1384 0 l 1,26,-1
 1177 0 l 1,27,-1
 1042 380 l 1,28,-1
 366 380 l 1,29,-1
 231 0 l 1,30,-1
 14 0 l 1,31,-1
 550 1397 l 1,15,16
EndSplineSet
EndChar
StartChar: Ccedilla
Encoding: 199 199 100
Width: 1432
VWidth: 3555
Flags: W
HStem: -394 123<686.956 854.35> -28 28<782.001 899> 1354 168<618.502 1094.24>
VStem: 115 215<450.564 1042.24> 868 142<-255.129 -102.588>
Fore
1323 1167 m 1,0,1
 1116 1354 1116 1354 858 1354 c 0,2,3
 601 1354 601 1354 465.5 1201.5 c 128,-1,4
 330 1049 330 1049 330 746 c 256,5,6
 330 444 330 444 465.5 291.5 c 128,-1,7
 601 139 601 139 858 139 c 0,8,9
 1116 139 1116 139 1323 326 c 1,10,-1
 1323 115 l 1,11,12
 1116 -28 1116 -28 845 -28 c 0,13,14
 502 -28 502 -28 308.5 176 c 128,-1,15
 115 380 115 380 115 746 c 256,16,17
 115 1113 115 1113 308.5 1317.5 c 128,-1,18
 502 1522 502 1522 845 1522 c 0,19,20
 1116 1522 1116 1522 1323 1380 c 1,21,-1
 1323 1167 l 1,0,1
899 0 m 1,22,23
 953 -64 953 -64 981.5 -115.5 c 128,-1,24
 1010 -167 1010 -167 1010 -217 c 0,25,26
 1010 -394 1010 -394 771 -394 c 0,27,28
 722 -394 722 -394 700 -391 c 0,29,-1
 594 -373 l 1,30,-1
 594 -238 l 1,31,32
 628 -255 628 -255 664 -263 c 128,-1,33
 700 -271 700 -271 750 -271 c 0,34,35
 868 -271 868 -271 868 -177 c 0,36,37
 868 -122 868 -122 779 0 c 1,38,-1
 899 0 l 1,22,23
EndSplineSet
EndChar
StartChar: Eacute
Encoding: 201 201 101
Width: 1296
VWidth: 3555
Flags: W
HStem: 0 167<401 1167> 712 170<401 1116> 1326 167<401 1144>
VStem: 203 198<167 712 882 1326>
Fore
1144 1326 m 1,0,-1
 401 1326 l 1,1,-1
 401 882 l 1,2,-1
 1116 882 l 1,3,-1
 1116 712 l 1,4,-1
 401 712 l 1,5,-1
 401 167 l 1,6,-1
 1167 167 l 1,7,-1
 1167 0 l 1,8,-1
 203 0 l 1,9,-1
 203 1493 l 1,10,-1
 1144 1493 l 1,11,-1
 1144 1326 l 1,0,-1
679 1635 m 1,12,-1
 529 1635 l 1,13,-1
 726 1903 l 1,14,-1
 910 1903 l 1,15,-1
 679 1635 l 1,12,-1
EndSplineSet
EndChar
StartChar: Ntilde
Encoding: 209 209 102
Width: 1534
VWidth: 3555
Flags: W
HStem: 0 21G<203 394 1051.29 1333> 1473 20G<203 482.657 1137 1333> 1672 120<855.777 963.058> 1672 215<501.203 562 970 1028.34> 1767 120<569.939 674.154>
VStem: 203 191<0 1248> 437 125<1672 1760.66> 970 125<1798.25 1887> 1137 196<245 1493>
Fore
1137 245 m 1,0,-1
 1137 1493 l 1,1,-1
 1333 1493 l 1,2,-1
 1333 0 l 1,3,-1
 1062 0 l 1,4,-1
 394 1248 l 1,5,-1
 394 0 l 1,6,-1
 203 0 l 1,7,-1
 203 1493 l 1,8,-1
 472 1493 l 1,9,-1
 1137 245 l 1,0,-1
708 1746 m 1,10,11
 661 1767 661 1767 634 1767 c 0,12,13
 562 1767 562 1767 562 1675 c 2,14,-1
 562 1672 l 1,15,-1
 437 1672 l 1,16,17
 437 1767 437 1767 486.5 1827 c 128,-1,18
 536 1887 536 1887 625 1887 c 0,19,20
 658 1887 658 1887 690 1878.5 c 128,-1,21
 722 1870 722 1870 767 1845 c 2,22,-1
 828 1818 l 1,23,24
 865 1792 865 1792 896 1792 c 0,25,26
 970 1792 970 1792 970 1880 c 2,27,-1
 970 1887 l 1,28,-1
 1095 1887 l 1,29,30
 1092 1788 1092 1788 1041.5 1730 c 128,-1,31
 991 1672 991 1672 906 1672 c 0,32,33
 871 1672 871 1672 842.5 1679 c 128,-1,34
 814 1686 814 1686 760 1713 c 2,35,-1
 708 1746 l 1,10,11
EndSplineSet
EndChar
StartChar: Odieresis
Encoding: 214 214 103
Width: 1612
VWidth: 3555
Flags: W
HStem: -28 163<606.837 1013.46> 1358 164<606.837 1011.35> 1672 198<512 712 903 1106>
VStem: 115 215<454.666 1034.75> 512 200<1672 1870> 903 203<1672 1870> 1286 210<453.478 1033.73>
Fore
811 1358 m 0,0,1
 587 1358 587 1358 458.5 1193 c 128,-1,2
 330 1028 330 1028 330 746 c 0,3,4
 330 458 330 458 458.5 296.5 c 128,-1,5
 587 135 587 135 811 135 c 0,6,7
 1028 135 1028 135 1157 296.5 c 128,-1,8
 1286 458 1286 458 1286 746 c 0,9,10
 1286 1028 1286 1028 1157 1193 c 128,-1,11
 1028 1358 1028 1358 811 1358 c 0,0,1
811 1522 m 0,12,13
 967 1522 967 1522 1093 1466.5 c 128,-1,14
 1219 1411 1219 1411 1310 1309.5 c 128,-1,15
 1401 1208 1401 1208 1448.5 1066 c 128,-1,16
 1496 924 1496 924 1496 746 c 0,17,18
 1496 573 1496 573 1448.5 429 c 128,-1,19
 1401 285 1401 285 1310 183.5 c 128,-1,20
 1219 82 1219 82 1093 27 c 128,-1,21
 967 -28 967 -28 811 -28 c 0,22,23
 495 -28 495 -28 302 181 c 0,24,25
 115 391 115 391 115 746 c 0,26,27
 115 1099 115 1099 302 1309 c 0,28,29
 495 1522 495 1522 811 1522 c 0,12,13
1106 1672 m 1,30,-1
 903 1672 l 1,31,-1
 903 1870 l 1,32,-1
 1106 1870 l 1,33,-1
 1106 1672 l 1,30,-1
712 1672 m 1,34,-1
 512 1672 l 1,35,-1
 512 1870 l 1,36,-1
 712 1870 l 1,37,-1
 712 1672 l 1,34,-1
EndSplineSet
EndChar
StartChar: Udieresis
Encoding: 220 220 104
Width: 1499
VWidth: 3555
Flags: W
HStem: -28 163<549.003 956.212> 1473 20G<177 380 1120 1323> 1672 198<455 654 845 1049>
VStem: 177 203<320.279 562 562 1493> 455 199<1672 1870> 845 204<1672 1870> 1120 203<313.292 1493>
Fore
380 587 m 2,0,1
 380 349 380 349 469.5 242 c 128,-1,2
 559 135 559 135 750 135 c 0,3,4
 946 135 946 135 1033 242 c 128,-1,5
 1120 349 1120 349 1120 587 c 2,6,-1
 1120 1493 l 1,7,-1
 1323 1493 l 1,8,-1
 1323 562 l 2,9,10
 1323 271 1323 271 1177 121.5 c 128,-1,11
 1031 -28 1031 -28 750 -28 c 256,12,13
 469 -28 469 -28 323 121.5 c 128,-1,14
 177 271 177 271 177 562 c 2,15,-1
 177 1493 l 1,16,-1
 380 1493 l 1,17,-1
 380 587 l 2,0,1
1049 1672 m 1,18,-1
 845 1672 l 1,19,-1
 845 1870 l 1,20,-1
 1049 1870 l 1,21,-1
 1049 1672 l 1,18,-1
654 1672 m 1,22,-1
 455 1672 l 1,23,-1
 455 1870 l 1,24,-1
 654 1870 l 1,25,-1
 654 1672 l 1,22,-1
EndSplineSet
EndChar
StartChar: aacute
Encoding: 225 225 105
Width: 1253
VWidth: 3555
Flags: W
HStem: -28 153<387.851 716.445> 566 142<418.091 885> 991 153<397.383 764.221>
VStem: 125 184<203.47 476.99> 885 184<0 167 304.312 566 708 872.729>
Fore
705 566 m 1,0,1
 479 566 479 566 394 514 c 128,-1,2
 309 462 309 462 309 339 c 0,3,4
 309 238 309 238 373 181.5 c 128,-1,5
 437 125 437 125 543 125 c 0,6,7
 705 125 705 125 795 233.5 c 128,-1,8
 885 342 885 342 885 523 c 2,9,-1
 885 566 l 1,10,-1
 705 566 l 1,0,1
885 0 m 1,11,-1
 885 167 l 1,12,13
 764 -28 764 -28 498 -28 c 0,14,15
 326 -28 326 -28 225.5 67.5 c 128,-1,16
 125 163 125 163 125 326 c 0,17,18
 125 708 125 708 625 708 c 2,19,-1
 885 708 l 1,20,-1
 885 726 l 2,21,22
 885 854 885 854 802 922.5 c 128,-1,23
 719 991 719 991 569 991 c 0,24,25
 373 991 373 991 207 899 c 1,26,-1
 207 1069 l 1,27,28
 302 1109 302 1109 400 1126.5 c 128,-1,29
 498 1144 498 1144 587 1144 c 0,30,31
 1069 1144 1069 1144 1069 641 c 2,32,-1
 1069 0 l 1,33,-1
 885 0 l 1,11,-1
604 1262 m 1,34,-1
 455 1262 l 1,35,-1
 733 1639 l 1,36,-1
 932 1639 l 1,37,-1
 604 1262 l 1,34,-1
EndSplineSet
EndChar
StartChar: agrave
Encoding: 224 224 106
Width: 1253
VWidth: 3555
Flags: W
HStem: -28 153<387.851 716.445> 566 142<418.091 885> 991 153<397.383 764.221>
VStem: 125 184<203.47 476.99> 885 184<0 167 304.312 566 708 872.729>
Fore
705 566 m 1,0,1
 479 566 479 566 394 514 c 128,-1,2
 309 462 309 462 309 339 c 0,3,4
 309 238 309 238 373 181.5 c 128,-1,5
 437 125 437 125 543 125 c 0,6,7
 705 125 705 125 795 233.5 c 128,-1,8
 885 342 885 342 885 523 c 2,9,-1
 885 566 l 1,10,-1
 705 566 l 1,0,1
885 0 m 1,11,-1
 885 167 l 1,12,13
 764 -28 764 -28 498 -28 c 0,14,15
 326 -28 326 -28 225.5 67.5 c 128,-1,16
 125 163 125 163 125 326 c 0,17,18
 125 708 125 708 625 708 c 2,19,-1
 885 708 l 1,20,-1
 885 726 l 2,21,22
 885 854 885 854 802 922.5 c 128,-1,23
 719 991 719 991 569 991 c 0,24,25
 373 991 373 991 207 899 c 1,26,-1
 207 1069 l 1,27,28
 302 1109 302 1109 400 1126.5 c 128,-1,29
 498 1144 498 1144 587 1144 c 0,30,31
 1069 1144 1069 1144 1069 641 c 2,32,-1
 1069 0 l 1,33,-1
 885 0 l 1,11,-1
580 1266 m 1,34,-1
 248 1639 l 1,35,-1
 451 1639 l 1,36,-1
 729 1266 l 1,37,-1
 580 1266 l 1,34,-1
EndSplineSet
EndChar
StartChar: acircumflex
Encoding: 226 226 107
Width: 1253
VWidth: 3555
Flags: W
HStem: -28 153<387.851 716.445> 566 142<418.091 885> 991 153<397.383 764.221>
VStem: 125 184<203.47 476.99> 885 184<0 167 304.312 566 708 872.729>
Fore
705 566 m 1,0,1
 479 566 479 566 394 514 c 128,-1,2
 309 462 309 462 309 339 c 0,3,4
 309 238 309 238 373 181.5 c 128,-1,5
 437 125 437 125 543 125 c 0,6,7
 705 125 705 125 795 233.5 c 128,-1,8
 885 342 885 342 885 523 c 2,9,-1
 885 566 l 1,10,-1
 705 566 l 1,0,1
885 0 m 1,11,-1
 885 167 l 1,12,13
 764 -28 764 -28 498 -28 c 0,14,15
 326 -28 326 -28 225.5 67.5 c 128,-1,16
 125 163 125 163 125 326 c 0,17,18
 125 708 125 708 625 708 c 2,19,-1
 885 708 l 1,20,-1
 885 726 l 2,21,22
 885 854 885 854 802 922.5 c 128,-1,23
 719 991 719 991 569 991 c 0,24,25
 373 991 373 991 207 899 c 1,26,-1
 207 1069 l 1,27,28
 302 1109 302 1109 400 1126.5 c 128,-1,29
 498 1144 498 1144 587 1144 c 0,30,31
 1069 1144 1069 1144 1069 641 c 2,32,-1
 1069 0 l 1,33,-1
 885 0 l 1,11,-1
913 1262 m 1,34,-1
 774 1262 l 1,35,-1
 594 1507 l 1,36,-1
 417 1262 l 1,37,-1
 278 1262 l 1,38,-1
 523 1639 l 1,39,-1
 668 1639 l 1,40,-1
 913 1262 l 1,34,-1
EndSplineSet
EndChar
StartChar: adieresis
Encoding: 228 228 108
Width: 1253
VWidth: 3555
Flags: W
HStem: -28 153<387.851 716.445> 566 142<418.091 885> 991 153<397.383 764.221> 1351 203<299 498 689 892>
VStem: 125 184<203.47 476.99> 299 199<1351 1554> 689 203<1351 1554> 885 184<0 167 304.312 566 708 872.729>
Fore
705 566 m 1,0,1
 479 566 479 566 394 514 c 128,-1,2
 309 462 309 462 309 339 c 0,3,4
 309 238 309 238 373 181.5 c 128,-1,5
 437 125 437 125 543 125 c 0,6,7
 705 125 705 125 795 233.5 c 128,-1,8
 885 342 885 342 885 523 c 2,9,-1
 885 566 l 1,10,-1
 705 566 l 1,0,1
885 0 m 1,11,-1
 885 167 l 1,12,13
 764 -28 764 -28 498 -28 c 0,14,15
 326 -28 326 -28 225.5 67.5 c 128,-1,16
 125 163 125 163 125 326 c 0,17,18
 125 708 125 708 625 708 c 2,19,-1
 885 708 l 1,20,-1
 885 726 l 2,21,22
 885 854 885 854 802 922.5 c 128,-1,23
 719 991 719 991 569 991 c 0,24,25
 373 991 373 991 207 899 c 1,26,-1
 207 1069 l 1,27,28
 302 1109 302 1109 400 1126.5 c 128,-1,29
 498 1144 498 1144 587 1144 c 0,30,31
 1069 1144 1069 1144 1069 641 c 2,32,-1
 1069 0 l 1,33,-1
 885 0 l 1,11,-1
892 1351 m 1,34,-1
 689 1351 l 1,35,-1
 689 1554 l 1,36,-1
 892 1554 l 1,37,-1
 892 1351 l 1,34,-1
498 1351 m 1,38,-1
 299 1351 l 1,39,-1
 299 1554 l 1,40,-1
 498 1554 l 1,41,-1
 498 1351 l 1,38,-1
EndSplineSet
EndChar
StartChar: atilde
Encoding: 227 227 109
Width: 1253
VWidth: 3555
Flags: W
HStem: -28 153<387.851 716.445> 566 142<418.091 885> 991 153<397.383 764.221> 1312 127<654.583 782.05> 1465 129<407.329 539.007>
VStem: 125 184<203.47 476.99> 267 124<1312 1454.58> 800 124<1475.62 1594> 885 184<0 167 304.312 566 708 872.729>
Fore
705 566 m 1,0,1
 479 566 479 566 394 514 c 128,-1,2
 309 462 309 462 309 339 c 0,3,4
 309 238 309 238 373 181.5 c 128,-1,5
 437 125 437 125 543 125 c 0,6,7
 705 125 705 125 795 233.5 c 128,-1,8
 885 342 885 342 885 523 c 2,9,-1
 885 566 l 1,10,-1
 705 566 l 1,0,1
885 0 m 1,11,-1
 885 167 l 1,12,13
 764 -28 764 -28 498 -28 c 0,14,15
 326 -28 326 -28 225.5 67.5 c 128,-1,16
 125 163 125 163 125 326 c 0,17,18
 125 708 125 708 625 708 c 2,19,-1
 885 708 l 1,20,-1
 885 726 l 2,21,22
 885 854 885 854 802 922.5 c 128,-1,23
 719 991 719 991 569 991 c 0,24,25
 373 991 373 991 207 899 c 1,26,-1
 207 1069 l 1,27,28
 302 1109 302 1109 400 1126.5 c 128,-1,29
 498 1144 498 1144 587 1144 c 0,30,31
 1069 1144 1069 1144 1069 641 c 2,32,-1
 1069 0 l 1,33,-1
 885 0 l 1,11,-1
536 1429 m 1,34,35
 491 1465 491 1465 462 1465 c 0,36,37
 391 1465 391 1465 391 1312 c 1,38,-1
 267 1312 l 1,39,40
 267 1594 267 1594 458 1594 c 0,41,42
 529 1594 529 1594 597 1533 c 2,43,-1
 658 1476 l 2,44,45
 693 1439 693 1439 722 1439 c 0,46,47
 764 1439 764 1439 780.5 1474.5 c 128,-1,48
 797 1510 797 1510 800 1594 c 1,49,-1
 924 1594 l 1,50,51
 920 1312 920 1312 729 1312 c 0,52,53
 658 1312 658 1312 590 1373 c 2,54,-1
 536 1429 l 1,34,35
EndSplineSet
EndChar
StartChar: aring
Encoding: 229 229 110
Width: 1253
VWidth: 3555
Flags: W
HStem: -28 153<387.851 716.445> 566 142<418.091 885> 991 153<397.383 764.221> 1248 125<488.394 702.344> 1679 123<488.955 698.951>
VStem: 125 184<203.47 476.99> 319 125<1417.96 1633.47> 746 122<1417.96 1607.95> 885 184<0 167 304.312 566 708 872.729>
Fore
705 566 m 1,0,1
 479 566 479 566 394 514 c 128,-1,2
 309 462 309 462 309 339 c 0,3,4
 309 238 309 238 373 181.5 c 128,-1,5
 437 125 437 125 543 125 c 0,6,7
 705 125 705 125 795 233.5 c 128,-1,8
 885 342 885 342 885 523 c 2,9,-1
 885 566 l 1,10,-1
 705 566 l 1,0,1
885 0 m 1,11,-1
 885 167 l 1,12,13
 764 -28 764 -28 498 -28 c 0,14,15
 326 -28 326 -28 225.5 67.5 c 128,-1,16
 125 163 125 163 125 326 c 0,17,18
 125 708 125 708 625 708 c 2,19,-1
 885 708 l 1,20,-1
 885 726 l 2,21,22
 885 854 885 854 802 922.5 c 128,-1,23
 719 991 719 991 569 991 c 0,24,25
 373 991 373 991 207 899 c 1,26,-1
 207 1069 l 1,27,28
 302 1109 302 1109 400 1126.5 c 128,-1,29
 498 1144 498 1144 587 1144 c 0,30,31
 1069 1144 1069 1144 1069 641 c 2,32,-1
 1069 0 l 1,33,-1
 885 0 l 1,11,-1
746 1529 m 0,34,35
 746 1588 746 1588 703.5 1633.5 c 128,-1,36
 661 1679 661 1679 594 1679 c 0,37,38
 529 1679 529 1679 486.5 1633.5 c 128,-1,39
 444 1588 444 1588 444 1529 c 0,40,41
 444 1462 444 1462 486.5 1417.5 c 128,-1,42
 529 1373 529 1373 594 1373 c 0,43,44
 661 1373 661 1373 703.5 1417.5 c 128,-1,45
 746 1462 746 1462 746 1529 c 0,34,35
868 1529 m 0,46,47
 868 1411 868 1411 788 1329.5 c 128,-1,48
 708 1248 708 1248 594 1248 c 0,49,50
 476 1248 476 1248 397.5 1329.5 c 128,-1,51
 319 1411 319 1411 319 1529 c 0,52,53
 319 1639 319 1639 397.5 1720.5 c 128,-1,54
 476 1802 476 1802 594 1802 c 0,55,56
 651 1802 651 1802 700.5 1779.5 c 128,-1,57
 750 1757 750 1757 787.5 1719.5 c 128,-1,58
 825 1682 825 1682 846.5 1631.5 c 128,-1,59
 868 1581 868 1581 868 1529 c 0,46,47
EndSplineSet
EndChar
StartChar: ccedilla
Encoding: 231 231 111
Width: 1126
VWidth: 3555
Flags: W
HStem: -394 123<527.632 694.18> -28 28<618.132 740> 991 153<494.062 912.885>
VStem: 115 194<327.754 793.605> 708 141<-255.129 -102.588>
Fore
998 906 m 1,0,1
 849 991 849 991 686 991 c 0,2,3
 505 991 505 991 407 877.5 c 128,-1,4
 309 764 309 764 309 562 c 0,5,6
 309 356 309 356 407 242 c 128,-1,7
 505 128 505 128 686 128 c 0,8,9
 764 128 764 128 844 147.5 c 128,-1,10
 924 167 924 167 998 214 c 1,11,-1
 998 43 l 1,12,13
 838 -28 838 -28 665 -28 c 0,14,15
 410 -28 410 -28 262.5 128.5 c 128,-1,16
 115 285 115 285 115 562 c 256,17,18
 115 838 115 838 264 991 c 128,-1,19
 413 1144 413 1144 679 1144 c 0,20,21
 861 1144 861 1144 998 1078 c 1,22,-1
 998 906 l 1,0,1
740 0 m 1,23,24
 793 -64 793 -64 821 -115.5 c 128,-1,25
 849 -167 849 -167 849 -217 c 0,26,27
 849 -394 849 -394 611 -394 c 0,28,29
 562 -394 562 -394 541 -391 c 0,30,-1
 434 -373 l 1,31,-1
 434 -238 l 1,32,33
 469 -255 469 -255 504.5 -263 c 128,-1,34
 540 -271 540 -271 590 -271 c 0,35,36
 708 -271 708 -271 708 -177 c 0,37,38
 708 -122 708 -122 618 0 c 1,39,-1
 740 0 l 1,23,24
EndSplineSet
EndChar
StartChar: eacute
Encoding: 233 233 112
Width: 1262
VWidth: 3555
Flags: W
HStem: -28 156<499.968 972.478> 516 145<312 970> 991 153<476.722 831.224>
VStem: 970 183<661 843.427>
Fore
302 516 m 1,0,1
 339 128 339 128 708 128 c 0,2,3
 913 128 913 128 1109 231 c 1,4,-1
 1109 57 l 1,5,6
 913 -28 913 -28 696 -28 c 0,7,8
 431 -28 431 -28 273 126.5 c 128,-1,9
 115 281 115 281 115 550 c 0,10,11
 115 828 115 828 259.5 986 c 128,-1,12
 404 1144 404 1144 661 1144 c 0,13,14
 889 1144 889 1144 1021 1001 c 128,-1,15
 1153 858 1153 858 1153 608 c 2,16,-1
 1153 516 l 1,17,-1
 302 516 l 1,0,1
970 661 m 1,18,19
 967 814 967 814 885.5 902.5 c 128,-1,20
 804 991 804 991 665 991 c 0,21,22
 512 991 512 991 419 906 c 128,-1,23
 326 821 326 821 312 658 c 1,24,-1
 970 661 l 1,18,19
661 1262 m 1,25,-1
 512 1262 l 1,26,-1
 790 1639 l 1,27,-1
 988 1639 l 1,28,-1
 661 1262 l 1,25,-1
EndSplineSet
EndChar
StartChar: egrave
Encoding: 232 232 113
Width: 1262
VWidth: 3555
Flags: W
HStem: -28 156<499.968 972.478> 516 145<312 970> 991 153<476.722 831.224>
VStem: 970 183<661 843.427>
Fore
302 516 m 1,0,1
 339 128 339 128 708 128 c 0,2,3
 913 128 913 128 1109 231 c 1,4,-1
 1109 57 l 1,5,6
 913 -28 913 -28 696 -28 c 0,7,8
 431 -28 431 -28 273 126.5 c 128,-1,9
 115 281 115 281 115 550 c 0,10,11
 115 828 115 828 259.5 986 c 128,-1,12
 404 1144 404 1144 661 1144 c 0,13,14
 889 1144 889 1144 1021 1001 c 128,-1,15
 1153 858 1153 858 1153 608 c 2,16,-1
 1153 516 l 1,17,-1
 302 516 l 1,0,1
970 661 m 1,18,19
 967 814 967 814 885.5 902.5 c 128,-1,20
 804 991 804 991 665 991 c 0,21,22
 512 991 512 991 419 906 c 128,-1,23
 326 821 326 821 312 658 c 1,24,-1
 970 661 l 1,18,19
637 1266 m 1,25,-1
 306 1639 l 1,26,-1
 509 1639 l 1,27,-1
 786 1266 l 1,28,-1
 637 1266 l 1,25,-1
EndSplineSet
EndChar
StartChar: ecircumflex
Encoding: 234 234 114
Width: 1262
VWidth: 3555
Flags: W
HStem: -28 156<499.968 972.478> 516 145<312 970> 991 153<476.722 831.224>
VStem: 970 183<661 843.427>
Fore
302 516 m 1,0,1
 339 128 339 128 708 128 c 0,2,3
 913 128 913 128 1109 231 c 1,4,-1
 1109 57 l 1,5,6
 913 -28 913 -28 696 -28 c 0,7,8
 431 -28 431 -28 273 126.5 c 128,-1,9
 115 281 115 281 115 550 c 0,10,11
 115 828 115 828 259.5 986 c 128,-1,12
 404 1144 404 1144 661 1144 c 0,13,14
 889 1144 889 1144 1021 1001 c 128,-1,15
 1153 858 1153 858 1153 608 c 2,16,-1
 1153 516 l 1,17,-1
 302 516 l 1,0,1
970 661 m 1,18,19
 967 814 967 814 885.5 902.5 c 128,-1,20
 804 991 804 991 665 991 c 0,21,22
 512 991 512 991 419 906 c 128,-1,23
 326 821 326 821 312 658 c 1,24,-1
 970 661 l 1,18,19
970 1262 m 1,25,-1
 832 1262 l 1,26,-1
 651 1507 l 1,27,-1
 472 1262 l 1,28,-1
 335 1262 l 1,29,-1
 580 1639 l 1,30,-1
 726 1639 l 1,31,-1
 970 1262 l 1,25,-1
EndSplineSet
EndChar
StartChar: edieresis
Encoding: 235 235 115
Width: 1262
VWidth: 3555
Flags: W
HStem: -28 156<499.968 972.478> 516 145<312 970> 991 153<476.722 831.224> 1351 203<356 554 746 950>
VStem: 356 198<1351 1554> 746 204<1351 1554> 970 183<661 843.427>
Fore
302 516 m 1,0,1
 339 128 339 128 708 128 c 0,2,3
 913 128 913 128 1109 231 c 1,4,-1
 1109 57 l 1,5,6
 913 -28 913 -28 696 -28 c 0,7,8
 431 -28 431 -28 273 126.5 c 128,-1,9
 115 281 115 281 115 550 c 0,10,11
 115 828 115 828 259.5 986 c 128,-1,12
 404 1144 404 1144 661 1144 c 0,13,14
 889 1144 889 1144 1021 1001 c 128,-1,15
 1153 858 1153 858 1153 608 c 2,16,-1
 1153 516 l 1,17,-1
 302 516 l 1,0,1
970 661 m 1,18,19
 967 814 967 814 885.5 902.5 c 128,-1,20
 804 991 804 991 665 991 c 0,21,22
 512 991 512 991 419 906 c 128,-1,23
 326 821 326 821 312 658 c 1,24,-1
 970 661 l 1,18,19
950 1351 m 1,25,-1
 746 1351 l 1,26,-1
 746 1554 l 1,27,-1
 950 1554 l 1,28,-1
 950 1351 l 1,25,-1
554 1351 m 1,29,-1
 356 1351 l 1,30,-1
 356 1554 l 1,31,-1
 554 1554 l 1,32,-1
 554 1351 l 1,29,-1
EndSplineSet
EndChar
StartChar: iacute
Encoding: 237 237 116
Width: 571
VWidth: 3555
Flags: W
HStem: 0 21G<196 377> 1100 20G<196 377>
VStem: 196 181<0 1120>
Fore
377 0 m 1,0,-1
 196 0 l 1,1,-1
 196 1120 l 1,2,-1
 377 1120 l 1,3,-1
 377 0 l 1,0,-1
309 1262 m 1,4,-1
 160 1262 l 1,5,-1
 437 1639 l 1,6,-1
 637 1639 l 1,7,-1
 309 1262 l 1,4,-1
EndSplineSet
EndChar
StartChar: igrave
Encoding: 236 236 117
Width: 571
VWidth: 3555
Flags: W
HStem: 0 21G<196 377> 1100 20G<196 377>
VStem: 196 181<0 1120>
Fore
377 0 m 1,0,-1
 196 0 l 1,1,-1
 196 1120 l 1,2,-1
 377 1120 l 1,3,-1
 377 0 l 1,0,-1
285 1266 m 1,4,-1
 -47 1639 l 1,5,-1
 156 1639 l 1,6,-1
 434 1266 l 1,7,-1
 285 1266 l 1,4,-1
EndSplineSet
EndChar
StartChar: icircumflex
Encoding: 238 238 118
Width: 571
VWidth: 3555
Flags: W
HStem: 0 21G<196 377> 1100 20G<196 377>
VStem: 196 181<0 1120>
Fore
377 0 m 1,0,-1
 196 0 l 1,1,-1
 196 1120 l 1,2,-1
 377 1120 l 1,3,-1
 377 0 l 1,0,-1
618 1262 m 1,4,-1
 479 1262 l 1,5,-1
 299 1507 l 1,6,-1
 122 1262 l 1,7,-1
 -17 1262 l 1,8,-1
 227 1639 l 1,9,-1
 373 1639 l 1,10,-1
 618 1262 l 1,4,-1
EndSplineSet
EndChar
StartChar: idieresis
Encoding: 239 239 119
Width: 571
VWidth: 3555
Flags: W
HStem: 0 21G<196 377> 1100 20G<196 377> 1351 203<3 203 394 597>
VStem: 3 200<1351 1554> 196 181<0 1120> 394 203<1351 1554>
Fore
377 0 m 1,0,-1
 196 0 l 1,1,-1
 196 1120 l 1,2,-1
 377 1120 l 1,3,-1
 377 0 l 1,0,-1
597 1351 m 1,4,-1
 394 1351 l 1,5,-1
 394 1554 l 1,6,-1
 597 1554 l 1,7,-1
 597 1351 l 1,4,-1
203 1351 m 1,8,-1
 3 1351 l 1,9,-1
 3 1554 l 1,10,-1
 203 1554 l 1,11,-1
 203 1351 l 1,8,-1
EndSplineSet
EndChar
StartChar: ntilde
Encoding: 241 241 120
Width: 1300
VWidth: 3555
Flags: W
HStem: 0 21G<189 373 943 1123> 988 156<538.079 842.997> 1312 127<725.583 853.05> 1465 129<478.46 610.73>
VStem: 189 184<0 841.622 950 1120> 339 123<1312 1454.58> 871 124<1475.62 1594> 943 180<0 879>
Fore
943 0 m 1,0,-1
 943 668 l 2,1,2
 943 988 943 988 693 988 c 0,3,4
 540 988 540 988 456.5 896 c 128,-1,5
 373 804 373 804 373 634 c 2,6,-1
 373 0 l 1,7,-1
 189 0 l 1,8,-1
 189 1120 l 1,9,-1
 373 1120 l 1,10,-1
 373 950 l 1,11,12
 505 1144 505 1144 733 1144 c 0,13,14
 929 1144 929 1144 1026 1025 c 128,-1,15
 1123 906 1123 906 1123 679 c 2,16,-1
 1123 0 l 1,17,-1
 943 0 l 1,0,-1
608 1429 m 1,18,19
 562 1465 562 1465 533 1465 c 0,20,21
 462 1465 462 1465 462 1312 c 1,22,-1
 339 1312 l 1,23,24
 339 1594 339 1594 529 1594 c 0,25,26
 601 1594 601 1594 668 1533 c 2,27,-1
 729 1476 l 2,28,29
 764 1439 764 1439 793 1439 c 0,30,31
 835 1439 835 1439 851.5 1474.5 c 128,-1,32
 868 1510 868 1510 871 1594 c 1,33,-1
 995 1594 l 1,34,35
 991 1312 991 1312 800 1312 c 0,36,37
 729 1312 729 1312 661 1373 c 2,38,-1
 608 1429 l 1,18,19
EndSplineSet
EndChar
StartChar: oacute
Encoding: 243 243 121
Width: 1253
VWidth: 3555
Flags: W
HStem: -28 156<468.792 782.475> 991 153<463.886 782.475>
VStem: 115 194<313.079 809.104> 950 191<320.859 799.087>
Fore
625 991 m 256,0,1
 476 991 476 991 392.5 877.5 c 128,-1,2
 309 764 309 764 309 562 c 256,3,4
 309 359 309 359 392.5 243.5 c 128,-1,5
 476 128 476 128 625 128 c 256,6,7
 774 128 774 128 862 243.5 c 128,-1,8
 950 359 950 359 950 562 c 0,9,10
 950 757 950 757 862 874 c 128,-1,11
 774 991 774 991 625 991 c 256,0,1
625 1144 m 256,12,13
 871 1144 871 1144 1006 991 c 128,-1,14
 1141 838 1141 838 1141 562 c 256,15,16
 1141 285 1141 285 1006 128.5 c 128,-1,17
 871 -28 871 -28 625 -28 c 256,18,19
 380 -28 380 -28 247.5 128.5 c 128,-1,20
 115 285 115 285 115 562 c 256,21,22
 115 838 115 838 247.5 991 c 128,-1,23
 380 1144 380 1144 625 1144 c 256,12,13
637 1262 m 1,24,-1
 488 1262 l 1,25,-1
 764 1639 l 1,26,-1
 963 1639 l 1,27,-1
 637 1262 l 1,24,-1
EndSplineSet
EndChar
StartChar: ograve
Encoding: 242 242 122
Width: 1253
VWidth: 3555
Flags: W
HStem: -28 156<468.792 782.475> 991 153<463.886 782.475>
VStem: 115 194<313.079 809.104> 950 191<320.859 799.087>
Fore
625 991 m 256,0,1
 476 991 476 991 392.5 877.5 c 128,-1,2
 309 764 309 764 309 562 c 256,3,4
 309 359 309 359 392.5 243.5 c 128,-1,5
 476 128 476 128 625 128 c 256,6,7
 774 128 774 128 862 243.5 c 128,-1,8
 950 359 950 359 950 562 c 0,9,10
 950 757 950 757 862 874 c 128,-1,11
 774 991 774 991 625 991 c 256,0,1
625 1144 m 256,12,13
 871 1144 871 1144 1006 991 c 128,-1,14
 1141 838 1141 838 1141 562 c 256,15,16
 1141 285 1141 285 1006 128.5 c 128,-1,17
 871 -28 871 -28 625 -28 c 256,18,19
 380 -28 380 -28 247.5 128.5 c 128,-1,20
 115 285 115 285 115 562 c 256,21,22
 115 838 115 838 247.5 991 c 128,-1,23
 380 1144 380 1144 625 1144 c 256,12,13
611 1266 m 1,24,-1
 281 1639 l 1,25,-1
 484 1639 l 1,26,-1
 760 1266 l 1,27,-1
 611 1266 l 1,24,-1
EndSplineSet
EndChar
StartChar: ocircumflex
Encoding: 244 244 123
Width: 1253
VWidth: 3555
Flags: W
HStem: -28 156<468.792 782.475> 991 153<463.886 782.475>
VStem: 115 194<313.079 809.104> 950 191<320.859 799.087>
Fore
625 991 m 256,0,1
 476 991 476 991 392.5 877.5 c 128,-1,2
 309 764 309 764 309 562 c 256,3,4
 309 359 309 359 392.5 243.5 c 128,-1,5
 476 128 476 128 625 128 c 256,6,7
 774 128 774 128 862 243.5 c 128,-1,8
 950 359 950 359 950 562 c 0,9,10
 950 757 950 757 862 874 c 128,-1,11
 774 991 774 991 625 991 c 256,0,1
625 1144 m 256,12,13
 871 1144 871 1144 1006 991 c 128,-1,14
 1141 838 1141 838 1141 562 c 256,15,16
 1141 285 1141 285 1006 128.5 c 128,-1,17
 871 -28 871 -28 625 -28 c 256,18,19
 380 -28 380 -28 247.5 128.5 c 128,-1,20
 115 285 115 285 115 562 c 256,21,22
 115 838 115 838 247.5 991 c 128,-1,23
 380 1144 380 1144 625 1144 c 256,12,13
946 1262 m 1,24,-1
 807 1262 l 1,25,-1
 625 1507 l 1,26,-1
 448 1262 l 1,27,-1
 309 1262 l 1,28,-1
 554 1639 l 1,29,-1
 700 1639 l 1,30,-1
 946 1262 l 1,24,-1
EndSplineSet
EndChar
StartChar: odieresis
Encoding: 246 246 124
Width: 1253
VWidth: 3555
Flags: W
HStem: -28 156<468.792 782.475> 991 153<463.886 782.475> 1351 203<330 529 722 924>
VStem: 115 194<313.079 809.104> 330 199<1351 1554> 722 202<1351 1554> 950 191<320.859 799.087>
Fore
625 991 m 256,0,1
 476 991 476 991 392.5 877.5 c 128,-1,2
 309 764 309 764 309 562 c 256,3,4
 309 359 309 359 392.5 243.5 c 128,-1,5
 476 128 476 128 625 128 c 256,6,7
 774 128 774 128 862 243.5 c 128,-1,8
 950 359 950 359 950 562 c 0,9,10
 950 757 950 757 862 874 c 128,-1,11
 774 991 774 991 625 991 c 256,0,1
625 1144 m 256,12,13
 871 1144 871 1144 1006 991 c 128,-1,14
 1141 838 1141 838 1141 562 c 256,15,16
 1141 285 1141 285 1006 128.5 c 128,-1,17
 871 -28 871 -28 625 -28 c 256,18,19
 380 -28 380 -28 247.5 128.5 c 128,-1,20
 115 285 115 285 115 562 c 256,21,22
 115 838 115 838 247.5 991 c 128,-1,23
 380 1144 380 1144 625 1144 c 256,12,13
924 1351 m 1,24,-1
 722 1351 l 1,25,-1
 722 1554 l 1,26,-1
 924 1554 l 1,27,-1
 924 1351 l 1,24,-1
529 1351 m 1,28,-1
 330 1351 l 1,29,-1
 330 1554 l 1,30,-1
 529 1554 l 1,31,-1
 529 1351 l 1,28,-1
EndSplineSet
EndChar
StartChar: otilde
Encoding: 245 245 125
Width: 1253
VWidth: 3555
Flags: W
HStem: -28 156<468.792 782.475> 991 153<463.886 782.475> 1312 127<685.614 813.853> 1465 129<440.199 571.621>
VStem: 115 194<313.079 809.104> 299 125<1312 1454.58> 832 125<1475.62 1594> 950 191<320.859 799.087>
Fore
625 991 m 256,0,1
 476 991 476 991 392.5 877.5 c 128,-1,2
 309 764 309 764 309 562 c 256,3,4
 309 359 309 359 392.5 243.5 c 128,-1,5
 476 128 476 128 625 128 c 256,6,7
 774 128 774 128 862 243.5 c 128,-1,8
 950 359 950 359 950 562 c 0,9,10
 950 757 950 757 862 874 c 128,-1,11
 774 991 774 991 625 991 c 256,0,1
625 1144 m 256,12,13
 871 1144 871 1144 1006 991 c 128,-1,14
 1141 838 1141 838 1141 562 c 256,15,16
 1141 285 1141 285 1006 128.5 c 128,-1,17
 871 -28 871 -28 625 -28 c 256,18,19
 380 -28 380 -28 247.5 128.5 c 128,-1,20
 115 285 115 285 115 562 c 256,21,22
 115 838 115 838 247.5 991 c 128,-1,23
 380 1144 380 1144 625 1144 c 256,12,13
569 1429 m 1,24,25
 523 1465 523 1465 495 1465 c 0,26,27
 424 1465 424 1465 424 1312 c 1,28,-1
 299 1312 l 1,29,30
 299 1594 299 1594 491 1594 c 0,31,32
 562 1594 562 1594 628 1533 c 2,33,-1
 689 1476 l 2,34,35
 726 1439 726 1439 753 1439 c 0,36,37
 797 1439 797 1439 812.5 1474.5 c 128,-1,38
 828 1510 828 1510 832 1594 c 1,39,-1
 957 1594 l 1,40,41
 953 1312 953 1312 760 1312 c 0,42,43
 689 1312 689 1312 621 1373 c 2,44,-1
 569 1429 l 1,24,25
EndSplineSet
EndChar
StartChar: uacute
Encoding: 250 250 126
Width: 1300
VWidth: 3555
Flags: W
HStem: -28 160<460.469 764.244> 1100 20G<170 359 932 1113>
VStem: 170 189<238.619 1120> 932 181<0 170 290.328 1120>
Fore
359 1120 m 1,0,-1
 359 451 l 2,1,2
 359 132 359 132 608 132 c 0,3,4
 757 132 757 132 844.5 227.5 c 128,-1,5
 932 323 932 323 932 488 c 2,6,-1
 932 1120 l 1,7,-1
 1113 1120 l 1,8,-1
 1113 0 l 1,9,-1
 932 0 l 1,10,-1
 932 170 l 1,11,12
 861 71 861 71 773.5 21.5 c 128,-1,13
 686 -28 686 -28 569 -28 c 0,14,15
 170 -28 170 -28 170 444 c 2,16,-1
 170 1120 l 1,17,-1
 359 1120 l 1,0,-1
648 1262 m 1,18,-1
 498 1262 l 1,19,-1
 774 1639 l 1,20,-1
 974 1639 l 1,21,-1
 648 1262 l 1,18,-1
EndSplineSet
EndChar
StartChar: ugrave
Encoding: 249 249 127
Width: 1300
VWidth: 3555
Flags: W
HStem: -28 160<460.469 764.244> 1100 20G<170 359 932 1113>
VStem: 170 189<238.619 1120> 932 181<0 170 290.328 1120>
Fore
359 1120 m 1,0,-1
 359 451 l 2,1,2
 359 132 359 132 608 132 c 0,3,4
 757 132 757 132 844.5 227.5 c 128,-1,5
 932 323 932 323 932 488 c 2,6,-1
 932 1120 l 1,7,-1
 1113 1120 l 1,8,-1
 1113 0 l 1,9,-1
 932 0 l 1,10,-1
 932 170 l 1,11,12
 861 71 861 71 773.5 21.5 c 128,-1,13
 686 -28 686 -28 569 -28 c 0,14,15
 170 -28 170 -28 170 444 c 2,16,-1
 170 1120 l 1,17,-1
 359 1120 l 1,0,-1
621 1266 m 1,18,-1
 292 1639 l 1,19,-1
 495 1639 l 1,20,-1
 771 1266 l 1,21,-1
 621 1266 l 1,18,-1
EndSplineSet
EndChar
StartChar: ucircumflex
Encoding: 251 251 128
Width: 1300
VWidth: 3555
Flags: W
HStem: -28 160<460.469 764.244> 1100 20G<170 359 932 1113>
VStem: 170 189<238.619 1120> 932 181<0 170 290.328 1120>
Fore
359 1120 m 1,0,-1
 359 451 l 2,1,2
 359 132 359 132 608 132 c 0,3,4
 757 132 757 132 844.5 227.5 c 128,-1,5
 932 323 932 323 932 488 c 2,6,-1
 932 1120 l 1,7,-1
 1113 1120 l 1,8,-1
 1113 0 l 1,9,-1
 932 0 l 1,10,-1
 932 170 l 1,11,12
 861 71 861 71 773.5 21.5 c 128,-1,13
 686 -28 686 -28 569 -28 c 0,14,15
 170 -28 170 -28 170 444 c 2,16,-1
 170 1120 l 1,17,-1
 359 1120 l 1,0,-1
957 1262 m 1,18,-1
 818 1262 l 1,19,-1
 637 1507 l 1,20,-1
 458 1262 l 1,21,-1
 319 1262 l 1,22,-1
 566 1639 l 1,23,-1
 712 1639 l 1,24,-1
 957 1262 l 1,18,-1
EndSplineSet
EndChar
StartChar: udieresis
Encoding: 252 252 129
Width: 1300
VWidth: 3555
Flags: W
HStem: -28 160<460.469 764.244> 1100 20G<170 359 932 1113> 1351 203<342 540 733 936>
VStem: 170 189<238.619 1120> 342 198<1351 1554> 733 203<1351 1554> 932 181<0 170 290.328 1120>
Fore
359 1120 m 1,0,-1
 359 451 l 2,1,2
 359 132 359 132 608 132 c 0,3,4
 757 132 757 132 844.5 227.5 c 128,-1,5
 932 323 932 323 932 488 c 2,6,-1
 932 1120 l 1,7,-1
 1113 1120 l 1,8,-1
 1113 0 l 1,9,-1
 932 0 l 1,10,-1
 932 170 l 1,11,12
 861 71 861 71 773.5 21.5 c 128,-1,13
 686 -28 686 -28 569 -28 c 0,14,15
 170 -28 170 -28 170 444 c 2,16,-1
 170 1120 l 1,17,-1
 359 1120 l 1,0,-1
936 1351 m 1,18,-1
 733 1351 l 1,19,-1
 733 1554 l 1,20,-1
 936 1554 l 1,21,-1
 936 1351 l 1,18,-1
540 1351 m 1,22,-1
 342 1351 l 1,23,-1
 342 1554 l 1,24,-1
 540 1554 l 1,25,-1
 540 1351 l 1,22,-1
EndSplineSet
EndChar
StartChar: dagger
Encoding: 8224 8224 130
Width: 1022
VWidth: 3555
Flags: W
HStem: 920 153<57 424 601 970> 1473 20G<424 601>
VStem: 424 177<-200 920 1073 1493>
Fore
601 1073 m 1,0,-1
 970 1073 l 1,1,-1
 970 920 l 1,2,-1
 601 920 l 1,3,-1
 601 -200 l 1,4,-1
 424 -200 l 1,5,-1
 424 920 l 1,6,-1
 57 920 l 1,7,-1
 57 1073 l 1,8,-1
 424 1073 l 1,9,-1
 424 1493 l 1,10,-1
 601 1493 l 1,11,-1
 601 1073 l 1,0,-1
EndSplineSet
EndChar
StartChar: degree
Encoding: 176 176 131
Width: 1022
VWidth: 3555
Flags: W
HStem: 885 129<390.382 638.441> 1391 131<389.974 637.93>
VStem: 196 127<1080.68 1324.58> 705 127<1081.61 1323.03>
Fore
512 1391 m 0,0,1
 434 1391 434 1391 378.5 1337 c 128,-1,2
 323 1283 323 1283 323 1201 c 0,3,4
 323 1123 323 1123 378.5 1068.5 c 128,-1,5
 434 1014 434 1014 512 1014 c 0,6,7
 594 1014 594 1014 649.5 1068.5 c 128,-1,8
 705 1123 705 1123 705 1201 c 0,9,10
 705 1283 705 1283 649.5 1337 c 128,-1,11
 594 1391 594 1391 512 1391 c 0,0,1
512 1522 m 0,12,13
 648 1522 648 1522 740 1429 c 0,14,15
 783 1380 783 1380 807.5 1323 c 128,-1,16
 832 1266 832 1266 832 1201 c 0,17,18
 832 1069 832 1069 738 977 c 128,-1,19
 644 885 644 885 512 885 c 0,20,21
 377 885 377 885 286.5 975.5 c 128,-1,22
 196 1066 196 1066 196 1201 c 0,23,24
 196 1269 196 1269 220.5 1328 c 128,-1,25
 245 1387 245 1387 287.5 1429.5 c 128,-1,26
 330 1472 330 1472 389 1497 c 128,-1,27
 448 1522 448 1522 512 1522 c 0,12,13
EndSplineSet
EndChar
StartChar: cent
Encoding: 162 162 132
Width: 1303
VWidth: 3555
Flags: W
HStem: 991 153<779 916.328>
VStem: 170 200<317.781 794> 682 97<-312 -28 132 988 1144 1436>
Fore
682 988 m 1,0,1
 529 970 529 970 449.5 856.5 c 128,-1,2
 370 743 370 743 370 562 c 0,3,4
 370 170 370 170 682 132 c 1,5,-1
 682 988 l 1,0,1
1062 906 m 1,6,7
 988 950 988 950 918.5 969 c 128,-1,8
 849 988 849 988 779 991 c 1,9,-1
 779 128 l 1,10,11
 849 132 849 132 918.5 151 c 128,-1,12
 988 170 988 170 1062 214 c 1,13,-1
 1062 43 l 1,14,15
 995 10 995 10 926.5 -5.5 c 128,-1,16
 858 -21 858 -21 779 -28 c 1,17,-1
 779 -312 l 1,18,-1
 682 -312 l 1,19,-1
 682 -24 l 1,20,21
 437 -3 437 -3 303.5 149.5 c 128,-1,22
 170 302 170 302 170 562 c 256,23,24
 170 821 170 821 303.5 972 c 128,-1,25
 437 1123 437 1123 682 1144 c 1,26,-1
 682 1436 l 1,27,-1
 779 1436 l 1,28,-1
 779 1144 l 1,29,30
 929 1137 929 1137 1062 1078 c 1,31,-1
 1062 906 l 1,6,7
EndSplineSet
EndChar
StartChar: sterling
Encoding: 163 163 133
Width: 1303
VWidth: 3555
Flags: W
HStem: 0 167<128 366 566 1123> 637 142<163 366 566 957> 1361 161<656.3 895.395>
VStem: 366 200<167 637 779 1259.61>
Fore
1102 1283 m 1,0,1
 1028 1323 1028 1323 958.5 1342 c 128,-1,2
 889 1361 889 1361 832 1361 c 0,3,4
 682 1361 682 1361 624 1284.5 c 128,-1,5
 566 1208 566 1208 566 991 c 2,6,-1
 566 779 l 1,7,-1
 957 779 l 1,8,-1
 957 637 l 1,9,-1
 566 637 l 1,10,-1
 566 167 l 1,11,-1
 1123 167 l 1,12,-1
 1123 0 l 1,13,-1
 128 0 l 1,14,-1
 128 167 l 1,15,-1
 366 167 l 1,16,-1
 366 637 l 1,17,-1
 163 637 l 1,18,-1
 163 779 l 1,19,-1
 366 779 l 1,20,-1
 366 1017 l 2,21,22
 366 1276 366 1276 473 1399 c 128,-1,23
 580 1522 580 1522 814 1522 c 0,24,25
 871 1522 871 1522 947.5 1505.5 c 128,-1,26
 1024 1489 1024 1489 1102 1462 c 1,27,-1
 1102 1283 l 1,0,1
EndSplineSet
EndChar
StartChar: section
Encoding: 167 167 134
Width: 1022
VWidth: 3555
Flags: W
HStem: -196 146<395.514 632.261> 1377 145<395.564 684.301>
VStem: 92 160<637.54 853.403> 156 189<1137.78 1330.08> 682 183<-1.26709 205.032> 767 165<492.686 704.755>
Fore
380 939 m 1,0,1
 316 889 316 889 284 846.5 c 128,-1,2
 252 804 252 804 252 753 c 0,3,4
 252 679 252 679 319 611 c 0,5,6
 356 576 356 576 437.5 526 c 128,-1,7
 519 476 519 476 644 410 c 1,8,9
 708 458 708 458 737.5 500.5 c 128,-1,10
 767 543 767 543 767 594 c 0,11,12
 767 665 767 665 696 736 c 0,13,14
 661 771 661 771 583 821 c 128,-1,15
 505 871 505 871 380 939 c 1,0,1
832 1302 m 1,16,17
 746 1340 746 1340 675 1358.5 c 128,-1,18
 604 1377 604 1377 543 1377 c 0,19,20
 451 1377 451 1377 398 1338 c 128,-1,21
 345 1299 345 1299 345 1227 c 0,22,23
 345 1137 345 1137 550 1021 c 0,24,25
 566 1014 566 1014 574.5 1008.5 c 128,-1,26
 583 1003 583 1003 590 995 c 2,27,28
 811 871 811 871 865 800 c 1,29,30
 932 733 932 733 932 621 c 0,31,32
 932 441 932 441 746 342 c 1,33,34
 811 288 811 288 838 232.5 c 128,-1,35
 865 177 865 177 865 115 c 0,36,37
 865 -24 865 -24 763 -110 c 128,-1,38
 661 -196 661 -196 488 -196 c 0,39,40
 413 -196 413 -196 336.5 -179.5 c 128,-1,41
 260 -163 260 -163 170 -139 c 1,42,-1
 170 24 l 1,43,44
 260 -10 260 -10 332 -30 c 128,-1,45
 404 -50 404 -50 465 -50 c 0,46,47
 682 -50 682 -50 682 109 c 0,48,49
 682 214 682 214 458 335 c 2,50,-1
 437 349 l 2,51,52
 220 469 220 469 156 543 c 0,53,54
 92 625 92 625 92 726 c 0,55,56
 92 818 92 818 140.5 889 c 128,-1,57
 189 960 189 960 278 1007 c 1,58,59
 220 1052 220 1052 188 1109.5 c 128,-1,60
 156 1167 156 1167 156 1231 c 0,61,62
 156 1361 156 1361 257.5 1441.5 c 128,-1,63
 359 1522 359 1522 523 1522 c 0,64,65
 675 1522 675 1522 832 1465 c 1,66,-1
 832 1302 l 1,16,17
EndSplineSet
EndChar
StartChar: bullet
Encoding: 8226 8226 135
Width: 1208
VWidth: 3555
Flags: W
Fore
309 760 m 256,0,1
 309 885 309 885 394 972 c 128,-1,2
 479 1059 479 1059 608 1059 c 0,3,4
 733 1059 733 1059 818 972 c 128,-1,5
 903 885 903 885 903 760 c 256,6,7
 903 637 903 637 816 551 c 128,-1,8
 729 465 729 465 604 465 c 256,9,10
 479 465 479 465 394 551 c 128,-1,11
 309 637 309 637 309 760 c 256,0,1
EndSplineSet
EndChar
StartChar: paragraph
Encoding: 182 182 136
Width: 1303
VWidth: 3555
Flags: W
HStem: 1373 120<750 943>
VStem: 608 142<-200 648> 943 139<-200 1373>
Fore
1082 -200 m 1,0,-1
 943 -200 l 1,1,-1
 943 1373 l 1,2,-1
 750 1373 l 1,3,-1
 750 -200 l 1,4,-1
 608 -200 l 1,5,-1
 608 648 l 1,6,7
 391 665 391 665 273.5 777 c 128,-1,8
 156 889 156 889 156 1073 c 0,9,10
 156 1266 156 1266 286.5 1379.5 c 128,-1,11
 417 1493 417 1493 634 1493 c 2,12,-1
 1082 1493 l 1,13,-1
 1082 -200 l 1,0,-1
EndSplineSet
EndChar
StartChar: germandbls
Encoding: 223 223 137
Width: 1293
VWidth: 3555
Flags: W
HStem: -28 153<601.425 943.818> 1408 149<474.062 802.42>
VStem: 189 184<0 1306.55> 576 177<779.025 998.926> 1007 191<186.829 424.764>
Fore
189 1137 m 1,0,1
 189 1340 189 1340 304.5 1448.5 c 128,-1,2
 420 1557 420 1557 644 1557 c 0,3,4
 1066 1557 1066 1557 1073 1102 c 1,5,6
 924 1095 924 1095 838.5 1036 c 128,-1,7
 753 977 753 977 753 882 c 0,8,9
 753 793 753 793 878 712 c 2,10,-1
 936 675 l 2,11,12
 1099 569 1099 569 1149 498 c 256,13,14
 1198 427 1198 427 1198 326 c 0,15,16
 1198 153 1198 153 1086 62.5 c 128,-1,17
 974 -28 974 -28 760 -28 c 0,18,19
 696 -28 696 -28 629 -15.5 c 128,-1,20
 562 -3 562 -3 488 17 c 1,21,-1
 488 184 l 1,22,23
 648 125 648 125 771 125 c 0,24,25
 1007 125 1007 125 1007 312 c 0,26,27
 1007 373 1007 373 978.5 415.5 c 128,-1,28
 950 458 950 458 849 519 c 2,29,-1
 757 576 l 2,30,31
 661 634 661 634 618.5 700.5 c 128,-1,32
 576 767 576 767 576 861 c 0,33,34
 576 988 576 988 658 1075.5 c 128,-1,35
 740 1163 740 1163 892 1191 c 1,36,37
 871 1408 871 1408 641 1408 c 0,38,39
 509 1408 509 1408 441 1337 c 128,-1,40
 373 1266 373 1266 373 1134 c 2,41,-1
 373 0 l 1,42,-1
 189 0 l 1,43,-1
 189 1137 l 1,0,1
EndSplineSet
EndChar
StartChar: registered
Encoding: 174 174 138
Width: 2050
VWidth: 3555
Flags: W
HStem: 0 102<790.588 1255.7> 696 101<875 1030.84> 1073 104<875 1150.55> 1384 102<785.401 1263.46>
VStem: 281 99<510.959 973.737> 722 153<339 696 797 1073> 1198 156<828.6 1038.1> 1668 96<506.466 977.755>
Fore
1024 1384 m 0,0,1
 760 1384 760 1384 576 1198 c 0,2,3
 380 1003 380 1003 380 743 c 0,4,5
 380 476 380 476 576 292 c 0,6,7
 764 102 764 102 1024 102 c 0,8,9
 1279 102 1279 102 1479 292 c 0,10,11
 1668 479 1668 479 1668 743 c 0,12,13
 1668 998 1668 998 1479 1198 c 0,14,15
 1293 1384 1293 1384 1024 1384 c 0,0,1
1024 1486 m 0,16,17
 1337 1486 1337 1486 1550 1266 c 0,18,19
 1764 1052 1764 1052 1764 743 c 256,20,21
 1764 434 1764 434 1550 220 c 0,22,23
 1337 0 1337 0 1024 0 c 0,24,25
 722 0 722 0 502 220 c 256,26,27
 281 441 281 441 281 743 c 256,28,29
 281 1045 281 1045 502 1266 c 256,30,31
 722 1486 722 1486 1024 1486 c 0,16,17
875 797 m 1,32,-1
 995 797 l 2,33,34
 1109 797 1109 797 1153.5 827.5 c 128,-1,35
 1198 858 1198 858 1198 936 c 0,36,37
 1198 1007 1198 1007 1152 1040 c 128,-1,38
 1106 1073 1106 1073 995 1073 c 2,39,-1
 875 1073 l 1,40,-1
 875 797 l 1,32,-1
1003 1177 m 1,41,42
 1184 1177 1184 1177 1269 1118 c 128,-1,43
 1354 1059 1354 1059 1354 936 c 0,44,45
 1354 849 1354 849 1301 792.5 c 128,-1,46
 1248 736 1248 736 1153 722 c 1,47,48
 1180 712 1180 712 1212.5 673 c 128,-1,49
 1245 634 1245 634 1293 562 c 2,50,-1
 1429 339 l 1,51,-1
 1255 339 l 1,52,-1
 1127 543 l 2,53,54
 1069 644 1069 644 1032 670 c 128,-1,55
 995 696 995 696 943 696 c 2,56,-1
 875 696 l 1,57,-1
 875 339 l 1,58,-1
 722 339 l 1,59,-1
 722 1177 l 1,60,-1
 1003 1177 l 1,41,42
EndSplineSet
EndChar
StartChar: copyright
Encoding: 169 169 139
Width: 2050
VWidth: 3555
Flags: W
HStem: 0 102<790.588 1255.7> 288 116<885.461 1207.05> 1073 121<883.376 1215.03> 1384 102<785.401 1263.46>
VStem: 281 99<510.959 973.737> 583 163<546.596 935.339> 1668 96<506.466 977.755>
Fore
1024 1486 m 0,0,1
 1337 1486 1337 1486 1550 1266 c 0,2,3
 1764 1052 1764 1052 1764 743 c 256,4,5
 1764 434 1764 434 1550 220 c 0,6,7
 1337 0 1337 0 1024 0 c 0,8,9
 722 0 722 0 502 220 c 256,10,11
 281 441 281 441 281 743 c 256,12,13
 281 1045 281 1045 502 1266 c 256,14,15
 722 1486 722 1486 1024 1486 c 0,0,1
1024 1384 m 0,16,17
 760 1384 760 1384 576 1198 c 0,18,19
 380 1003 380 1003 380 743 c 0,20,21
 380 476 380 476 576 292 c 0,22,23
 764 102 764 102 1024 102 c 0,24,25
 1279 102 1279 102 1479 292 c 0,26,27
 1668 479 1668 479 1668 743 c 0,28,29
 1668 998 1668 998 1479 1198 c 0,30,31
 1293 1384 1293 1384 1024 1384 c 0,16,17
1326 1007 m 1,32,33
 1259 1045 1259 1045 1193 1059 c 128,-1,34
 1127 1073 1127 1073 1062 1073 c 0,35,36
 913 1073 913 1073 829.5 988 c 128,-1,37
 746 903 746 903 746 743 c 256,38,39
 746 583 746 583 829.5 493.5 c 128,-1,40
 913 404 913 404 1073 404 c 0,41,42
 1137 404 1137 404 1198 422.5 c 128,-1,43
 1259 441 1259 441 1326 472 c 1,44,-1
 1326 349 l 1,45,46
 1174 288 1174 288 1052 288 c 0,47,48
 835 288 835 288 709 408.5 c 128,-1,49
 583 529 583 529 583 743 c 256,50,51
 583 957 583 957 709 1075.5 c 128,-1,52
 835 1194 835 1194 1052 1194 c 0,53,54
 1201 1194 1201 1194 1326 1137 c 1,55,-1
 1326 1007 l 1,32,33
EndSplineSet
EndChar
StartChar: trademark
Encoding: 8482 8482 140
Width: 2050
VWidth: 3555
Flags: W
HStem: 1397 96<295 498 611 814>
VStem: 498 113<917 1397> 929 113<917 1397> 1493 115<917 1397>
Fore
1439 1493 m 1,0,-1
 1608 1493 l 1,1,-1
 1608 917 l 1,2,-1
 1493 917 l 1,3,-1
 1493 1397 l 1,4,-1
 1302 1099 l 1,5,-1
 1245 1099 l 1,6,-1
 1042 1397 l 1,7,-1
 1042 917 l 1,8,-1
 929 917 l 1,9,-1
 929 1493 l 1,10,-1
 1099 1493 l 1,11,-1
 1272 1238 l 1,12,-1
 1439 1493 l 1,0,-1
611 1397 m 1,13,-1
 611 917 l 1,14,-1
 498 917 l 1,15,-1
 498 1397 l 1,16,-1
 295 1397 l 1,17,-1
 295 1493 l 1,18,-1
 814 1493 l 1,19,-1
 814 1397 l 1,20,-1
 611 1397 l 1,13,-1
EndSplineSet
EndChar
StartChar: acute
Encoding: 180 180 141
Width: 1022
VWidth: 3555
Flags: W
HStem: 1262 377<523 651>
VStem: 373 476<1262 1639>
Fore
523 1262 m 1,0,-1
 373 1262 l 1,1,-1
 651 1639 l 1,2,-1
 849 1639 l 1,3,-1
 523 1262 l 1,0,-1
EndSplineSet
EndChar
StartChar: dieresis
Encoding: 168 168 142
Width: 1022
VWidth: 3555
Flags: W
HStem: 1351 203<217 417 608 811>
VStem: 217 200<1351 1554> 608 203<1351 1554>
Fore
811 1351 m 1,0,-1
 608 1351 l 1,1,-1
 608 1554 l 1,2,-1
 811 1554 l 1,3,-1
 811 1351 l 1,0,-1
417 1351 m 1,4,-1
 217 1351 l 1,5,-1
 217 1554 l 1,6,-1
 417 1554 l 1,7,-1
 417 1351 l 1,4,-1
EndSplineSet
EndChar
StartChar: notequal
Encoding: 8800 8800 143
Width: 1716
VWidth: 3555
Flags: W
HStem: 352 171<220 516 865 1500> 760 172<220 849 1198 1500>
Fore
1245 1245 m 1,0,-1
 1373 1144 l 1,1,-1
 1198 932 l 1,2,-1
 1500 932 l 1,3,-1
 1500 760 l 1,4,-1
 1062 760 l 1,5,-1
 865 523 l 1,6,-1
 1500 523 l 1,7,-1
 1500 352 l 1,8,-1
 726 352 l 1,9,-1
 469 40 l 1,10,-1
 345 142 l 1,11,-1
 516 352 l 1,12,-1
 220 352 l 1,13,-1
 220 523 l 1,14,-1
 654 523 l 1,15,-1
 849 760 l 1,16,-1
 220 760 l 1,17,-1
 220 932 l 1,18,-1
 991 932 l 1,19,-1
 1245 1245 l 1,0,-1
EndSplineSet
EndChar
StartChar: AE
Encoding: 198 198 144
Width: 1992
VWidth: 3555
Flags: W
HStem: 0 167<1106 1866> 380 174<444 903> 712 170<1106 1818> 1326 167<1106 1845> 1337 156<771 903>
VStem: 903 203<167 380 554 712 882 1326>
Fore
1106 1326 m 1,0,-1
 1106 882 l 1,1,-1
 1818 882 l 1,2,-1
 1818 712 l 1,3,-1
 1106 712 l 1,4,-1
 1106 167 l 1,5,-1
 1866 167 l 1,6,-1
 1866 0 l 1,7,-1
 903 0 l 1,8,-1
 903 380 l 1,9,-1
 373 380 l 1,10,-1
 214 0 l 1,11,-1
 7 0 l 1,12,-1
 634 1493 l 1,13,-1
 1845 1493 l 1,14,-1
 1845 1326 l 1,15,-1
 1106 1326 l 1,0,-1
903 554 m 1,16,-1
 903 1337 l 1,17,-1
 771 1337 l 1,18,-1
 444 554 l 1,19,-1
 903 554 l 1,16,-1
EndSplineSet
EndChar
StartChar: Oslash
Encoding: 216 216 145
Width: 1612
VWidth: 3555
Flags: W
HStem: -28 163<611.112 1013.46> 1358 164<606.837 994.521>
VStem: 115 215<544.157 1034.75> 1286 210<453.478 949.387>
Fore
491 267 m 1,0,1
 621 135 621 135 811 135 c 0,2,3
 1028 135 1028 135 1157 296.5 c 128,-1,4
 1286 458 1286 458 1286 746 c 0,5,6
 1286 858 1286 858 1265.5 951.5 c 128,-1,7
 1245 1045 1245 1045 1208 1113 c 1,8,-1
 491 267 l 1,0,1
1123 1227 m 1,9,10
 1066 1293 1066 1293 984.5 1325.5 c 128,-1,11
 903 1358 903 1358 811 1358 c 0,12,13
 587 1358 587 1358 458.5 1193 c 128,-1,14
 330 1028 330 1028 330 746 c 0,15,16
 330 634 330 634 350 541 c 128,-1,17
 370 448 370 448 404 377 c 1,18,-1
 1123 1227 l 1,9,10
271 220 m 1,19,20
 196 323 196 323 155.5 455 c 128,-1,21
 115 587 115 587 115 746 c 0,22,23
 115 1099 115 1099 302 1309 c 0,24,25
 495 1522 495 1522 811 1522 c 0,26,27
 1069 1522 1069 1522 1245 1368 c 1,28,-1
 1411 1561 l 1,29,-1
 1510 1472 l 1,30,-1
 1340 1272 l 1,31,32
 1422 1174 1422 1174 1459 1040 c 128,-1,33
 1496 906 1496 906 1496 746 c 0,34,35
 1496 573 1496 573 1448.5 429 c 128,-1,36
 1401 285 1401 285 1310 183.5 c 128,-1,37
 1219 82 1219 82 1093 27 c 128,-1,38
 967 -28 967 -28 811 -28 c 0,39,40
 547 -28 547 -28 370 122 c 1,41,-1
 207 -71 l 1,42,-1
 102 17 l 1,43,-1
 271 220 l 1,19,20
EndSplineSet
EndChar
StartChar: infinity
Encoding: 8734 8734 146
Width: 1706
VWidth: 3555
Flags: W
HStem: 224 146<385.77 627.94> 227 153<1040.87 1324.11> 842 161<383.373 665.347> 858 149<1084.41 1303.95>
VStem: 224 71<456.786 752.391> 1415 74<474.021 768.632>
Fore
917 562 m 1,0,1
 1021 380 1021 380 1184 380 c 0,2,3
 1286 380 1286 380 1350.5 448 c 128,-1,4
 1415 516 1415 516 1415 621 c 0,5,6
 1415 722 1415 722 1357 790 c 128,-1,7
 1299 858 1299 858 1205 858 c 0,8,9
 1123 858 1123 858 1057 790 c 128,-1,10
 991 722 991 722 917 562 c 1,0,1
797 665 m 1,11,12
 693 842 693 842 526 842 c 0,13,14
 424 842 424 842 359.5 777 c 128,-1,15
 295 712 295 712 295 604 c 0,16,17
 295 505 295 505 354 437.5 c 128,-1,18
 413 370 413 370 505 370 c 0,19,20
 587 370 587 370 654.5 437.5 c 128,-1,21
 722 505 722 505 797 665 c 1,11,12
865 484 m 1,22,23
 797 349 797 349 717 286.5 c 128,-1,24
 637 224 637 224 540 224 c 0,25,26
 401 224 401 224 312.5 336 c 128,-1,27
 224 448 224 448 224 611 c 0,28,29
 224 786 224 786 305.5 894.5 c 128,-1,30
 387 1003 387 1003 523 1003 c 0,31,32
 618 1003 618 1003 692.5 939 c 128,-1,33
 767 875 767 875 842 740 c 1,34,35
 977 1007 977 1007 1167 1007 c 0,36,37
 1234 1007 1234 1007 1292.5 976.5 c 128,-1,38
 1351 946 1351 946 1395 892 c 128,-1,39
 1439 838 1439 838 1464 767 c 128,-1,40
 1489 696 1489 696 1489 615 c 0,41,42
 1489 441 1489 441 1406 334 c 128,-1,43
 1323 227 1323 227 1187 227 c 0,44,45
 1095 227 1095 227 1020.5 286 c 128,-1,46
 946 345 946 345 865 484 c 1,22,23
EndSplineSet
EndChar
StartChar: plusminus
Encoding: 177 177 147
Width: 1716
VWidth: 3555
Flags: W
HStem: 0 167<220 1500> 729 167<220 771 946 1500>
VStem: 771 175<342 729 896 1286>
Fore
1500 896 m 1,0,-1
 1500 729 l 1,1,-1
 946 729 l 1,2,-1
 946 342 l 1,3,-1
 771 342 l 1,4,-1
 771 729 l 1,5,-1
 220 729 l 1,6,-1
 220 896 l 1,7,-1
 771 896 l 1,8,-1
 771 1286 l 1,9,-1
 946 1286 l 1,10,-1
 946 896 l 1,11,-1
 1500 896 l 1,0,-1
1500 0 m 1,12,-1
 220 0 l 1,13,-1
 220 167 l 1,14,-1
 1500 167 l 1,15,-1
 1500 0 l 1,12,-1
EndSplineSet
EndChar
StartChar: lessequal
Encoding: 8804 8804 148
Width: 1716
VWidth: 3555
Flags: W
HStem: 0 167<220 1500>
Fore
1500 465 m 1,0,-1
 1500 288 l 1,1,-1
 220 654 l 1,2,-1
 220 828 l 1,3,-1
 1500 1194 l 1,4,-1
 1500 1017 l 1,5,-1
 536 740 l 1,6,-1
 1500 465 l 1,0,-1
1500 0 m 1,7,-1
 220 0 l 1,8,-1
 220 167 l 1,9,-1
 1500 167 l 1,10,-1
 1500 0 l 1,7,-1
EndSplineSet
EndChar
StartChar: greaterequal
Encoding: 8805 8805 149
Width: 1716
VWidth: 3555
Flags: W
HStem: 0 167<220 1500>
Fore
1500 828 m 1,0,-1
 1500 654 l 1,1,-1
 220 288 l 1,2,-1
 220 465 l 1,3,-1
 1180 740 l 1,4,-1
 220 1017 l 1,5,-1
 220 1194 l 1,6,-1
 1500 828 l 1,0,-1
220 0 m 1,7,-1
 220 167 l 1,8,-1
 1500 167 l 1,9,-1
 1500 0 l 1,10,-1
 220 0 l 1,7,-1
EndSplineSet
EndChar
StartChar: yen
Encoding: 165 165 150
Width: 1303
VWidth: 3555
Flags: W
HStem: 0 21G<554 753> 458 122<135 554 753 1167> 783 123<135 398 903 1167> 1473 20G<82 281.92 1017.17 1219>
VStem: 554 199<0 458 580 628>
Fore
753 0 m 1,0,-1
 554 0 l 1,1,-1
 554 458 l 1,2,-1
 135 458 l 1,3,-1
 135 580 l 1,4,-1
 554 580 l 1,5,-1
 554 628 l 1,6,-1
 469 783 l 1,7,-1
 135 783 l 1,8,-1
 135 906 l 1,9,-1
 398 906 l 1,10,-1
 82 1493 l 1,11,-1
 271 1493 l 1,12,-1
 651 797 l 1,13,-1
 1028 1493 l 1,14,-1
 1219 1493 l 1,15,-1
 903 906 l 1,16,-1
 1167 906 l 1,17,-1
 1167 783 l 1,18,-1
 835 783 l 1,19,-1
 750 628 l 1,20,-1
 750 580 l 1,21,-1
 1167 580 l 1,22,-1
 1167 458 l 1,23,-1
 753 458 l 1,24,-1
 753 0 l 1,0,-1
EndSplineSet
EndChar
StartChar: mu
Encoding: 181 181 151
Width: 1303
VWidth: 3555
Flags: W
HStem: -431 21G<170 359> -28 170<1070.5 1252.9> -28 160<465.058 807.929> 1100 20G<170 359 932 1113>
VStem: 170 189<-431 128 234.941 1120> 932 181<263.641 1120>
Fore
359 1120 m 1,0,-1
 359 424 l 2,1,2
 359 132 359 132 628 132 c 0,3,4
 932 132 932 132 932 469 c 2,5,-1
 932 1120 l 1,6,-1
 1113 1120 l 1,7,-1
 1113 255 l 2,8,9
 1113 200 1113 200 1128.5 171 c 128,-1,10
 1144 142 1144 142 1187 142 c 0,11,12
 1198 142 1198 142 1255 163 c 1,13,-1
 1255 14 l 1,14,15
 1177 -28 1177 -28 1106 -28 c 256,16,17
 1035 -28 1035 -28 996 9.5 c 128,-1,18
 957 47 957 47 939 128 c 1,19,20
 835 -28 835 -28 644 -28 c 0,21,22
 540 -28 540 -28 469 9.5 c 128,-1,23
 398 47 398 47 359 128 c 1,24,-1
 359 -431 l 1,25,-1
 170 -431 l 1,26,-1
 170 1120 l 1,27,-1
 359 1120 l 1,0,-1
EndSplineSet
EndChar
StartChar: partialdiff
Encoding: 8706 8706 152
Width: 1062
VWidth: 3555
Flags: W
HStem: -24 52<346.789 572.735> 736 75<428.595 640.018> 1208 118<534.929 735.365>
VStem: 102 190<188.559 540.469> 786 177<687.122 1044.24>
Fore
757 621 m 1,0,1
 771 708 771 708 778.5 789.5 c 128,-1,2
 786 871 786 871 786 950 c 0,3,4
 786 1208 786 1208 641 1208 c 0,5,6
 587 1208 587 1208 516 1149 c 0,7,8
 448 1092 448 1092 404 1092 c 0,9,10
 370 1092 370 1092 346.5 1113 c 128,-1,11
 323 1134 323 1134 323 1167 c 0,12,13
 323 1227 323 1227 394 1276.5 c 128,-1,14
 465 1326 465 1326 569 1326 c 0,15,16
 750 1326 750 1326 856.5 1170 c 128,-1,17
 963 1014 963 1014 963 753 c 0,18,19
 963 417 963 417 818 196 c 256,20,21
 672 -24 672 -24 458 -24 c 0,22,23
 384 -24 384 -24 319.5 3.5 c 128,-1,24
 255 31 255 31 207.5 83 c 128,-1,25
 160 135 160 135 131 204.5 c 128,-1,26
 102 274 102 274 102 356 c 0,27,28
 102 455 102 455 132.5 538 c 128,-1,29
 163 621 163 621 215 682 c 128,-1,30
 267 743 267 743 338.5 777 c 128,-1,31
 410 811 410 811 488 811 c 0,32,33
 590 811 590 811 654.5 765 c 128,-1,34
 719 719 719 719 757 621 c 1,0,1
708 495 m 0,35,36
 708 611 708 611 663 673.5 c 128,-1,37
 618 736 618 736 540 736 c 0,38,39
 434 736 434 736 363 606 c 128,-1,40
 292 476 292 476 292 271 c 0,41,42
 292 28 292 28 458 28 c 0,43,44
 569 28 569 28 638.5 160 c 128,-1,45
 708 292 708 292 708 495 c 0,35,36
EndSplineSet
EndChar
StartChar: summation
Encoding: 8721 8721 153
Width: 1378
VWidth: 3555
Flags: W
HStem: -391 188<335 1340> 1283 193<356 1316>
Fore
1316 1283 m 1,0,-1
 356 1283 l 1,1,-1
 1028 566 l 1,2,-1
 335 -203 l 1,3,-1
 1340 -203 l 1,4,-1
 1340 -391 l 1,5,-1
 24 -391 l 1,6,-1
 24 -245 l 1,7,-1
 750 559 l 1,8,-1
 54 1299 l 1,9,-1
 54 1476 l 1,10,-1
 1316 1476 l 1,11,-1
 1316 1283 l 1,0,-1
EndSplineSet
EndChar
StartChar: product
Encoding: 8719 8719 154
Width: 1551
VWidth: 3555
Flags: W
HStem: 1269 207<394 1153>
VStem: 153 241<-391 1269> 1153 241<-391 1269>
Fore
1394 -391 m 1,0,-1
 1153 -391 l 1,1,-1
 1153 1269 l 1,2,-1
 394 1269 l 1,3,-1
 394 -391 l 1,4,-1
 153 -391 l 1,5,-1
 153 1476 l 1,6,-1
 1394 1476 l 1,7,-1
 1394 -391 l 1,0,-1
EndSplineSet
EndChar
StartChar: pi
Encoding: 960 960 155
Width: 1208
VWidth: 3555
Flags: W
HStem: -14 146<860.014 981.996> 917 156<162.07 292 472 800 977 1163>
VStem: 665 177<148.317 279.132>
Fore
871 431 m 2,0,1
 858 352 858 352 850 306 c 128,-1,2
 842 260 842 260 842 238 c 0,3,4
 842 177 842 177 865.5 154.5 c 128,-1,5
 889 132 889 132 946 132 c 0,6,7
 963 132 963 132 985 133.5 c 128,-1,8
 1007 135 1007 135 1049 142 c 1,9,-1
 1014 0 l 1,10,11
 967 -14 967 -14 903 -14 c 0,12,13
 665 -14 665 -14 665 189 c 0,14,15
 665 231 665 231 677 304 c 128,-1,16
 689 377 689 377 722 536 c 2,17,-1
 800 917 l 1,18,-1
 472 917 l 1,19,-1
 278 0 l 1,20,-1
 99 0 l 1,21,-1
 292 917 l 1,22,-1
 252 917 l 2,23,24
 149 917 149 917 128 779 c 1,25,-1
 -28 779 l 1,26,27
 -3 950 -3 950 68 1011.5 c 128,-1,28
 139 1073 139 1073 302 1073 c 2,29,-1
 1198 1073 l 1,30,-1
 1163 917 l 1,31,-1
 977 917 l 1,32,-1
 871 431 l 2,0,1
EndSplineSet
EndChar
StartChar: integral
Encoding: 8747 8747 156
Width: 1069
VWidth: 3555
Flags: W
HStem: -373 109<188 360.16> 1448 106<710.373 879>
VStem: 434 194<69.0625 824.912>
Fore
312 -264 m 0,0,1
 420 -264 420 -264 434 431 c 0,2,3
 434 479 434 479 434 522.5 c 128,-1,4
 434 566 434 566 437 594 c 0,5,6
 448 1106 448 1106 542.5 1330 c 128,-1,7
 637 1554 637 1554 838 1554 c 0,8,9
 920 1554 920 1554 968.5 1511.5 c 128,-1,10
 1017 1469 1017 1469 1017 1401 c 0,11,12
 1017 1286 1017 1286 899 1286 c 0,13,14
 818 1286 818 1286 790 1358 c 0,15,16
 783 1373 783 1373 777 1410.5 c 128,-1,17
 771 1448 771 1448 757 1448 c 0,18,19
 654 1448 654 1448 637 828 c 0,20,21
 634 729 634 729 634 654.5 c 128,-1,22
 634 580 634 580 628 523 c 0,23,24
 611 43 611 43 517.5 -165 c 128,-1,25
 424 -373 424 -373 227 -373 c 0,26,27
 149 -373 149 -373 98 -330.5 c 128,-1,28
 47 -288 47 -288 47 -224 c 0,29,30
 47 -102 47 -102 174 -102 c 0,31,32
 245 -102 245 -102 271 -160 c 0,33,34
 281 -177 281 -177 286.5 -220.5 c 128,-1,35
 292 -264 292 -264 312 -264 c 0,0,1
EndSplineSet
EndChar
StartChar: ordfeminine
Encoding: 170 170 157
Width: 966
VWidth: 3555
Flags: W
HStem: 469 125<139 828> 700 121<310.488 580.206> 1106 113<327.447 679> 1408 114<299.694 614.989>
VStem: 115 149<863.238 1062.05> 679 149<719 832 920.172 1106 1219 1346.49>
Fore
828 469 m 1,0,-1
 139 469 l 1,1,-1
 139 594 l 1,2,-1
 828 594 l 1,3,-1
 828 469 l 1,0,-1
679 719 m 1,4,-1
 679 832 l 1,5,6
 590 700 590 700 394 700 c 0,7,8
 267 700 267 700 191 767.5 c 128,-1,9
 115 835 115 835 115 950 c 0,10,11
 115 1219 115 1219 495 1219 c 2,12,-1
 679 1219 l 1,13,-1
 679 1224 l 2,14,15
 679 1408 679 1408 444 1408 c 0,16,17
 380 1408 380 1408 312.5 1390.5 c 128,-1,18
 245 1373 245 1373 174 1340 c 1,19,-1
 174 1465 l 1,20,21
 312 1522 312 1522 462 1522 c 0,22,23
 828 1522 828 1522 828 1167 c 2,24,-1
 828 719 l 1,25,-1
 679 719 l 1,4,-1
550 1106 m 1,26,27
 387 1106 387 1106 325.5 1074 c 128,-1,28
 264 1042 264 1042 264 960 c 0,29,30
 264 896 264 896 313.5 858.5 c 128,-1,31
 363 821 363 821 444 821 c 0,32,33
 543 821 543 821 611 892 c 128,-1,34
 679 963 679 963 679 1078 c 2,35,-1
 679 1106 l 1,36,-1
 550 1106 l 1,26,27
EndSplineSet
EndChar
StartChar: ordmasculine
Encoding: 186 186 158
Width: 966
VWidth: 3555
Flags: W
HStem: 469 125<139 828> 700 118<353.791 617.942> 1408 114<353.791 613.276>
VStem: 95 157<927.472 1296.07> 715 153<923.799 1299.78>
Fore
828 469 m 1,0,-1
 139 469 l 1,1,-1
 139 594 l 1,2,-1
 828 594 l 1,3,-1
 828 469 l 1,0,-1
484 1522 m 256,4,5
 665 1522 665 1522 766.5 1412 c 128,-1,6
 868 1302 868 1302 868 1109 c 256,7,8
 868 917 868 917 766.5 808.5 c 128,-1,9
 665 700 665 700 484 700 c 256,10,11
 302 700 302 700 198.5 808.5 c 128,-1,12
 95 917 95 917 95 1109 c 256,13,14
 95 1302 95 1302 198.5 1412 c 128,-1,15
 302 1522 302 1522 484 1522 c 256,4,5
484 1408 m 0,16,17
 380 1408 380 1408 316 1326.5 c 128,-1,18
 252 1245 252 1245 252 1109 c 0,19,20
 252 977 252 977 316 897.5 c 128,-1,21
 380 818 380 818 484 818 c 0,22,23
 590 818 590 818 652.5 897.5 c 128,-1,24
 715 977 715 977 715 1109 c 0,25,26
 715 1245 715 1245 652.5 1326.5 c 128,-1,27
 590 1408 590 1408 484 1408 c 0,16,17
EndSplineSet
EndChar
StartChar: Omega
Encoding: 937 937 159
Width: 1567
VWidth: 3555
Flags: W
HStem: 0 177<78 394 1170 1489> 1340 170<571.038 994.526>
VStem: 95 207<559.101 1056.75> 1262 210<554.258 1059.47>
Fore
889 0 m 1,0,-1
 889 177 l 1,1,2
 1069 274 1069 274 1165.5 441 c 128,-1,3
 1262 608 1262 608 1262 811 c 0,4,5
 1262 1055 1262 1055 1130 1197.5 c 128,-1,6
 998 1340 998 1340 783 1340 c 0,7,8
 569 1340 569 1340 435.5 1197.5 c 128,-1,9
 302 1055 302 1055 302 811 c 0,10,11
 302 608 302 608 402 441 c 128,-1,12
 502 274 502 274 682 177 c 1,13,-1
 682 0 l 1,14,-1
 78 0 l 1,15,-1
 78 177 l 1,16,-1
 394 177 l 1,17,18
 234 319 234 319 164.5 467 c 128,-1,19
 95 615 95 615 95 800 c 0,20,21
 95 1116 95 1116 285 1316 c 0,22,23
 476 1510 476 1510 783 1510 c 256,24,25
 1088 1510 1088 1510 1279 1316 c 256,26,27
 1472 1120 1472 1120 1472 811 c 0,28,29
 1472 615 1472 615 1401 467 c 128,-1,30
 1330 319 1330 319 1170 177 c 1,31,-1
 1489 177 l 1,32,-1
 1489 0 l 1,33,-1
 889 0 l 1,0,-1
EndSplineSet
EndChar
StartChar: ae
Encoding: 230 230 160
Width: 2015
VWidth: 3555
Flags: W
HStem: -28 153<389.24 719.085 1247.48 1689.93> 516 145<1066 1720> 566 142<418.091 885> 991 153<397.383 765.612 1224.42 1582.72>
VStem: 125 184<203.663 476.99> 1720 190<661 849.437>
Fore
1720 661 m 1,0,1
 1720 814 1720 814 1637 902.5 c 128,-1,2
 1554 991 1554 991 1418 991 c 0,3,4
 1259 991 1259 991 1168.5 906 c 128,-1,5
 1078 821 1078 821 1066 658 c 1,6,-1
 1720 661 l 1,0,1
995 963 m 1,7,8
 1069 1055 1069 1055 1176 1099.5 c 128,-1,9
 1283 1144 1283 1144 1415 1144 c 0,10,11
 1639 1144 1639 1144 1774.5 1001 c 128,-1,12
 1910 858 1910 858 1910 608 c 2,13,-1
 1910 516 l 1,14,-1
 1059 516 l 1,15,16
 1082 125 1082 125 1458 125 c 0,17,18
 1564 125 1564 125 1662 151 c 128,-1,19
 1760 177 1760 177 1863 231 c 1,20,-1
 1863 57 l 1,21,22
 1656 -28 1656 -28 1451 -28 c 0,23,24
 1106 -28 1106 -28 957 214 c 1,25,26
 807 -28 807 -28 523 -28 c 0,27,28
 330 -28 330 -28 227.5 64 c 128,-1,29
 125 156 125 156 125 326 c 0,30,31
 125 708 125 708 625 708 c 2,32,-1
 885 708 l 1,33,-1
 885 726 l 2,34,35
 885 854 885 854 802 922.5 c 128,-1,36
 719 991 719 991 569 991 c 0,37,38
 373 991 373 991 207 899 c 1,39,-1
 207 1069 l 1,40,41
 302 1109 302 1109 400 1126.5 c 128,-1,42
 498 1144 498 1144 587 1144 c 0,43,44
 729 1144 729 1144 836 1099.5 c 128,-1,45
 943 1055 943 1055 995 963 c 1,7,8
705 566 m 1,46,47
 479 566 479 566 394 514 c 128,-1,48
 309 462 309 462 309 339 c 0,49,50
 309 238 309 238 373 181.5 c 128,-1,51
 437 125 437 125 543 125 c 0,52,53
 705 125 705 125 795 233.5 c 128,-1,54
 885 342 885 342 885 523 c 2,55,-1
 885 566 l 1,56,-1
 705 566 l 1,46,47
EndSplineSet
EndChar
StartChar: oslash
Encoding: 248 248 161
Width: 1253
VWidth: 3555
Flags: W
HStem: -28 156<463.624 782.475> 991 153<468.792 789.184>
VStem: 115 194<321.21 802.758> 950 191<320.859 800.637>
Fore
417 210 m 1,0,1
 498 128 498 128 625 128 c 0,2,3
 774 128 774 128 862 243.5 c 128,-1,4
 950 359 950 359 950 562 c 0,5,6
 950 715 950 715 906 804 c 1,7,-1
 417 210 l 1,0,1
835 910 m 1,8,9
 753 991 753 991 625 991 c 0,10,11
 476 991 476 991 392.5 874 c 128,-1,12
 309 757 309 757 309 543 c 0,13,14
 309 404 309 404 349 319 c 1,15,-1
 835 910 l 1,8,9
224 163 m 1,16,17
 115 316 115 316 115 562 c 0,18,19
 115 838 115 838 247.5 991 c 128,-1,20
 380 1144 380 1144 625 1144 c 0,21,22
 722 1144 722 1144 800 1121.5 c 128,-1,23
 878 1099 878 1099 950 1049 c 1,24,-1
 1088 1215 l 1,25,-1
 1184 1134 l 1,26,-1
 1035 957 l 1,27,28
 1141 804 1141 804 1141 562 c 0,29,30
 1141 285 1141 285 1006 128.5 c 128,-1,31
 871 -28 871 -28 625 -28 c 0,32,33
 431 -28 431 -28 309 75 c 1,34,-1
 167 -95 l 1,35,-1
 75 -14 l 1,36,-1
 224 163 l 1,16,17
EndSplineSet
EndChar
StartChar: questiondown
Encoding: 191 191 162
Width: 1086
VWidth: 3555
Flags: W
HStem: -28 163<426.401 749.352> 1241 252<495 696>
VStem: 142 207<211.005 422.443> 495 201<1241 1493> 502 187<888.428 1095>
Fore
689 939 m 2,0,1
 689 838 689 838 663 773 c 128,-1,2
 637 708 637 708 543 618 c 2,3,-1
 458 529 l 2,4,5
 394 476 394 476 371.5 428 c 128,-1,6
 349 380 349 380 349 335 c 0,7,8
 349 245 349 245 412.5 190 c 128,-1,9
 476 135 476 135 587 135 c 0,10,11
 665 135 665 135 755 171 c 128,-1,12
 845 207 845 207 943 271 c 1,13,-1
 943 85 l 1,14,15
 845 24 845 24 749.5 -2 c 128,-1,16
 654 -28 654 -28 554 -28 c 0,17,18
 370 -28 370 -28 256 67.5 c 128,-1,19
 142 163 142 163 142 323 c 0,20,21
 142 398 142 398 179.5 467 c 128,-1,22
 217 536 217 536 302 621 c 2,23,-1
 391 712 l 2,24,25
 444 757 444 757 461.5 784 c 128,-1,26
 479 811 479 811 488 835 c 0,27,28
 495 858 495 858 498.5 887.5 c 128,-1,29
 502 917 502 917 502 970 c 2,30,-1
 502 1095 l 1,31,-1
 689 1095 l 1,32,-1
 689 939 l 2,0,1
495 1493 m 1,33,-1
 696 1493 l 1,34,-1
 696 1241 l 1,35,-1
 495 1241 l 1,36,-1
 495 1493 l 1,33,-1
EndSplineSet
EndChar
StartChar: exclamdown
Encoding: 161 161 163
Width: 824
VWidth: 3555
Flags: W
HStem: 0 21G<309 512> 1241 252<309 512>
VStem: 309 203<0 759.326 1241 1493>
Fore
309 1493 m 1,0,-1
 512 1493 l 1,1,-1
 512 1241 l 1,2,-1
 309 1241 l 1,3,-1
 309 1493 l 1,0,-1
309 654 m 1,4,-1
 330 1014 l 1,5,-1
 495 1014 l 1,6,-1
 512 654 l 1,7,-1
 512 0 l 1,8,-1
 309 0 l 1,9,-1
 309 654 l 1,4,-1
EndSplineSet
EndChar
StartChar: logicalnot
Encoding: 172 172 164
Width: 1716
VWidth: 3555
Flags: W
HStem: 693 172<220 1333>
VStem: 1333 167<288 693>
Fore
1500 288 m 1,0,-1
 1333 288 l 1,1,-1
 1333 693 l 1,2,-1
 220 693 l 1,3,-1
 220 865 l 1,4,-1
 1500 865 l 1,5,-1
 1500 288 l 1,0,-1
EndSplineSet
EndChar
StartChar: radical
Encoding: 8730 8730 165
Width: 1307
VWidth: 3555
Flags: W
HStem: 1568 95<1191 1309>
Fore
1309 1568 m 1,0,-1
 1191 1568 l 1,1,-1
 597 -40 l 1,2,-1
 529 -40 l 1,3,-1
 214 842 l 1,4,-1
 85 800 l 1,5,-1
 64 878 l 1,6,-1
 345 977 l 1,7,-1
 601 267 l 1,8,-1
 1116 1663 l 1,9,-1
 1309 1663 l 1,10,-1
 1309 1568 l 1,0,-1
EndSplineSet
EndChar
StartChar: florin
Encoding: 402 402 166
Width: 1303
VWidth: 3555
Flags: W
HStem: -431 150<163.891 355.445> 708 141<356 604 828 1113> 1358 21G<1247 1286> 1415 142<988.387 1266.01>
Fore
1286 1358 m 1,0,1
 1208 1415 1208 1415 1120 1415 c 0,2,3
 936 1415 936 1415 885 1163 c 2,4,-1
 828 849 l 1,5,-1
 1113 849 l 1,6,-1
 1113 708 l 1,7,-1
 797 708 l 1,8,-1
 668 71 l 2,9,10
 641 -75 641 -75 603.5 -171 c 128,-1,11
 566 -267 566 -267 515.5 -325.5 c 128,-1,12
 465 -384 465 -384 395.5 -407.5 c 128,-1,13
 326 -431 326 -431 234 -431 c 0,14,15
 177 -431 177 -431 127.5 -417.5 c 128,-1,16
 78 -404 78 -404 28 -380 c 1,17,-1
 28 -220 l 1,18,19
 82 -248 82 -248 129.5 -264.5 c 128,-1,20
 177 -281 177 -281 227 -281 c 0,21,22
 323 -281 323 -281 378.5 -213.5 c 128,-1,23
 434 -146 434 -146 469 17 c 2,24,-1
 604 708 l 1,25,-1
 356 708 l 1,26,-1
 356 849 l 1,27,-1
 637 849 l 1,28,-1
 700 1180 l 2,29,30
 736 1361 736 1361 836 1459 c 128,-1,31
 936 1557 936 1557 1085 1557 c 0,32,33
 1194 1557 1194 1557 1286 1522 c 1,34,-1
 1286 1358 l 1,0,1
EndSplineSet
EndChar
StartChar: approxequal
Encoding: 8776 8776 167
Width: 1716
VWidth: 3555
Flags: W
HStem: 295 167<937.129 1305.52> 434 167<409.994 778.732> 689 165<939.209 1305.52> 825 163<409.994 773.633>
Fore
1500 448 m 1,0,1
 1394 366 1394 366 1304.5 330.5 c 128,-1,2
 1215 295 1215 295 1120 295 c 0,3,4
 1017 295 1017 295 865 356 c 0,5,6
 842 363 842 363 845 363 c 1,7,8
 842 370 842 370 825 373 c 2,9,10
 661 434 661 434 576 434 c 0,11,12
 488 434 488 434 402 395 c 128,-1,13
 316 356 316 356 220 271 c 1,14,-1
 220 455 l 1,15,16
 323 529 323 529 412.5 565 c 128,-1,17
 502 601 502 601 601 601 c 0,18,19
 708 601 708 601 858 536 c 1,20,21
 861 533 861 533 871 533 c 1,22,23
 878 529 878 529 892 523 c 0,24,25
 1055 462 1055 462 1141 462 c 256,26,27
 1227 462 1227 462 1312 499 c 128,-1,28
 1397 536 1397 536 1500 621 c 1,29,-1
 1500 448 l 1,0,1
1500 835 m 1,30,31
 1394 757 1394 757 1304.5 723 c 128,-1,32
 1215 689 1215 689 1120 689 c 0,33,34
 998 689 998 689 865 746 c 0,35,36
 849 753 849 753 845 753 c 1,37,38
 845 757 845 757 842 757 c 256,39,40
 838 757 838 757 835 758.5 c 128,-1,41
 832 760 832 760 825 760 c 1,42,43
 672 825 672 825 576 825 c 0,44,45
 488 825 488 825 402 785.5 c 128,-1,46
 316 746 316 746 220 661 c 1,47,-1
 220 838 l 1,48,49
 323 920 323 920 412.5 954 c 128,-1,50
 502 988 502 988 601 988 c 0,51,52
 719 988 719 988 858 932 c 1,53,54
 865 924 865 924 871 924 c 1,55,56
 875 920 875 920 878 920 c 0,57,58
 885 920 885 920 892 917 c 0,59,60
 1049 854 1049 854 1141 854 c 0,61,62
 1227 854 1227 854 1312 891.5 c 128,-1,63
 1397 929 1397 929 1500 1014 c 1,64,-1
 1500 835 l 1,30,31
EndSplineSet
EndChar
StartChar: Delta
Encoding: 8710 8710 168
Width: 1371
VWidth: 3555
Flags: W
HStem: 0 177<267 1102>
Fore
1102 177 m 1,0,-1
 686 1262 l 1,1,-1
 267 177 l 1,2,-1
 1102 177 l 1,0,-1
1377 0 m 1,3,-1
 -3 0 l 1,4,-1
 576 1476 l 1,5,-1
 800 1476 l 1,6,-1
 1377 0 l 1,3,-1
EndSplineSet
EndChar
StartChar: guillemotleft
Encoding: 171 171 169
Width: 1253
VWidth: 3555
Flags: W
HStem: 142 920<1062 1062>
VStem: 156 906<335 562>
Fore
760 601 m 1,0,-1
 1062 335 l 1,1,-1
 1062 142 l 1,2,-1
 594 562 l 1,3,-1
 594 641 l 1,4,-1
 1062 1062 l 1,5,-1
 1062 868 l 1,6,-1
 760 601 l 1,0,-1
326 601 m 1,7,-1
 625 335 l 1,8,-1
 625 142 l 1,9,-1
 156 562 l 1,10,-1
 156 641 l 1,11,-1
 625 1062 l 1,12,-1
 625 868 l 1,13,-1
 326 601 l 1,7,-1
EndSplineSet
EndChar
StartChar: guillemotright
Encoding: 187 187 170
Width: 1253
VWidth: 3555
Flags: W
HStem: 142 920<196 196>
VStem: 196 903<142 562>
Fore
661 562 m 1,0,-1
 196 142 l 1,1,-1
 196 335 l 1,2,-1
 495 601 l 1,3,-1
 196 868 l 1,4,-1
 196 1062 l 1,5,-1
 661 641 l 1,6,-1
 661 562 l 1,0,-1
1099 562 m 1,7,-1
 625 142 l 1,8,-1
 625 335 l 1,9,-1
 932 601 l 1,10,-1
 625 868 l 1,11,-1
 625 1062 l 1,12,-1
 1099 641 l 1,13,-1
 1099 562 l 1,7,-1
EndSplineSet
EndChar
StartChar: ellipsis
Encoding: 8230 8230 171
Width: 2050
VWidth: 3555
Flags: W
HStem: 0 252<234 451 920 1130 1601 1818>
VStem: 234 217<0 252> 920 210<0 252> 1601 217<0 252>
Fore
1130 0 m 1,0,-1
 920 0 l 1,1,-1
 920 252 l 1,2,-1
 1130 252 l 1,3,-1
 1130 0 l 1,0,-1
1818 0 m 1,4,-1
 1601 0 l 1,5,-1
 1601 252 l 1,6,-1
 1818 252 l 1,7,-1
 1818 0 l 1,4,-1
451 0 m 1,8,-1
 234 0 l 1,9,-1
 234 252 l 1,10,-1
 451 252 l 1,11,-1
 451 0 l 1,8,-1
EndSplineSet
EndChar
StartChar: Agrave
Encoding: 192 192 173
Width: 1399
VWidth: 3555
Flags: W
HStem: 0 21G<14 238.105 1169.89 1384> 380 174<431 977> 1473 20G<579.324 825.582>
Fore
977 554 m 1,0,-1
 700 1299 l 1,1,-1
 431 554 l 1,2,-1
 977 554 l 1,0,-1
1384 0 m 1,3,-1
 1177 0 l 1,4,-1
 1042 380 l 1,5,-1
 366 380 l 1,6,-1
 231 0 l 1,7,-1
 14 0 l 1,8,-1
 587 1493 l 1,9,-1
 818 1493 l 1,10,-1
 1384 0 l 1,3,-1
686 1635 m 1,11,-1
 455 1903 l 1,12,-1
 648 1903 l 1,13,-1
 838 1635 l 1,14,-1
 686 1635 l 1,11,-1
EndSplineSet
EndChar
StartChar: Atilde
Encoding: 195 195 174
Width: 1399
VWidth: 3555
Flags: W
HStem: 0 21G<14 238.105 1169.89 1384> 380 174<431 977> 1473 20G<579.324 825.582> 1672 120<774.058 899.583> 1672 215<437.223 498 906 965.539> 1767 120<504.922 610.056>
VStem: 373 125<1672 1762.6> 906 125<1798.25 1887>
Fore
977 554 m 1,0,-1
 700 1299 l 1,1,-1
 431 554 l 1,2,-1
 977 554 l 1,0,-1
1384 0 m 1,3,-1
 1177 0 l 1,4,-1
 1042 380 l 1,5,-1
 366 380 l 1,6,-1
 231 0 l 1,7,-1
 14 0 l 1,8,-1
 587 1493 l 1,9,-1
 818 1493 l 1,10,-1
 1384 0 l 1,3,-1
644 1746 m 1,11,12
 597 1767 597 1767 569 1767 c 0,13,14
 498 1767 498 1767 498 1675 c 2,15,-1
 498 1672 l 1,16,-1
 373 1672 l 1,17,18
 373 1767 373 1767 422.5 1827 c 128,-1,19
 472 1887 472 1887 562 1887 c 0,20,21
 594 1887 594 1887 626 1878.5 c 128,-1,22
 658 1870 658 1870 705 1845 c 2,23,-1
 764 1818 l 1,24,25
 800 1792 800 1792 832 1792 c 0,26,27
 906 1792 906 1792 906 1880 c 2,28,-1
 906 1887 l 1,29,-1
 1031 1887 l 1,30,31
 1028 1788 1028 1788 978.5 1730 c 128,-1,32
 929 1672 929 1672 842 1672 c 0,33,34
 807 1672 807 1672 778.5 1679 c 128,-1,35
 750 1686 750 1686 696 1713 c 2,36,-1
 644 1746 l 1,11,12
EndSplineSet
EndChar
StartChar: Otilde
Encoding: 213 213 175
Width: 1612
VWidth: 3555
Flags: W
HStem: -28 163<606.837 1013.46> 1358 164<606.837 1011.35> 1672 120<880.974 1006.95> 1672 215<544.445 604 1014 1071.57> 1767 120<611.432 716.554>
VStem: 115 215<454.666 1034.75> 479 125<1672 1762.6> 1014 123<1798.25 1887> 1286 210<453.478 1033.73>
Fore
811 1358 m 0,0,1
 587 1358 587 1358 458.5 1193 c 128,-1,2
 330 1028 330 1028 330 746 c 0,3,4
 330 458 330 458 458.5 296.5 c 128,-1,5
 587 135 587 135 811 135 c 0,6,7
 1028 135 1028 135 1157 296.5 c 128,-1,8
 1286 458 1286 458 1286 746 c 0,9,10
 1286 1028 1286 1028 1157 1193 c 128,-1,11
 1028 1358 1028 1358 811 1358 c 0,0,1
811 1522 m 0,12,13
 967 1522 967 1522 1093 1466.5 c 128,-1,14
 1219 1411 1219 1411 1310 1309.5 c 128,-1,15
 1401 1208 1401 1208 1448.5 1066 c 128,-1,16
 1496 924 1496 924 1496 746 c 0,17,18
 1496 573 1496 573 1448.5 429 c 128,-1,19
 1401 285 1401 285 1310 183.5 c 128,-1,20
 1219 82 1219 82 1093 27 c 128,-1,21
 967 -28 967 -28 811 -28 c 0,22,23
 495 -28 495 -28 302 181 c 0,24,25
 115 391 115 391 115 746 c 0,26,27
 115 1099 115 1099 302 1309 c 0,28,29
 495 1522 495 1522 811 1522 c 0,12,13
750 1746 m 1,30,31
 705 1767 705 1767 675 1767 c 0,32,33
 604 1767 604 1767 604 1675 c 2,34,-1
 604 1672 l 1,35,-1
 479 1672 l 1,36,37
 479 1767 479 1767 529.5 1827 c 128,-1,38
 580 1887 580 1887 668 1887 c 0,39,40
 700 1887 700 1887 732 1878.5 c 128,-1,41
 764 1870 764 1870 811 1845 c 2,42,-1
 871 1818 l 1,43,44
 906 1792 906 1792 939 1792 c 0,45,46
 1014 1792 1014 1792 1014 1880 c 2,47,-1
 1014 1887 l 1,48,-1
 1137 1887 l 1,49,50
 1134 1788 1134 1788 1084.5 1730 c 128,-1,51
 1035 1672 1035 1672 950 1672 c 0,52,53
 913 1672 913 1672 885.5 1679 c 128,-1,54
 858 1686 858 1686 804 1713 c 2,55,-1
 750 1746 l 1,30,31
EndSplineSet
EndChar
StartChar: OE
Encoding: 338 338 176
Width: 2192
VWidth: 3555
Flags: W
HStem: 0 167<675.156 1099 1302 2062> 712 170<1302 2015> 1326 167<675.156 1099 1302 2048>
VStem: 115 215<494.938 1002> 1099 203<167 712 882 1326>
Fore
1302 1326 m 1,0,-1
 1302 882 l 1,1,-1
 2015 882 l 1,2,-1
 2015 712 l 1,3,-1
 1302 712 l 1,4,-1
 1302 167 l 1,5,-1
 2062 167 l 1,6,-1
 2062 0 l 1,7,-1
 995 0 l 2,8,9
 566 0 566 0 340.5 186.5 c 128,-1,10
 115 373 115 373 115 750 c 0,11,12
 115 1116 115 1116 340.5 1304.5 c 128,-1,13
 566 1493 566 1493 995 1493 c 2,14,-1
 2048 1493 l 1,15,-1
 2048 1326 l 1,16,-1
 1302 1326 l 1,0,-1
970 1326 m 1,17,18
 330 1326 330 1326 330 750 c 0,19,20
 330 167 330 167 970 167 c 2,21,-1
 1099 167 l 1,22,-1
 1099 1326 l 1,23,-1
 970 1326 l 1,17,18
EndSplineSet
EndChar
StartChar: oe
Encoding: 339 339 177
Width: 2097
VWidth: 3555
Flags: W
HStem: -28 156<468.792 784.901 1331.99 1812.55> 516 145<1144 1805> 991 153<463.886 784.108 1312.43 1664.89>
VStem: 115 194<313.079 809.104> 1805 183<661 843.427>
Fore
1805 661 m 1,0,1
 1802 814 1802 814 1718.5 902.5 c 128,-1,2
 1635 991 1635 991 1500 991 c 0,3,4
 1347 991 1347 991 1255 906 c 128,-1,5
 1163 821 1163 821 1144 658 c 1,6,-1
 1805 661 l 1,0,1
1141 516 m 1,7,8
 1153 323 1153 323 1255.5 225.5 c 128,-1,9
 1358 128 1358 128 1543 128 c 0,10,11
 1753 128 1753 128 1948 231 c 1,12,-1
 1948 57 l 1,13,14
 1743 -28 1743 -28 1533 -28 c 0,15,16
 1215 -28 1215 -28 1049 193 c 1,17,18
 903 -28 903 -28 625 -28 c 0,19,20
 380 -28 380 -28 247.5 128.5 c 128,-1,21
 115 285 115 285 115 562 c 256,22,23
 115 838 115 838 247.5 991 c 128,-1,24
 380 1144 380 1144 625 1144 c 0,25,26
 917 1144 917 1144 1049 932 c 1,27,28
 1123 1035 1123 1035 1238.5 1089.5 c 128,-1,29
 1354 1144 1354 1144 1496 1144 c 0,30,31
 1724 1144 1724 1144 1856 1001 c 128,-1,32
 1988 858 1988 858 1988 608 c 2,33,-1
 1988 516 l 1,34,-1
 1141 516 l 1,7,8
625 991 m 256,35,36
 476 991 476 991 392.5 877.5 c 128,-1,37
 309 764 309 764 309 562 c 256,38,39
 309 359 309 359 392.5 243.5 c 128,-1,40
 476 128 476 128 625 128 c 256,41,42
 774 128 774 128 862 243.5 c 128,-1,43
 950 359 950 359 950 562 c 0,44,45
 950 757 950 757 862 874 c 128,-1,46
 774 991 774 991 625 991 c 256,35,36
EndSplineSet
EndChar
StartChar: endash
Encoding: 8211 8211 178
Width: 1022
VWidth: 3555
Flags: W
HStem: 491 143<0 1024>
Fore
1024 491 m 1,0,-1
 0 491 l 1,1,-1
 0 634 l 1,2,-1
 1024 634 l 1,3,-1
 1024 491 l 1,0,-1
EndSplineSet
EndChar
StartChar: emdash
Encoding: 8212 8212 179
Width: 2050
VWidth: 3555
Flags: W
HStem: 491 143<0 2052>
Fore
2052 491 m 1,0,-1
 0 491 l 1,1,-1
 0 634 l 1,2,-1
 2052 634 l 1,3,-1
 2052 491 l 1,0,-1
EndSplineSet
EndChar
StartChar: quotedblleft
Encoding: 8220 8220 180
Width: 1062
VWidth: 3555
Flags: W
HStem: 1473 20G<328.304 469 739.684 878>
VStem: 170 214<1003 1177> 587 210<1003 1177>
Fore
170 1177 m 1,0,-1
 339 1493 l 1,1,-1
 469 1493 l 1,2,-1
 384 1177 l 1,3,-1
 384 1003 l 1,4,-1
 170 1003 l 1,5,-1
 170 1177 l 1,0,-1
587 1177 m 1,6,-1
 750 1493 l 1,7,-1
 878 1493 l 1,8,-1
 797 1177 l 1,9,-1
 797 1003 l 1,10,-1
 587 1003 l 1,11,-1
 587 1177 l 1,6,-1
EndSplineSet
EndChar
StartChar: quotedblright
Encoding: 8221 8221 181
Width: 1062
VWidth: 3555
Flags: W
HStem: 1473 20G<255 469 665 878>
VStem: 255 214<1323 1493> 665 213<1323 1493>
Fore
469 1323 m 1,0,-1
 302 1003 l 1,1,-1
 170 1003 l 1,2,-1
 255 1323 l 1,3,-1
 255 1493 l 1,4,-1
 469 1493 l 1,5,-1
 469 1323 l 1,0,-1
878 1323 m 1,6,-1
 715 1003 l 1,7,-1
 587 1003 l 1,8,-1
 665 1323 l 1,9,-1
 665 1493 l 1,10,-1
 878 1493 l 1,11,-1
 878 1323 l 1,6,-1
EndSplineSet
EndChar
StartChar: quoteleft
Encoding: 8216 8216 182
Width: 649
VWidth: 3555
Flags: W
HStem: 1473 20G<328.304 469>
VStem: 170 214<1003 1177>
Fore
170 1177 m 1,0,-1
 339 1493 l 1,1,-1
 469 1493 l 1,2,-1
 384 1177 l 1,3,-1
 384 1003 l 1,4,-1
 170 1003 l 1,5,-1
 170 1177 l 1,0,-1
EndSplineSet
EndChar
StartChar: quoteright
Encoding: 8217 8217 183
Width: 649
VWidth: 3555
Flags: W
HStem: 1473 20G<260 472>
VStem: 260 212<1344 1493>
Fore
472 1344 m 1,0,-1
 309 1021 l 1,1,-1
 177 1021 l 1,2,-1
 260 1344 l 1,3,-1
 260 1493 l 1,4,-1
 472 1493 l 1,5,-1
 472 1344 l 1,0,-1
EndSplineSet
EndChar
StartChar: divide
Encoding: 247 247 184
Width: 1716
VWidth: 3555
Flags: W
HStem: 149 245<736 981> 559 170<220 1500> 889 248<736 981>
VStem: 736 245<149 394 889 1137>
Fore
981 889 m 1,0,-1
 736 889 l 1,1,-1
 736 1137 l 1,2,-1
 981 1137 l 1,3,-1
 981 889 l 1,0,-1
981 149 m 1,4,-1
 736 149 l 1,5,-1
 736 394 l 1,6,-1
 981 394 l 1,7,-1
 981 149 l 1,4,-1
1500 559 m 1,8,-1
 220 559 l 1,9,-1
 220 729 l 1,10,-1
 1500 729 l 1,11,-1
 1500 559 l 1,8,-1
EndSplineSet
EndChar
StartChar: lozenge
Encoding: 9674 9674 185
Width: 1012
VWidth: 3555
Flags: W
VStem: 3 1004<594 594>
Fore
505 -231 m 1,0,-1
 892 594 l 1,1,-1
 505 1411 l 1,2,-1
 122 594 l 1,3,-1
 505 -231 l 1,0,-1
505 -476 m 1,4,-1
 3 594 l 1,5,-1
 505 1656 l 1,6,-1
 1007 594 l 1,7,-1
 505 -476 l 1,4,-1
EndSplineSet
EndChar
StartChar: ydieresis
Encoding: 255 255 186
Width: 1215
VWidth: 3555
Flags: W
HStem: -431 160<160 338.545> 1100 20G<64 263.069 949.023 1153> 1351 203<312 512 705 906>
VStem: 312 200<1351 1554> 705 201<1351 1554>
Fore
658 -102 m 1,0,1
 621 -203 621 -203 585.5 -266.5 c 128,-1,2
 550 -330 550 -330 509.5 -365.5 c 128,-1,3
 469 -401 469 -401 419.5 -416 c 128,-1,4
 370 -431 370 -431 309 -431 c 2,5,-1
 160 -431 l 1,6,-1
 160 -271 l 1,7,-1
 271 -271 l 2,8,9
 309 -271 309 -271 339.5 -265.5 c 128,-1,10
 370 -260 370 -260 393.5 -238.5 c 128,-1,11
 417 -217 417 -217 437.5 -178 c 128,-1,12
 458 -139 458 -139 479 -68 c 2,13,-1
 516 17 l 1,14,-1
 64 1120 l 1,15,-1
 255 1120 l 1,16,-1
 608 245 l 1,17,-1
 957 1120 l 1,18,-1
 1153 1120 l 1,19,-1
 658 -102 l 1,0,1
906 1351 m 1,20,-1
 705 1351 l 1,21,-1
 705 1554 l 1,22,-1
 906 1554 l 1,23,-1
 906 1351 l 1,20,-1
512 1351 m 1,24,-1
 312 1351 l 1,25,-1
 312 1554 l 1,26,-1
 512 1554 l 1,27,-1
 512 1351 l 1,24,-1
EndSplineSet
EndChar
StartChar: Ydieresis
Encoding: 376 376 187
Width: 1249
VWidth: 3555
Flags: W
HStem: 0 21G<523 729> 1473 20G<-3 227.366 1028.44 1255> 1672 198<330 529 722 924>
VStem: 330 199<1672 1870> 523 206<0 712> 722 202<1672 1870>
Fore
625 878 m 1,0,-1
 1042 1493 l 1,1,-1
 1255 1493 l 1,2,-1
 729 712 l 1,3,-1
 729 0 l 1,4,-1
 523 0 l 1,5,-1
 523 712 l 1,6,-1
 -3 1493 l 1,7,-1
 214 1493 l 1,8,-1
 625 878 l 1,0,-1
924 1672 m 1,9,-1
 722 1672 l 1,10,-1
 722 1870 l 1,11,-1
 924 1870 l 1,12,-1
 924 1672 l 1,9,-1
529 1672 m 1,13,-1
 330 1672 l 1,14,-1
 330 1870 l 1,15,-1
 529 1870 l 1,16,-1
 529 1672 l 1,13,-1
EndSplineSet
EndChar
StartChar: fraction
Encoding: 8725 8725 188
Width: 1293
VWidth: 3555
Flags: W
Fore
1160 1564 m 1,0,-1
 335 -200 l 1,1,-1
 135 -200 l 1,2,-1
 960 1564 l 1,3,-1
 1160 1564 l 1,0,-1
EndSplineSet
EndChar
StartChar: currency
Encoding: 164 164 189
Width: 1293
VWidth: 3555
Flags: W
HStem: 316 132<548.465 822.131> 899 132<553.301 818.586> 1124 20G<292.202 331.887 1039 1078.6>
VStem: 326 132<537.648 806.741> 910 132<536.923 807.869>
Fore
910 675 m 256,0,1
 910 767 910 767 845 832 c 0,2,3
 779 899 779 899 686 899 c 256,4,5
 594 899 594 899 526 832 c 0,6,7
 458 767 458 767 458 675 c 0,8,9
 458 576 458 576 526 512 c 0,10,11
 590 448 590 448 686 448 c 256,12,13
 783 448 783 448 845 512 c 0,14,15
 910 583 910 583 910 675 c 256,0,1
1059 1144 m 1,16,-1
 1156 1045 l 1,17,-1
 981 871 l 1,18,19
 1042 767 1042 767 1042 672 c 0,20,21
 1042 573 1042 573 977 476 c 1,22,-1
 1156 302 l 1,23,-1
 1055 207 l 1,24,-1
 882 380 l 1,25,26
 786 316 786 316 686 316 c 256,27,28
 587 316 587 316 484 377 c 1,29,-1
 312 207 l 1,30,-1
 214 299 l 1,31,-1
 387 472 l 1,32,33
 326 573 326 573 326 672 c 0,34,35
 326 774 326 774 391 871 c 1,36,-1
 214 1045 l 1,37,-1
 312 1144 l 1,38,-1
 488 967 l 1,39,40
 583 1031 583 1031 686 1031 c 0,41,42
 774 1031 774 1031 885 970 c 1,43,-1
 1059 1144 l 1,16,-1
EndSplineSet
EndChar
StartChar: guilsinglleft
Encoding: 8249 8249 190
Width: 821
VWidth: 3555
Flags: W
HStem: 142 920<625 625>
VStem: 156 469<335 562>
Fore
326 601 m 1,0,-1
 625 335 l 1,1,-1
 625 142 l 1,2,-1
 156 562 l 1,3,-1
 156 641 l 1,4,-1
 625 1062 l 1,5,-1
 625 868 l 1,6,-1
 326 601 l 1,0,-1
EndSplineSet
EndChar
StartChar: guilsinglright
Encoding: 8250 8250 191
Width: 821
VWidth: 3555
Flags: W
HStem: 142 920<196 196>
VStem: 196 465<142 562>
Fore
661 562 m 1,0,-1
 196 142 l 1,1,-1
 196 335 l 1,2,-1
 495 601 l 1,3,-1
 196 868 l 1,4,-1
 196 1062 l 1,5,-1
 661 641 l 1,6,-1
 661 562 l 1,0,-1
EndSplineSet
EndChar
StartChar: fi
Encoding: 64257 64257 192
Width: 1293
VWidth: 3555
Flags: W
HStem: 0 21G<224 404 917 1099> 977 143<47 224 404 917> 1323 234<917 1099> 1408 149<447.326 760>
VStem: 224 180<0 977 1120 1365.7> 917 182<0 977 1323 1557>
Fore
917 0 m 1,0,-1
 917 977 l 1,1,-1
 404 977 l 1,2,-1
 404 0 l 1,3,-1
 224 0 l 1,4,-1
 224 977 l 1,5,-1
 47 977 l 1,6,-1
 47 1120 l 1,7,-1
 224 1120 l 1,8,-1
 224 1201 l 2,9,10
 224 1384 224 1384 309 1470.5 c 128,-1,11
 394 1557 394 1557 576 1557 c 2,12,-1
 760 1557 l 1,13,-1
 760 1408 l 1,14,-1
 587 1408 l 2,15,16
 488 1408 488 1408 446 1367 c 128,-1,17
 404 1326 404 1326 404 1219 c 2,18,-1
 404 1120 l 1,19,-1
 1099 1120 l 1,20,-1
 1099 0 l 1,21,-1
 917 0 l 1,0,-1
1099 1323 m 1,22,-1
 917 1323 l 1,23,-1
 917 1557 l 1,24,-1
 1099 1557 l 1,25,-1
 1099 1323 l 1,22,-1
EndSplineSet
Ligature2: "'liga' Standard Ligatures in Latin lookup 19 subtable" f i
EndChar
StartChar: fl
Encoding: 64258 64258 193
Width: 1293
VWidth: 3555
Flags: W
HStem: 0 21G<224 404 917 1099> 977 143<47 224 404 712> 1408 149<447.326 917>
VStem: 224 180<0 977 1120 1365.7> 917 182<0 1408>
Fore
1099 0 m 1,0,-1
 917 0 l 1,1,-1
 917 1408 l 1,2,-1
 587 1408 l 2,3,4
 488 1408 488 1408 446 1367 c 128,-1,5
 404 1326 404 1326 404 1219 c 2,6,-1
 404 1120 l 1,7,-1
 712 1120 l 1,8,-1
 712 977 l 1,9,-1
 404 977 l 1,10,-1
 404 0 l 1,11,-1
 224 0 l 1,12,-1
 224 977 l 1,13,-1
 47 977 l 1,14,-1
 47 1120 l 1,15,-1
 224 1120 l 1,16,-1
 224 1201 l 2,17,18
 224 1387 224 1387 309 1472 c 128,-1,19
 394 1557 394 1557 587 1557 c 2,20,-1
 1099 1557 l 1,21,-1
 1099 0 l 1,0,-1
EndSplineSet
Ligature2: "'liga' Standard Ligatures in Latin lookup 19 subtable" f l
EndChar
StartChar: daggerdbl
Encoding: 8225 8225 194
Width: 1022
VWidth: 3555
Flags: W
HStem: 224 153<57 424 601 970> 920 153<57 424 601 970> 1473 20G<424 601>
VStem: 424 177<-200 224 377 920 1073 1493>
Fore
601 -200 m 1,0,-1
 424 -200 l 1,1,-1
 424 224 l 1,2,-1
 57 224 l 1,3,-1
 57 377 l 1,4,-1
 424 377 l 1,5,-1
 424 920 l 1,6,-1
 57 920 l 1,7,-1
 57 1073 l 1,8,-1
 424 1073 l 1,9,-1
 424 1493 l 1,10,-1
 601 1493 l 1,11,-1
 601 1073 l 1,12,-1
 970 1073 l 1,13,-1
 970 920 l 1,14,-1
 601 920 l 1,15,-1
 601 377 l 1,16,-1
 970 377 l 1,17,-1
 970 224 l 1,18,-1
 601 224 l 1,19,-1
 601 -200 l 1,0,-1
EndSplineSet
EndChar
StartChar: periodcentered
Encoding: 183 183 195
Width: 649
VWidth: 3555
Flags: W
HStem: 587 251<220 434>
VStem: 220 214<587 838>
Fore
434 587 m 1,0,-1
 220 587 l 1,1,-1
 220 838 l 1,2,-1
 434 838 l 1,3,-1
 434 587 l 1,0,-1
EndSplineSet
EndChar
StartChar: quotesinglbase
Encoding: 8218 8218 196
Width: 649
VWidth: 3555
Flags: W
VStem: 255 214<82 252>
Fore
469 82 m 1,0,-1
 302 -238 l 1,1,-1
 170 -238 l 1,2,-1
 255 82 l 1,3,-1
 255 252 l 1,4,-1
 469 252 l 1,5,-1
 469 82 l 1,0,-1
EndSplineSet
EndChar
StartChar: quotedblbase
Encoding: 8222 8222 197
Width: 1062
VWidth: 3555
Flags: W
VStem: 255 214<82 252> 665 213<82 252>
Fore
878 82 m 1,0,-1
 715 -238 l 1,1,-1
 587 -238 l 1,2,-1
 665 82 l 1,3,-1
 665 252 l 1,4,-1
 878 252 l 1,5,-1
 878 82 l 1,0,-1
469 82 m 1,6,-1
 302 -238 l 1,7,-1
 170 -238 l 1,8,-1
 255 82 l 1,9,-1
 255 252 l 1,10,-1
 469 252 l 1,11,-1
 469 82 l 1,6,-1
EndSplineSet
EndChar
StartChar: perthousand
Encoding: 8240 8240 198
Width: 2751
VWidth: 3555
Flags: W
HStem: -28 127<1379.03 1599.58 2183.17 2407.1> 658 125<1379.03 1599.58 2184.09 2403.97> 708 127<346.995 568.361> 1394 128<348.172 564.541>
VStem: 115 156<917.112 1310.03> 644 163<920.556 1306.64> 1144 161<180.043 575.034> 1679 156<184.412 570.591> 1948 160<181.355 573.963> 2477 165<180.043 578.788>
Fore
2297 658 m 0,0,1
 2208 658 2208 658 2158 583.5 c 128,-1,2
 2108 509 2108 509 2108 377 c 256,3,4
 2108 245 2108 245 2158 172 c 128,-1,5
 2208 99 2208 99 2297 99 c 0,6,7
 2382 99 2382 99 2429.5 172 c 128,-1,8
 2477 245 2477 245 2477 377 c 256,9,10
 2477 509 2477 509 2429.5 583.5 c 128,-1,11
 2382 658 2382 658 2297 658 c 0,0,1
2297 783 m 0,12,13
 2456 783 2456 783 2549 676 c 128,-1,14
 2642 569 2642 569 2642 377 c 0,15,16
 2642 193 2642 193 2545.5 82.5 c 128,-1,17
 2449 -28 2449 -28 2297 -28 c 0,18,19
 2134 -28 2134 -28 2041 82.5 c 128,-1,20
 1948 193 1948 193 1948 377 c 0,21,22
 1948 569 1948 569 2041 676 c 128,-1,23
 2134 783 2134 783 2297 783 c 0,12,13
458 1522 m 256,24,25
 618 1522 618 1522 712.5 1415.5 c 128,-1,26
 807 1309 807 1309 807 1116 c 256,27,28
 807 924 807 924 712.5 816 c 128,-1,29
 618 708 618 708 458 708 c 256,30,31
 299 708 299 708 207 816 c 128,-1,32
 115 924 115 924 115 1116 c 0,33,34
 115 1302 115 1302 207 1412 c 128,-1,35
 299 1522 299 1522 458 1522 c 256,24,25
587 -28 m 1,36,-1
 431 -28 l 1,37,-1
 1361 1522 l 1,38,-1
 1522 1522 l 1,39,-1
 587 -28 l 1,36,-1
458 1394 m 0,40,41
 373 1394 373 1394 322 1319.5 c 128,-1,42
 271 1245 271 1245 271 1116 c 0,43,44
 271 984 271 984 320.5 909.5 c 128,-1,45
 370 835 370 835 458 835 c 0,46,47
 543 835 543 835 593.5 909.5 c 128,-1,48
 644 984 644 984 644 1116 c 0,49,50
 644 1245 644 1245 592 1319.5 c 128,-1,51
 540 1394 540 1394 458 1394 c 0,40,41
1489 783 m 256,52,53
 1649 783 1649 783 1742 676 c 128,-1,54
 1835 569 1835 569 1835 377 c 0,55,56
 1835 193 1835 193 1742 82.5 c 128,-1,57
 1649 -28 1649 -28 1489 -28 c 256,58,59
 1330 -28 1330 -28 1237 82.5 c 128,-1,60
 1144 193 1144 193 1144 377 c 0,61,62
 1144 569 1144 569 1237 676 c 128,-1,63
 1330 783 1330 783 1489 783 c 256,52,53
1489 658 m 0,64,65
 1401 658 1401 658 1353 583.5 c 128,-1,66
 1305 509 1305 509 1305 377 c 256,67,68
 1305 245 1305 245 1353 172 c 128,-1,69
 1401 99 1401 99 1489 99 c 0,70,71
 1575 99 1575 99 1627 172 c 128,-1,72
 1679 245 1679 245 1679 377 c 256,73,74
 1679 509 1679 509 1627 583.5 c 128,-1,75
 1575 658 1575 658 1489 658 c 0,64,65
EndSplineSet
EndChar
StartChar: Acircumflex
Encoding: 194 194 199
Width: 1399
VWidth: 3555
Flags: W
HStem: 0 21G<14 238.105 1169.89 1384> 380 174<431 977> 1473 20G<579.324 825.582>
Fore
977 554 m 1,0,-1
 700 1299 l 1,1,-1
 431 554 l 1,2,-1
 977 554 l 1,0,-1
1384 0 m 1,3,-1
 1177 0 l 1,4,-1
 1042 380 l 1,5,-1
 366 380 l 1,6,-1
 231 0 l 1,7,-1
 14 0 l 1,8,-1
 587 1493 l 1,9,-1
 818 1493 l 1,10,-1
 1384 0 l 1,3,-1
1010 1635 m 1,11,-1
 871 1635 l 1,12,-1
 700 1818 l 1,13,-1
 536 1635 l 1,14,-1
 398 1635 l 1,15,-1
 604 1906 l 1,16,-1
 797 1906 l 1,17,-1
 1010 1635 l 1,11,-1
EndSplineSet
EndChar
StartChar: Ecircumflex
Encoding: 202 202 200
Width: 1296
VWidth: 3555
Flags: W
HStem: 0 167<401 1167> 712 170<401 1116> 1326 167<401 1144>
VStem: 203 198<167 712 882 1326>
Fore
1144 1326 m 1,0,-1
 401 1326 l 1,1,-1
 401 882 l 1,2,-1
 1116 882 l 1,3,-1
 1116 712 l 1,4,-1
 401 712 l 1,5,-1
 401 167 l 1,6,-1
 1167 167 l 1,7,-1
 1167 0 l 1,8,-1
 203 0 l 1,9,-1
 203 1493 l 1,10,-1
 1144 1493 l 1,11,-1
 1144 1326 l 1,0,-1
977 1635 m 1,12,-1
 838 1635 l 1,13,-1
 668 1818 l 1,14,-1
 505 1635 l 1,15,-1
 366 1635 l 1,16,-1
 573 1906 l 1,17,-1
 764 1906 l 1,18,-1
 977 1635 l 1,12,-1
EndSplineSet
EndChar
StartChar: Aacute
Encoding: 193 193 201
Width: 1399
VWidth: 3555
Flags: W
HStem: 0 21G<14 238.105 1169.89 1384> 380 174<431 977> 1473 20G<579.324 825.582>
Fore
977 554 m 1,0,-1
 700 1299 l 1,1,-1
 431 554 l 1,2,-1
 977 554 l 1,0,-1
1384 0 m 1,3,-1
 1177 0 l 1,4,-1
 1042 380 l 1,5,-1
 366 380 l 1,6,-1
 231 0 l 1,7,-1
 14 0 l 1,8,-1
 587 1493 l 1,9,-1
 818 1493 l 1,10,-1
 1384 0 l 1,3,-1
712 1635 m 1,11,-1
 562 1635 l 1,12,-1
 757 1903 l 1,13,-1
 943 1903 l 1,14,-1
 712 1635 l 1,11,-1
EndSplineSet
EndChar
StartChar: Edieresis
Encoding: 203 203 202
Width: 1296
VWidth: 3555
Flags: W
HStem: 0 167<401 1167> 712 170<401 1116> 1326 167<401 1144> 1672 198<373 573 764 967>
VStem: 203 198<167 712 882 1326> 373 200<1672 1870> 764 203<1672 1870>
Fore
1144 1326 m 1,0,-1
 401 1326 l 1,1,-1
 401 882 l 1,2,-1
 1116 882 l 1,3,-1
 1116 712 l 1,4,-1
 401 712 l 1,5,-1
 401 167 l 1,6,-1
 1167 167 l 1,7,-1
 1167 0 l 1,8,-1
 203 0 l 1,9,-1
 203 1493 l 1,10,-1
 1144 1493 l 1,11,-1
 1144 1326 l 1,0,-1
967 1672 m 1,12,-1
 764 1672 l 1,13,-1
 764 1870 l 1,14,-1
 967 1870 l 1,15,-1
 967 1672 l 1,12,-1
573 1672 m 1,16,-1
 373 1672 l 1,17,-1
 373 1870 l 1,18,-1
 573 1870 l 1,19,-1
 573 1672 l 1,16,-1
EndSplineSet
EndChar
StartChar: Egrave
Encoding: 200 200 203
Width: 1296
VWidth: 3555
Flags: W
HStem: 0 167<401 1167> 712 170<401 1116> 1326 167<401 1144>
VStem: 203 198<167 712 882 1326>
Fore
1144 1326 m 1,0,-1
 401 1326 l 1,1,-1
 401 882 l 1,2,-1
 1116 882 l 1,3,-1
 1116 712 l 1,4,-1
 401 712 l 1,5,-1
 401 167 l 1,6,-1
 1167 167 l 1,7,-1
 1167 0 l 1,8,-1
 203 0 l 1,9,-1
 203 1493 l 1,10,-1
 1144 1493 l 1,11,-1
 1144 1326 l 1,0,-1
654 1635 m 1,12,-1
 424 1903 l 1,13,-1
 615 1903 l 1,14,-1
 807 1635 l 1,15,-1
 654 1635 l 1,12,-1
EndSplineSet
EndChar
StartChar: Iacute
Encoding: 205 205 204
Width: 604
VWidth: 3555
Flags: W
HStem: 0 21G<203 401> 1473 20G<203 401>
VStem: 203 198<0 1493>
Fore
401 0 m 1,0,-1
 203 0 l 1,1,-1
 203 1493 l 1,2,-1
 401 1493 l 1,3,-1
 401 0 l 1,0,-1
326 1635 m 1,4,-1
 177 1635 l 1,5,-1
 373 1903 l 1,6,-1
 559 1903 l 1,7,-1
 326 1635 l 1,4,-1
EndSplineSet
EndChar
StartChar: Icircumflex
Encoding: 206 206 205
Width: 604
VWidth: 3555
Flags: W
HStem: 0 21G<203 401> 1473 20G<203 401>
VStem: 203 198<0 1493>
Fore
401 0 m 1,0,-1
 203 0 l 1,1,-1
 203 1493 l 1,2,-1
 401 1493 l 1,3,-1
 401 0 l 1,0,-1
625 1635 m 1,4,-1
 488 1635 l 1,5,-1
 316 1818 l 1,6,-1
 153 1635 l 1,7,-1
 14 1635 l 1,8,-1
 220 1906 l 1,9,-1
 413 1906 l 1,10,-1
 625 1635 l 1,4,-1
EndSplineSet
EndChar
StartChar: Idieresis
Encoding: 207 207 206
Width: 604
VWidth: 3555
Flags: W
HStem: 0 21G<203 401> 1473 20G<203 401> 1672 198<21 220 413 615>
VStem: 21 199<1672 1870> 203 198<0 1493> 413 202<1672 1870>
Fore
401 0 m 1,0,-1
 203 0 l 1,1,-1
 203 1493 l 1,2,-1
 401 1493 l 1,3,-1
 401 0 l 1,0,-1
615 1672 m 1,4,-1
 413 1672 l 1,5,-1
 413 1870 l 1,6,-1
 615 1870 l 1,7,-1
 615 1672 l 1,4,-1
220 1672 m 1,8,-1
 21 1672 l 1,9,-1
 21 1870 l 1,10,-1
 220 1870 l 1,11,-1
 220 1672 l 1,8,-1
EndSplineSet
EndChar
StartChar: Igrave
Encoding: 204 204 207
Width: 604
VWidth: 3555
Flags: W
HStem: 0 21G<203 401> 1473 20G<203 401>
VStem: 203 198<0 1493>
Fore
401 0 m 1,0,-1
 203 0 l 1,1,-1
 203 1493 l 1,2,-1
 401 1493 l 1,3,-1
 401 0 l 1,0,-1
302 1635 m 1,4,-1
 71 1903 l 1,5,-1
 264 1903 l 1,6,-1
 455 1635 l 1,7,-1
 302 1635 l 1,4,-1
EndSplineSet
EndChar
StartChar: Oacute
Encoding: 211 211 208
Width: 1612
VWidth: 3555
Flags: W
HStem: -28 163<606.837 1013.46> 1358 164<606.837 1011.35>
VStem: 115 215<454.666 1034.75> 1286 210<453.478 1033.73>
Fore
811 1358 m 0,0,1
 587 1358 587 1358 458.5 1193 c 128,-1,2
 330 1028 330 1028 330 746 c 0,3,4
 330 458 330 458 458.5 296.5 c 128,-1,5
 587 135 587 135 811 135 c 0,6,7
 1028 135 1028 135 1157 296.5 c 128,-1,8
 1286 458 1286 458 1286 746 c 0,9,10
 1286 1028 1286 1028 1157 1193 c 128,-1,11
 1028 1358 1028 1358 811 1358 c 0,0,1
811 1522 m 0,12,13
 967 1522 967 1522 1093 1466.5 c 128,-1,14
 1219 1411 1219 1411 1310 1309.5 c 128,-1,15
 1401 1208 1401 1208 1448.5 1066 c 128,-1,16
 1496 924 1496 924 1496 746 c 0,17,18
 1496 573 1496 573 1448.5 429 c 128,-1,19
 1401 285 1401 285 1310 183.5 c 128,-1,20
 1219 82 1219 82 1093 27 c 128,-1,21
 967 -28 967 -28 811 -28 c 0,22,23
 495 -28 495 -28 302 181 c 0,24,25
 115 391 115 391 115 746 c 0,26,27
 115 1099 115 1099 302 1309 c 0,28,29
 495 1522 495 1522 811 1522 c 0,12,13
818 1635 m 1,30,-1
 668 1635 l 1,31,-1
 865 1903 l 1,32,-1
 1049 1903 l 1,33,-1
 818 1635 l 1,30,-1
EndSplineSet
EndChar
StartChar: Ocircumflex
Encoding: 212 212 209
Width: 1612
VWidth: 3555
Flags: W
HStem: -28 163<606.837 1013.46> 1358 164<606.837 1011.35>
VStem: 115 215<454.666 1034.75> 1286 210<453.478 1033.73>
Fore
811 1358 m 0,0,1
 587 1358 587 1358 458.5 1193 c 128,-1,2
 330 1028 330 1028 330 746 c 0,3,4
 330 458 330 458 458.5 296.5 c 128,-1,5
 587 135 587 135 811 135 c 0,6,7
 1028 135 1028 135 1157 296.5 c 128,-1,8
 1286 458 1286 458 1286 746 c 0,9,10
 1286 1028 1286 1028 1157 1193 c 128,-1,11
 1028 1358 1028 1358 811 1358 c 0,0,1
811 1522 m 0,12,13
 967 1522 967 1522 1093 1466.5 c 128,-1,14
 1219 1411 1219 1411 1310 1309.5 c 128,-1,15
 1401 1208 1401 1208 1448.5 1066 c 128,-1,16
 1496 924 1496 924 1496 746 c 0,17,18
 1496 573 1496 573 1448.5 429 c 128,-1,19
 1401 285 1401 285 1310 183.5 c 128,-1,20
 1219 82 1219 82 1093 27 c 128,-1,21
 967 -28 967 -28 811 -28 c 0,22,23
 495 -28 495 -28 302 181 c 0,24,25
 115 391 115 391 115 746 c 0,26,27
 115 1099 115 1099 302 1309 c 0,28,29
 495 1522 495 1522 811 1522 c 0,12,13
1116 1635 m 1,30,-1
 977 1635 l 1,31,-1
 807 1818 l 1,32,-1
 644 1635 l 1,33,-1
 505 1635 l 1,34,-1
 712 1906 l 1,35,-1
 903 1906 l 1,36,-1
 1116 1635 l 1,30,-1
EndSplineSet
EndChar
StartChar: dotlessi
Encoding: 305 305 214
Width: 1293
VWidth: 3555
Flags: W
HStem: 0 149<189 569 760 1144> 1024 150<271 569>
VStem: 569 191<149 1024>
Fore
760 1174 m 1,0,-1
 760 149 l 1,1,-1
 1144 149 l 1,2,-1
 1144 0 l 1,3,-1
 189 0 l 1,4,-1
 189 149 l 1,5,-1
 569 149 l 1,6,-1
 569 1024 l 1,7,-1
 271 1024 l 1,8,-1
 271 1174 l 1,9,-1
 760 1174 l 1,0,-1
EndSplineSet
EndChar
StartChar: circumflex
Encoding: 710 710 215
Width: 1293
VWidth: 3555
Flags: W
HStem: 1323 394<726 981>
VStem: 312 669<1323 1323>
Fore
726 1717 m 1,0,-1
 981 1323 l 1,1,-1
 835 1323 l 1,2,-1
 648 1581 l 1,3,-1
 458 1323 l 1,4,-1
 312 1323 l 1,5,-1
 569 1717 l 1,6,-1
 726 1717 l 1,0,-1
EndSplineSet
EndChar
StartChar: tilde
Encoding: 732 732 216
Width: 1293
VWidth: 3555
Flags: W
HStem: 1373 134<710.432 841.538> 1536 132<451.855 583.295>
VStem: 302 129<1373 1524.25> 861 130<1545.17 1668>
Fore
583 1493 m 2,0,1
 536 1536 536 1536 512 1536 c 0,2,3
 434 1536 434 1536 431 1373 c 1,4,-1
 302 1373 l 1,5,6
 302 1514 302 1514 356 1591 c 128,-1,7
 410 1668 410 1668 505 1668 c 0,8,9
 583 1668 583 1668 651 1604 c 2,10,-1
 712 1547 l 2,11,12
 750 1507 750 1507 783 1507 c 0,13,14
 821 1507 821 1507 841 1544 c 128,-1,15
 861 1581 861 1581 861 1668 c 1,16,-1
 991 1668 l 1,17,18
 991 1529 991 1529 938 1451 c 128,-1,19
 885 1373 885 1373 790 1373 c 0,20,21
 712 1373 712 1373 644 1436 c 2,22,-1
 583 1493 l 2,0,1
EndSplineSet
EndChar
StartChar: macron
Encoding: 175 175 217
Width: 1293
VWidth: 3555
Flags: W
HStem: 1448 153<335 960>
Fore
960 1601 m 1,0,-1
 960 1448 l 1,1,-1
 335 1448 l 1,2,-1
 335 1601 l 1,3,-1
 960 1601 l 1,0,-1
EndSplineSet
EndChar
StartChar: breve
Encoding: 728 728 218
Width: 1293
VWidth: 3555
Flags: W
HStem: 1387 142<503.396 790.441>
VStem: 316 658<1387 1529 1686 1686>
Fore
441 1686 m 1,0,1
 469 1529 469 1529 648 1529 c 0,2,3
 821 1529 821 1529 849 1686 c 1,4,-1
 974 1686 l 1,5,6
 953 1387 953 1387 648 1387 c 0,7,8
 345 1387 345 1387 316 1686 c 1,9,-1
 441 1686 l 1,0,1
EndSplineSet
EndChar
StartChar: dotaccent
Encoding: 729 729 219
Width: 1293
VWidth: 3555
Flags: W
HStem: 1415 213<540 753>
VStem: 540 213<1415 1628>
Fore
753 1628 m 1,0,-1
 753 1415 l 1,1,-1
 540 1415 l 1,2,-1
 540 1628 l 1,3,-1
 753 1628 l 1,0,-1
EndSplineSet
EndChar
StartChar: ring
Encoding: 730 730 220
Width: 1293
VWidth: 3555
Flags: W
HStem: 1309 130<533.188 756.882> 1757 127<536.233 757.458>
VStem: 359 129<1484.13 1707.97> 807 129<1488.6 1706.57>
Fore
936 1601 m 0,0,1
 936 1479 936 1479 849 1394 c 0,2,3
 771 1309 771 1309 648 1309 c 0,4,5
 526 1309 526 1309 441 1394 c 0,6,7
 359 1483 359 1483 359 1601 c 0,8,9
 359 1713 359 1713 441 1802 c 0,10,11
 529 1884 529 1884 648 1884 c 256,12,13
 767 1884 767 1884 849 1802 c 0,14,15
 936 1717 936 1717 936 1601 c 0,0,1
807 1601 m 0,16,17
 807 1663 807 1663 760 1710 c 256,18,19
 715 1757 715 1757 648 1757 c 0,20,21
 576 1757 576 1757 533 1710 c 0,22,23
 488 1668 488 1668 488 1601 c 0,24,25
 488 1529 488 1529 533 1483 c 0,26,27
 576 1439 576 1439 648 1439 c 0,28,29
 715 1439 715 1439 760 1486 c 256,30,31
 807 1533 807 1533 807 1601 c 0,16,17
EndSplineSet
EndChar
StartChar: cedilla
Encoding: 184 184 221
Width: 1293
VWidth: 3555
Flags: W
HStem: -417 132<458.067 690.26> -20 20G<611 792.5>
VStem: 705 144<-269.195 -90.8873>
Fore
736 0 m 1,0,1
 849 -125 849 -125 849 -224 c 0,2,3
 849 -417 849 -417 597 -417 c 0,4,5
 512 -417 512 -417 417 -387 c 1,6,-1
 417 -252 l 1,7,8
 451 -271 451 -271 490 -278 c 128,-1,9
 529 -285 529 -285 580 -285 c 0,10,11
 705 -285 705 -285 705 -189 c 0,12,13
 705 -132 705 -132 611 0 c 1,14,-1
 736 0 l 1,0,1
EndSplineSet
EndChar
StartChar: hungarumlaut
Encoding: 733 733 222
Width: 1293
VWidth: 3555
Flags: W
HStem: 1323 394<505 740>
VStem: 359 740<1323 1717>
Fore
740 1717 m 1,0,-1
 505 1323 l 1,1,-1
 359 1323 l 1,2,-1
 562 1717 l 1,3,-1
 740 1717 l 1,0,-1
1099 1717 m 1,4,-1
 838 1323 l 1,5,-1
 696 1323 l 1,6,-1
 910 1717 l 1,7,-1
 1099 1717 l 1,4,-1
EndSplineSet
EndChar
StartChar: ogonek
Encoding: 731 731 223
Width: 1293
VWidth: 3555
Flags: W
HStem: -417 132<598.824 789.316> -20 20G<497.5 679>
VStem: 441 146<-270.367 -90.7944>
Fore
679 0 m 1,0,1
 587 -125 587 -125 587 -189 c 0,2,3
 587 -285 587 -285 700 -285 c 0,4,5
 767 -285 767 -285 832 -252 c 1,6,-1
 832 -394 l 1,7,8
 793 -401 793 -401 757.5 -409 c 128,-1,9
 722 -417 722 -417 689 -417 c 0,10,11
 441 -417 441 -417 441 -224 c 0,12,13
 441 -125 441 -125 554 0 c 1,14,-1
 679 0 l 1,0,1
EndSplineSet
EndChar
StartChar: caron
Encoding: 711 711 224
Width: 1293
VWidth: 3555
Flags: W
HStem: 1323 394<312 726>
VStem: 312 669<1717 1717>
Fore
312 1717 m 1,0,-1
 458 1717 l 1,1,-1
 648 1462 l 1,2,-1
 835 1717 l 1,3,-1
 981 1717 l 1,4,-1
 726 1323 l 1,5,-1
 569 1323 l 1,6,-1
 312 1717 l 1,0,-1
EndSplineSet
EndChar
StartChar: Lslash
Encoding: 321 321 225
Width: 1150
VWidth: 3555
Flags: W
HStem: 0 167<413 1141> 1473 20G<214 413>
VStem: 214 199<167 573 878 1493>
Fore
413 878 m 1,0,-1
 729 1099 l 1,1,-1
 811 988 l 1,2,-1
 413 712 l 1,3,-1
 413 167 l 1,4,-1
 1141 167 l 1,5,-1
 1141 0 l 1,6,-1
 214 0 l 1,7,-1
 214 573 l 1,8,-1
 64 465 l 1,9,-1
 -14 576 l 1,10,-1
 214 733 l 1,11,-1
 214 1493 l 1,12,-1
 413 1493 l 1,13,-1
 413 878 l 1,0,-1
EndSplineSet
EndChar
StartChar: lslash
Encoding: 322 322 226
Width: 581
VWidth: 3555
Flags: W
HStem: 0 21G<200 380>
VStem: 200 180<0 665 957 1557>
Fore
380 957 m 1,0,-1
 509 1049 l 1,1,-1
 587 939 l 1,2,-1
 380 800 l 1,3,-1
 380 0 l 1,4,-1
 200 0 l 1,5,-1
 200 665 l 1,6,-1
 78 580 l 1,7,-1
 0 686 l 1,8,-1
 200 828 l 1,9,-1
 200 1557 l 1,10,-1
 380 1557 l 1,11,-1
 380 957 l 1,0,-1
EndSplineSet
EndChar
StartChar: Scaron
Encoding: 352 352 227
Width: 1300
VWidth: 3555
Flags: W
HStem: -28 163<444.474 842.434> 1358 164<459.031 855.528>
VStem: 135 204<976.239 1251.33> 977 210<253.782 541.211>
Fore
1099 1248 m 1,0,1
 875 1358 875 1358 686 1358 c 0,2,3
 516 1358 516 1358 427.5 1294.5 c 128,-1,4
 339 1231 339 1231 339 1113 c 0,5,6
 339 1010 339 1010 398.5 960 c 128,-1,7
 458 910 458 910 621 878 c 2,8,-1
 746 854 l 2,9,10
 974 814 974 814 1080.5 705.5 c 128,-1,11
 1187 597 1187 597 1187 413 c 0,12,13
 1187 196 1187 196 1041.5 84 c 128,-1,14
 896 -28 896 -28 615 -28 c 0,15,16
 509 -28 509 -28 390 -5.5 c 128,-1,17
 271 17 271 17 142 68 c 1,18,-1
 142 274 l 1,19,20
 264 207 264 207 383 171 c 128,-1,21
 502 135 502 135 615 135 c 0,22,23
 786 135 786 135 881.5 203 c 128,-1,24
 977 271 977 271 977 394 c 0,25,26
 977 509 977 509 907.5 568.5 c 128,-1,27
 838 628 838 628 689 661 c 2,28,-1
 566 689 l 2,29,30
 339 733 339 733 237 828.5 c 128,-1,31
 135 924 135 924 135 1095 c 0,32,33
 135 1299 135 1299 274 1410.5 c 128,-1,34
 413 1522 413 1522 658 1522 c 0,35,36
 764 1522 764 1522 874 1502.5 c 128,-1,37
 984 1483 984 1483 1099 1448 c 1,38,-1
 1099 1248 l 1,0,1
488 1906 m 1,39,-1
 651 1724 l 1,40,-1
 821 1906 l 1,41,-1
 960 1906 l 1,42,-1
 746 1635 l 1,43,-1
 554 1635 l 1,44,-1
 349 1906 l 1,45,-1
 488 1906 l 1,39,-1
EndSplineSet
EndChar
StartChar: scaron
Encoding: 353 353 228
Width: 1069
VWidth: 3555
Flags: W
HStem: -28 153<256.406 704.911> 991 153<359.4 681.729>
VStem: 122 173<728.852 930.216> 779 191<193.783 375.33>
Fore
906 917 m 1,0,1
 832 957 832 957 746.5 974 c 128,-1,2
 661 991 661 991 573 991 c 0,3,4
 295 991 295 991 295 828 c 0,5,6
 295 760 295 760 344.5 724.5 c 128,-1,7
 394 689 394 689 540 654 c 2,8,-1
 608 641 l 2,9,10
 804 601 804 601 887 524.5 c 128,-1,11
 970 448 970 448 970 309 c 0,12,13
 970 149 970 149 846 60.5 c 128,-1,14
 722 -28 722 -28 505 -28 c 0,15,16
 316 -28 316 -28 109 40 c 1,17,-1
 109 231 l 1,18,19
 319 125 319 125 509 125 c 0,20,21
 637 125 637 125 708 171 c 128,-1,22
 779 217 779 217 779 295 c 0,23,24
 779 335 779 335 768 361 c 128,-1,25
 757 387 757 387 728.5 409 c 128,-1,26
 700 431 700 431 645 450 c 128,-1,27
 590 469 590 469 505 488 c 2,28,-1
 444 502 l 2,29,30
 271 536 271 536 196.5 612.5 c 128,-1,31
 122 689 122 689 122 821 c 0,32,33
 122 981 122 981 233.5 1062.5 c 128,-1,34
 345 1144 345 1144 550 1144 c 0,35,36
 651 1144 651 1144 741.5 1132 c 128,-1,37
 832 1120 832 1120 906 1088 c 1,38,-1
 906 917 l 1,0,1
356 1639 m 1,39,-1
 533 1394 l 1,40,-1
 715 1639 l 1,41,-1
 854 1639 l 1,42,-1
 608 1262 l 1,43,-1
 462 1262 l 1,44,-1
 217 1639 l 1,45,-1
 356 1639 l 1,39,-1
EndSplineSet
EndChar
StartChar: Zcaron
Encoding: 381 381 229
Width: 1407
VWidth: 3555
Flags: W
HStem: 0 167<345 1312> 1326 167<115 1035>
Fore
1290 1340 m 1,0,-1
 345 167 l 1,1,-1
 1312 167 l 1,2,-1
 1312 0 l 1,3,-1
 92 0 l 1,4,-1
 92 153 l 1,5,-1
 1035 1326 l 1,6,-1
 115 1326 l 1,7,-1
 115 1493 l 1,8,-1
 1290 1493 l 1,9,-1
 1290 1340 l 1,0,-1
540 1906 m 1,10,-1
 705 1724 l 1,11,-1
 875 1906 l 1,12,-1
 1014 1906 l 1,13,-1
 800 1635 l 1,14,-1
 608 1635 l 1,15,-1
 401 1906 l 1,16,-1
 540 1906 l 1,10,-1
EndSplineSet
EndChar
StartChar: zcaron
Encoding: 382 382 230
Width: 1076
VWidth: 3555
Flags: W
HStem: 0 146<295 988> 974 146<115 779>
Fore
988 953 m 1,0,-1
 295 146 l 1,1,-1
 988 146 l 1,2,-1
 988 0 l 1,3,-1
 89 0 l 1,4,-1
 89 167 l 1,5,-1
 779 974 l 1,6,-1
 115 974 l 1,7,-1
 115 1120 l 1,8,-1
 988 1120 l 1,9,-1
 988 953 l 1,0,-1
359 1639 m 1,10,-1
 536 1394 l 1,11,-1
 719 1639 l 1,12,-1
 858 1639 l 1,13,-1
 611 1262 l 1,14,-1
 465 1262 l 1,15,-1
 220 1639 l 1,16,-1
 359 1639 l 1,10,-1
EndSplineSet
EndChar
StartChar: brokenbar
Encoding: 166 166 231
Width: 689
VWidth: 3555
Flags: W
VStem: 260 174<-352 404 675 1436>
Fore
260 -352 m 1,0,-1
 260 404 l 1,1,-1
 434 404 l 1,2,-1
 434 -352 l 1,3,-1
 260 -352 l 1,0,-1
260 675 m 1,4,-1
 260 1436 l 1,5,-1
 434 1436 l 1,6,-1
 434 675 l 1,7,-1
 260 675 l 1,4,-1
EndSplineSet
EndChar
StartChar: Eth
Encoding: 208 208 232
Width: 1588
VWidth: 3555
Flags: W
HStem: 0 163<413 948.557> 700 145<10 214 413 750> 1330 163<413 954.468>
VStem: 214 199<163 700 845 1330> 1255 214<469.478 1029.94>
Fore
625 1493 m 1,0,1
 1066 1493 1066 1493 1267.5 1315 c 128,-1,2
 1469 1137 1469 1137 1469 750 c 256,3,4
 1469 363 1469 363 1267.5 181.5 c 128,-1,5
 1066 0 1066 0 625 0 c 2,6,-1
 214 0 l 1,7,-1
 214 700 l 1,8,-1
 10 700 l 1,9,-1
 10 845 l 1,10,-1
 214 845 l 1,11,-1
 214 1493 l 1,12,-1
 625 1493 l 1,0,1
750 845 m 1,13,-1
 750 700 l 1,14,-1
 413 700 l 1,15,-1
 413 163 l 1,16,-1
 658 163 l 2,17,18
 970 163 970 163 1112.5 305.5 c 128,-1,19
 1255 448 1255 448 1255 750 c 256,20,21
 1255 1052 1255 1052 1112.5 1191 c 128,-1,22
 970 1330 970 1330 658 1330 c 2,23,-1
 413 1330 l 1,24,-1
 413 845 l 1,25,-1
 750 845 l 1,13,-1
EndSplineSet
EndChar
StartChar: eth
Encoding: 240 240 233
Width: 1253
VWidth: 3555
Flags: W
HStem: -28 156<461.987 789.827> 950 149<477.897 689.781> 1502 20G<935.757 1005.1>
VStem: 115 194<303.043 763.153> 950 191<308.24 795.265>
Fore
838 917 m 1,0,1
 786 936 786 936 743 943 c 128,-1,2
 700 950 700 950 658 950 c 0,3,4
 495 950 495 950 402 841.5 c 128,-1,5
 309 733 309 733 309 536 c 0,6,7
 309 345 309 345 392.5 236.5 c 128,-1,8
 476 128 476 128 625 128 c 256,9,10
 774 128 774 128 862 236.5 c 128,-1,11
 950 345 950 345 950 536 c 0,12,13
 950 771 950 771 838 917 c 1,0,1
903 1141 m 1,14,15
 1028 998 1028 998 1084.5 855 c 128,-1,16
 1141 712 1141 712 1141 536 c 0,17,18
 1141 410 1141 410 1103.5 305 c 128,-1,19
 1066 200 1066 200 999 127 c 128,-1,20
 932 54 932 54 837.5 13 c 128,-1,21
 743 -28 743 -28 625 -28 c 0,22,23
 391 -28 391 -28 253 126.5 c 128,-1,24
 115 281 115 281 115 536 c 0,25,26
 115 661 115 661 149.5 764.5 c 128,-1,27
 184 868 184 868 250 942.5 c 128,-1,28
 316 1017 316 1017 409 1058 c 128,-1,29
 502 1099 502 1099 611 1099 c 0,30,31
 628 1099 628 1099 655 1097 c 128,-1,32
 682 1095 682 1095 722 1088 c 1,33,-1
 566 1269 l 1,34,-1
 245 1163 l 1,35,-1
 214 1262 l 1,36,-1
 495 1354 l 1,37,-1
 312 1557 l 1,38,-1
 536 1557 l 1,39,-1
 665 1415 l 1,40,-1
 998 1522 l 1,41,-1
 1031 1429 l 1,42,-1
 740 1330 l 1,43,-1
 903 1141 l 1,14,15
EndSplineSet
EndChar
StartChar: Yacute
Encoding: 221 221 234
Width: 1249
VWidth: 3555
Flags: W
HStem: 0 21G<523 729> 1473 20G<-3 227.366 1028.44 1255>
VStem: 523 206<0 712>
Fore
625 878 m 1,0,-1
 1042 1493 l 1,1,-1
 1255 1493 l 1,2,-1
 729 712 l 1,3,-1
 729 0 l 1,4,-1
 523 0 l 1,5,-1
 523 712 l 1,6,-1
 -3 1493 l 1,7,-1
 214 1493 l 1,8,-1
 625 878 l 1,0,-1
637 1635 m 1,9,-1
 488 1635 l 1,10,-1
 682 1903 l 1,11,-1
 868 1903 l 1,12,-1
 637 1635 l 1,9,-1
EndSplineSet
EndChar
StartChar: yacute
Encoding: 253 253 235
Width: 1215
VWidth: 3555
Flags: W
HStem: -431 160<160 338.545> 1100 20G<64 263.069 949.023 1153>
Fore
658 -102 m 1,0,1
 621 -203 621 -203 585.5 -266.5 c 128,-1,2
 550 -330 550 -330 509.5 -365.5 c 128,-1,3
 469 -401 469 -401 419.5 -416 c 128,-1,4
 370 -431 370 -431 309 -431 c 2,5,-1
 160 -431 l 1,6,-1
 160 -271 l 1,7,-1
 271 -271 l 2,8,9
 309 -271 309 -271 339.5 -265.5 c 128,-1,10
 370 -260 370 -260 393.5 -238.5 c 128,-1,11
 417 -217 417 -217 437.5 -178 c 128,-1,12
 458 -139 458 -139 479 -68 c 2,13,-1
 516 17 l 1,14,-1
 64 1120 l 1,15,-1
 255 1120 l 1,16,-1
 608 245 l 1,17,-1
 957 1120 l 1,18,-1
 1153 1120 l 1,19,-1
 658 -102 l 1,0,1
618 1262 m 1,20,-1
 469 1262 l 1,21,-1
 746 1639 l 1,22,-1
 946 1639 l 1,23,-1
 618 1262 l 1,20,-1
EndSplineSet
EndChar
StartChar: Thorn
Encoding: 222 222 236
Width: 1239
VWidth: 3555
Flags: W
HStem: 0 21G<203 401> 339 166<401 839.897> 1066 165<401 839.897> 1473 20G<203 401>
VStem: 203 198<0 339 505 1066 1231 1493> 953 214<618.327 952.066>
Fore
401 1231 m 1,0,-1
 658 1231 l 2,1,2
 906 1231 906 1231 1036.5 1119 c 128,-1,3
 1167 1007 1167 1007 1167 783 c 0,4,5
 1167 566 1167 566 1036.5 452.5 c 128,-1,6
 906 339 906 339 658 339 c 2,7,-1
 401 339 l 1,8,-1
 401 0 l 1,9,-1
 203 0 l 1,10,-1
 203 1493 l 1,11,-1
 401 1493 l 1,12,-1
 401 1231 l 1,0,-1
658 505 m 2,13,14
 800 505 800 505 876.5 578 c 128,-1,15
 953 651 953 651 953 783 c 0,16,17
 953 920 953 920 876.5 993 c 128,-1,18
 800 1066 800 1066 658 1066 c 2,19,-1
 401 1066 l 1,20,-1
 401 505 l 1,21,-1
 658 505 l 2,13,14
EndSplineSet
EndChar
StartChar: thorn
Encoding: 254 254 237
Width: 1300
VWidth: 3555
Flags: W
HStem: -431 21G<189 373> -28 153<528.69 843.435> 991 153<525.258 844.9>
VStem: 189 184<-431 167 308.245 810.959 953 1557> 995 196<308.087 814.145>
Fore
189 -431 m 1,0,-1
 189 1557 l 1,1,-1
 373 1557 l 1,2,-1
 373 953 l 1,3,4
 488 1144 488 1144 729 1144 c 0,5,6
 936 1144 936 1144 1063.5 986 c 128,-1,7
 1191 828 1191 828 1191 562 c 256,8,9
 1191 295 1191 295 1063.5 133.5 c 128,-1,10
 936 -28 936 -28 729 -28 c 0,11,12
 484 -28 484 -28 373 167 c 1,13,-1
 373 -431 l 1,14,-1
 189 -431 l 1,0,-1
995 562 m 0,15,16
 995 764 995 764 915 877.5 c 128,-1,17
 835 991 835 991 686 991 c 256,18,19
 536 991 536 991 454.5 877.5 c 128,-1,20
 373 764 373 764 373 562 c 0,21,22
 373 356 373 356 454.5 240.5 c 128,-1,23
 536 125 536 125 686 125 c 256,24,25
 835 125 835 125 915 240.5 c 128,-1,26
 995 356 995 356 995 562 c 0,15,16
EndSplineSet
EndChar
StartChar: minus
Encoding: 8722 8722 238
Width: 1716
VWidth: 3555
Flags: W
HStem: 559 170<220 1500>
Fore
1500 559 m 1,0,-1
 220 559 l 1,1,-1
 220 729 l 1,2,-1
 1500 729 l 1,3,-1
 1500 559 l 1,0,-1
EndSplineSet
EndChar
StartChar: multiply
Encoding: 215 215 239
Width: 1716
VWidth: 3555
Flags: W
Fore
1439 184 m 1,0,-1
 1319 64 l 1,1,-1
 858 523 l 1,2,-1
 398 64 l 1,3,-1
 281 184 l 1,4,-1
 740 641 l 1,5,-1
 281 1102 l 1,6,-1
 398 1224 l 1,7,-1
 858 760 l 1,8,-1
 1319 1224 l 1,9,-1
 1439 1102 l 1,10,-1
 981 641 l 1,11,-1
 1439 184 l 1,0,-1
EndSplineSet
EndChar
StartChar: onesuperior
Encoding: 185 185 240
Width: 824
VWidth: 3555
Flags: W
HStem: 668 111<153 363 505 712> 1483 20G<248.421 505>
VStem: 363 142<779 1391>
Fore
363 1391 m 1,0,-1
 139 1351 l 1,1,-1
 139 1465 l 1,2,-1
 370 1503 l 1,3,-1
 505 1503 l 1,4,-1
 505 779 l 1,5,-1
 712 779 l 1,6,-1
 712 668 l 1,7,-1
 153 668 l 1,8,-1
 153 779 l 1,9,-1
 363 779 l 1,10,-1
 363 1391 l 1,0,-1
EndSplineSet
EndChar
StartChar: twosuperior
Encoding: 178 178 241
Width: 824
VWidth: 3555
Flags: W
HStem: 668 115<267 693> 1415 107<288.367 484.824>
VStem: 533 156<1172.36 1369.93>
Fore
693 668 m 1,0,-1
 95 668 l 1,1,-1
 95 779 l 1,2,3
 128 811 128 811 193 865 c 0,4,5
 533 1174 533 1174 533 1266 c 0,6,7
 533 1333 533 1333 483.5 1374 c 128,-1,8
 434 1415 434 1415 349 1415 c 0,9,10
 295 1415 295 1415 232.5 1396 c 128,-1,11
 170 1377 170 1377 99 1344 c 1,12,-1
 99 1465 l 1,13,14
 174 1493 174 1493 243 1507.5 c 128,-1,15
 312 1522 312 1522 370 1522 c 0,16,17
 512 1522 512 1522 600.5 1454.5 c 128,-1,18
 689 1387 689 1387 689 1283 c 0,19,20
 689 1137 689 1137 356 858 c 0,21,22
 326 832 326 832 305.5 814.5 c 128,-1,23
 285 797 285 797 267 783 c 1,24,-1
 693 783 l 1,25,-1
 693 668 l 1,0,-1
EndSplineSet
EndChar
StartChar: threesuperior
Encoding: 179 179 242
Width: 824
VWidth: 3555
Flags: W
HStem: 654 106<187.474 507.988> 1062 112<260 511.75> 1373 21G<128 169> 1415 107<209.075 501.49>
VStem: 543 153<1208.19 1380.33> 566 153<812.833 1015.16>
Fore
523 1120 m 1,0,1
 719 1085 719 1085 719 910 c 0,2,3
 719 786 719 786 622.5 720 c 128,-1,4
 526 654 526 654 352 654 c 0,5,6
 234 654 234 654 99 696 c 1,7,-1
 99 818 l 1,8,9
 149 786 149 786 210 773 c 128,-1,10
 271 760 271 760 339 760 c 0,11,12
 448 760 448 760 507 801 c 128,-1,13
 566 842 566 842 566 910 c 0,14,15
 566 1062 566 1062 349 1062 c 2,16,-1
 260 1062 l 1,17,-1
 260 1174 l 1,18,-1
 356 1174 l 2,19,20
 543 1174 543 1174 543 1299 c 0,21,22
 543 1351 543 1351 495.5 1383 c 128,-1,23
 448 1415 448 1415 352 1415 c 0,24,25
 312 1415 312 1415 261 1404.5 c 128,-1,26
 210 1394 210 1394 128 1373 c 1,27,-1
 128 1486 l 1,28,29
 267 1522 267 1522 380 1522 c 0,30,31
 529 1522 529 1522 612.5 1461.5 c 128,-1,32
 696 1401 696 1401 696 1305 c 0,33,34
 696 1156 696 1156 523 1120 c 1,0,1
EndSplineSet
EndChar
StartChar: onequarter
Encoding: 188 188 243
Width: 1985
VWidth: 3555
Flags: W
HStem: -28 21G<458 627.037> 200 109<1333 1642 1788 1923> 668 111<153 363 505 712> 1483 20G<248.421 505>
VStem: 363 142<779 1391> 1642 146<14 200 309 729>
Fore
363 1391 m 1,0,-1
 139 1351 l 1,1,-1
 139 1465 l 1,2,-1
 370 1503 l 1,3,-1
 505 1503 l 1,4,-1
 505 779 l 1,5,-1
 712 779 l 1,6,-1
 712 668 l 1,7,-1
 153 668 l 1,8,-1
 153 779 l 1,9,-1
 363 779 l 1,10,-1
 363 1391 l 1,0,-1
615 -28 m 1,11,-1
 458 -28 l 1,12,-1
 1364 1479 l 1,13,-1
 1522 1479 l 1,14,-1
 615 -28 l 1,11,-1
1642 309 m 1,15,-1
 1642 729 l 1,16,-1
 1333 309 l 1,17,-1
 1642 309 l 1,15,-1
1788 309 m 1,18,-1
 1923 309 l 1,19,-1
 1923 200 l 1,20,-1
 1788 200 l 1,21,-1
 1788 14 l 1,22,-1
 1642 14 l 1,23,-1
 1642 200 l 1,24,-1
 1231 200 l 1,25,-1
 1231 323 l 1,26,-1
 1625 849 l 1,27,-1
 1788 849 l 1,28,-1
 1788 309 l 1,18,-1
EndSplineSet
Ligature2: "'frac' Diagonal Fractions in Latin lookup 0 subtable" one fraction four
Ligature2: "'frac' Diagonal Fractions in Latin lookup 0 subtable" one slash four
EndChar
StartChar: onehalf
Encoding: 189 189 244
Width: 1985
VWidth: 3555
Flags: W
HStem: -28 21G<458 627.037> 14 114<1432 1859> 668 111<153 363 505 712> 760 108<1456.02 1651.67> 1483 20G<248.421 505>
VStem: 363 142<779 1391> 1700 156<517.8 715.55>
Fore
363 1391 m 1,0,-1
 139 1351 l 1,1,-1
 139 1465 l 1,2,-1
 370 1503 l 1,3,-1
 505 1503 l 1,4,-1
 505 779 l 1,5,-1
 712 779 l 1,6,-1
 712 668 l 1,7,-1
 153 668 l 1,8,-1
 153 779 l 1,9,-1
 363 779 l 1,10,-1
 363 1391 l 1,0,-1
615 -28 m 1,11,-1
 458 -28 l 1,12,-1
 1364 1479 l 1,13,-1
 1522 1479 l 1,14,-1
 615 -28 l 1,11,-1
1859 14 m 1,15,-1
 1262 14 l 1,16,-1
 1262 125 l 1,17,18
 1293 156 1293 156 1358 210 c 0,19,20
 1700 519 1700 519 1700 611 c 0,21,22
 1700 679 1700 679 1650.5 719.5 c 128,-1,23
 1601 760 1601 760 1514 760 c 0,24,25
 1462 760 1462 760 1399.5 741 c 128,-1,26
 1337 722 1337 722 1266 689 c 1,27,-1
 1266 811 l 1,28,29
 1340 838 1340 838 1409.5 853 c 128,-1,30
 1479 868 1479 868 1536 868 c 0,31,32
 1679 868 1679 868 1767.5 800.5 c 128,-1,33
 1856 733 1856 733 1856 628 c 0,34,35
 1856 484 1856 484 1522 203 c 0,36,37
 1493 177 1493 177 1472 159.5 c 128,-1,38
 1451 142 1451 142 1432 128 c 1,39,-1
 1859 128 l 1,40,-1
 1859 14 l 1,15,-1
EndSplineSet
Ligature2: "'frac' Diagonal Fractions in Latin lookup 0 subtable" one fraction two
Ligature2: "'frac' Diagonal Fractions in Latin lookup 0 subtable" one slash two
EndChar
StartChar: threequarters
Encoding: 190 190 245
Width: 1985
VWidth: 3555
Flags: W
HStem: -28 21G<458 627.037> 200 109<1333 1642 1788 1923> 654 106<187.474 507.988> 1062 112<260 511.75> 1373 21G<128 169> 1415 107<209.075 501.49>
VStem: 543 153<1208.19 1380.33> 566 153<812.833 1015.16> 1642 146<14 200 309 729>
Fore
523 1120 m 1,0,1
 719 1085 719 1085 719 910 c 0,2,3
 719 786 719 786 622.5 720 c 128,-1,4
 526 654 526 654 352 654 c 0,5,6
 234 654 234 654 99 696 c 1,7,-1
 99 818 l 1,8,9
 149 786 149 786 210 773 c 128,-1,10
 271 760 271 760 339 760 c 0,11,12
 448 760 448 760 507 801 c 128,-1,13
 566 842 566 842 566 910 c 0,14,15
 566 1062 566 1062 349 1062 c 2,16,-1
 260 1062 l 1,17,-1
 260 1174 l 1,18,-1
 356 1174 l 2,19,20
 543 1174 543 1174 543 1299 c 0,21,22
 543 1351 543 1351 495.5 1383 c 128,-1,23
 448 1415 448 1415 352 1415 c 0,24,25
 312 1415 312 1415 261 1404.5 c 128,-1,26
 210 1394 210 1394 128 1373 c 1,27,-1
 128 1486 l 1,28,29
 267 1522 267 1522 380 1522 c 0,30,31
 529 1522 529 1522 612.5 1461.5 c 128,-1,32
 696 1401 696 1401 696 1305 c 0,33,34
 696 1156 696 1156 523 1120 c 1,0,1
615 -28 m 1,35,-1
 458 -28 l 1,36,-1
 1364 1479 l 1,37,-1
 1522 1479 l 1,38,-1
 615 -28 l 1,35,-1
1642 309 m 1,39,-1
 1642 729 l 1,40,-1
 1333 309 l 1,41,-1
 1642 309 l 1,39,-1
1788 309 m 1,42,-1
 1923 309 l 1,43,-1
 1923 200 l 1,44,-1
 1788 200 l 1,45,-1
 1788 14 l 1,46,-1
 1642 14 l 1,47,-1
 1642 200 l 1,48,-1
 1231 200 l 1,49,-1
 1231 323 l 1,50,-1
 1625 849 l 1,51,-1
 1788 849 l 1,52,-1
 1788 309 l 1,42,-1
EndSplineSet
Ligature2: "'frac' Diagonal Fractions in Latin lookup 0 subtable" three fraction four
Ligature2: "'frac' Diagonal Fractions in Latin lookup 0 subtable" three slash four
EndChar
StartChar: dcroat
Encoding: 273 273 255
Width: 1293
VWidth: 3555
Flags: W
HStem: -31 163<468.574 763.202> 1038 163<468.134 764.766> 1347 129<580 899 1092 1293>
VStem: 128 207<299.2 871.275> 899 193<0 149 300.959 870.527 1024 1347 1476 1632>
Fore
899 1347 m 1,0,-1
 580 1347 l 1,1,-1
 580 1476 l 1,2,-1
 899 1476 l 1,3,-1
 899 1632 l 1,4,-1
 1092 1632 l 1,5,-1
 1092 1476 l 1,6,-1
 1293 1476 l 1,7,-1
 1293 1347 l 1,8,-1
 1092 1347 l 1,9,-1
 1092 0 l 1,10,-1
 899 0 l 1,11,-1
 899 149 l 1,12,13
 800 -31 800 -31 587 -31 c 0,14,15
 377 -31 377 -31 252 135 c 256,16,17
 128 302 128 302 128 590 c 0,18,19
 128 875 128 875 252 1038 c 0,20,21
 373 1201 373 1201 587 1201 c 0,22,23
 807 1201 807 1201 899 1024 c 1,24,-1
 899 1347 l 1,0,-1
335 587 m 0,25,26
 335 132 335 132 615 132 c 0,27,28
 899 132 899 132 899 587 c 0,29,30
 899 1038 899 1038 615 1038 c 0,31,32
 335 1038 335 1038 335 587 c 0,25,26
EndSplineSet
EndChar
StartChar: sfthyphen
Encoding: 173 173 256
Width: 1293
VWidth: 3555
Flags: W
HStem: 502 173<373 920>
Fore
920 675 m 1,0,-1
 920 502 l 1,1,-1
 373 502 l 1,2,-1
 373 675 l 1,3,-1
 920 675 l 1,0,-1
EndSplineSet
EndChar
StartChar: periodcentered
Encoding: 8729 8729 257
Width: 1293
VWidth: 3555
Flags: W
HStem: 587 319<516 779>
VStem: 516 263<587 906>
Fore
779 906 m 1,0,-1
 779 587 l 1,1,-1
 516 587 l 1,2,-1
 516 906 l 1,3,-1
 779 906 l 1,0,-1
EndSplineSet
EndChar
StartChar: Euro
Encoding: 8364 8364 258
Width: 1303
VWidth: 3555
Flags: W
HStem: -28 160<625.224 989.655> 519 125<54 196 413 786> 849 125<54 196 413 939> 1361 161<616.959 989.655>
VStem: 196 198<644.75 848.343>
Fore
1170 1167 m 1,0,1
 1078 1269 1078 1269 992 1315 c 128,-1,2
 906 1361 906 1361 807 1361 c 0,3,4
 479 1361 479 1361 413 974 c 1,5,-1
 991 974 l 1,6,-1
 939 849 l 1,7,-1
 398 849 l 1,8,9
 394 828 394 828 394 803.5 c 128,-1,10
 394 779 394 779 394 746 c 256,11,12
 394 715 394 715 394 691.5 c 128,-1,13
 394 668 394 668 398 644 c 1,14,-1
 845 644 l 1,15,-1
 786 519 l 1,16,-1
 413 519 l 1,17,18
 448 335 448 335 548 233.5 c 128,-1,19
 648 132 648 132 807 132 c 0,20,21
 906 132 906 132 992 178 c 128,-1,22
 1078 224 1078 224 1170 326 c 1,23,-1
 1170 115 l 1,24,25
 995 -28 995 -28 800 -28 c 0,26,27
 562 -28 562 -28 407 116 c 128,-1,28
 252 260 252 260 214 519 c 1,29,-1
 0 519 l 1,30,-1
 54 644 l 1,31,-1
 196 644 l 1,32,-1
 196 746 l 1,33,-1
 196 849 l 1,34,-1
 0 849 l 1,35,-1
 54 974 l 1,36,-1
 214 974 l 1,37,38
 252 1231 252 1231 407 1376.5 c 128,-1,39
 562 1522 562 1522 800 1522 c 0,40,41
 995 1522 995 1522 1170 1380 c 1,42,-1
 1170 1167 l 1,0,1
EndSplineSet
EndChar
StartChar: c6459
Encoding: 65539 -1 259
Width: 1293
VWidth: 3555
Flags: W
HStem: 1358 213<335 547 746 957>
VStem: 335 212<1358 1571> 746 211<1358 1571>
Fore
547 1571 m 1,0,-1
 547 1358 l 1,1,-1
 335 1358 l 1,2,-1
 335 1571 l 1,3,-1
 547 1571 l 1,0,-1
957 1571 m 1,4,-1
 957 1358 l 1,5,-1
 746 1358 l 1,6,-1
 746 1571 l 1,7,-1
 957 1571 l 1,4,-1
EndSplineSet
EndChar
StartChar: c6460
Encoding: 65540 -1 260
Width: 1293
VWidth: 3555
Flags: W
HStem: 1323 278<661 899>
VStem: 498 401<1323 1601>
Fore
899 1601 m 1,0,-1
 661 1323 l 1,1,-1
 498 1323 l 1,2,-1
 705 1601 l 1,3,-1
 899 1601 l 1,0,-1
EndSplineSet
EndChar
StartChar: c6461
Encoding: 65541 -1 261
Width: 1293
VWidth: 3555
Flags: W
HStem: 1358 125<759.904 844.823> 1358 227<371.86 434 861 919.515> 1465 120<443.564 535.47>
VStem: 302 132<1358 1458.42> 861 130<1510.33 1585>
Fore
583 1436 m 2,0,1
 536 1465 536 1465 512 1465 c 0,2,3
 434 1465 434 1465 434 1364 c 2,4,-1
 434 1358 l 1,5,-1
 302 1358 l 1,6,7
 302 1465 302 1465 356 1525 c 128,-1,8
 410 1585 410 1585 498 1585 c 0,9,10
 516 1585 516 1585 533 1583 c 128,-1,11
 550 1581 550 1581 569 1578 c 256,12,13
 587 1575 587 1575 604 1566 c 128,-1,14
 621 1557 621 1557 651 1543 c 2,15,-1
 712 1510 l 2,16,17
 760 1483 760 1483 786 1483 c 0,18,19
 818 1483 818 1483 839.5 1509.5 c 128,-1,20
 861 1536 861 1536 861 1581 c 2,21,-1
 861 1585 l 1,22,-1
 991 1585 l 1,23,24
 988 1483 988 1483 936.5 1420.5 c 128,-1,25
 885 1358 885 1358 797 1358 c 0,26,27
 779 1358 779 1358 762.5 1359.5 c 128,-1,28
 746 1361 746 1361 729 1364 c 1,29,30
 712 1373 712 1373 692 1380 c 128,-1,31
 672 1387 672 1387 644 1401 c 2,32,-1
 583 1436 l 2,0,1
EndSplineSet
EndChar
StartChar: c6468
Encoding: 65542 -1 262
Width: 1293
VWidth: 3555
Flags: W
HStem: 1323 278<394 797>
VStem: 394 403<1323 1601>
Fore
797 1323 m 1,0,-1
 634 1323 l 1,1,-1
 394 1601 l 1,2,-1
 587 1601 l 1,3,-1
 797 1323 l 1,0,-1
EndSplineSet
EndChar
StartChar: c6470
Encoding: 65543 -1 263
Width: 1293
VWidth: 3555
Flags: W
HStem: 1323 281<746 967>
VStem: 326 641<1323 1323>
Fore
746 1604 m 1,0,-1
 967 1323 l 1,1,-1
 821 1323 l 1,2,-1
 648 1510 l 1,3,-1
 472 1323 l 1,4,-1
 326 1323 l 1,5,-1
 547 1604 l 1,6,-1
 746 1604 l 1,0,-1
EndSplineSet
EndChar
StartChar: c6472
Encoding: 65544 -1 264
Width: 1293
VWidth: 3555
Flags: W
HStem: 1323 281<326 746>
VStem: 326 641<1604 1604>
Fore
326 1604 m 1,0,-1
 472 1604 l 1,1,-1
 648 1415 l 1,2,-1
 821 1604 l 1,3,-1
 967 1604 l 1,4,-1
 746 1323 l 1,5,-1
 547 1323 l 1,6,-1
 326 1604 l 1,0,-1
EndSplineSet
EndChar
StartChar: c6477
Encoding: 65545 -1 265
Width: 1293
VWidth: 3555
Flags: W
HStem: 529 388<54 1141>
Fore
28 644 m 1,0,-1
 1141 917 l 1,1,-1
 1170 804 l 1,2,-1
 54 529 l 1,3,-1
 28 644 l 1,0,-1
EndSplineSet
EndChar
StartChar: c6478
Encoding: 65546 -1 266
Width: 1293
VWidth: 3555
Flags: W
HStem: 896 118<398 686 832 953>
VStem: 686 146<700 896 1014 1448>
Fore
832 1575 m 1,0,-1
 832 1014 l 1,1,-1
 953 1014 l 1,2,-1
 953 896 l 1,3,-1
 832 896 l 1,4,-1
 832 700 l 1,5,-1
 686 700 l 1,6,-1
 686 896 l 1,7,-1
 281 896 l 1,8,-1
 281 1024 l 1,9,-1
 661 1575 l 1,10,-1
 832 1575 l 1,0,-1
398 1014 m 1,11,-1
 686 1014 l 1,12,-1
 686 1448 l 1,13,-1
 398 1014 l 1,11,-1
EndSplineSet
EndChar
StartChar: c6475
Encoding: 65547 -1 267
Width: 1293
VWidth: 3555
Flags: W
HStem: 1347 139<485.649 803.818>
VStem: 316 658<1347 1486 1604 1604>
Fore
441 1604 m 1,0,1
 469 1486 469 1486 648 1486 c 0,2,3
 818 1486 818 1486 849 1604 c 1,4,-1
 974 1604 l 1,5,6
 953 1347 953 1347 648 1347 c 0,7,8
 345 1347 345 1347 316 1604 c 1,9,-1
 441 1604 l 1,0,1
EndSplineSet
EndChar
StartChar: c6476
Encoding: 65548 -1 268
Width: 1293
VWidth: 3555
Flags: W
HStem: 1358 213<540 753>
VStem: 540 213<1358 1571>
Fore
753 1571 m 1,0,-1
 753 1358 l 1,1,-1
 540 1358 l 1,2,-1
 540 1571 l 1,3,-1
 753 1571 l 1,0,-1
EndSplineSet
EndChar
StartChar: uni0E01
Encoding: 3585 3585 270
Width: 1466
VWidth: 3555
Flags: W
HStem: 0 21G<193 359 1095 1266> 913 129<207 299> 1252 128<462.057 817.935>
VStem: 193 166<0 827.99> 1095 171<0 985.505>
Fore
495 1042 m 1,0,-1
 495 910 l 1,1,2
 427 889 427 889 393 830 c 128,-1,3
 359 771 359 771 359 705 c 2,4,-1
 359 0 l 1,5,-1
 193 0 l 1,6,-1
 193 726 l 2,7,8
 193 797 193 797 217 829 c 128,-1,9
 241 861 241 861 292 906 c 2,10,-1
 299 913 l 1,11,-1
 64 913 l 1,12,-1
 64 1127 l 1,13,14
 82 1149 82 1149 115.5 1175 c 128,-1,15
 149 1201 149 1201 170 1219 c 0,16,17
 288 1302 288 1302 400 1341 c 128,-1,18
 512 1380 512 1380 654 1380 c 0,19,20
 757 1380 757 1380 865.5 1358.5 c 128,-1,21
 974 1337 974 1337 1063.5 1287.5 c 128,-1,22
 1153 1238 1153 1238 1209.5 1158 c 128,-1,23
 1266 1078 1266 1078 1266 960 c 2,24,-1
 1266 0 l 1,25,-1
 1095 0 l 1,26,-1
 1095 917 l 2,27,28
 1095 981 1095 981 1075 1040 c 128,-1,29
 1055 1099 1055 1099 1006 1146.5 c 128,-1,30
 957 1194 957 1194 873.5 1223 c 128,-1,31
 790 1252 790 1252 665 1252 c 0,32,33
 562 1252 562 1252 486 1226.5 c 128,-1,34
 410 1201 410 1201 356 1170 c 0,35,36
 295 1134 295 1134 248 1088 c 2,37,-1
 207 1042 l 1,38,-1
 495 1042 l 1,0,-1
EndSplineSet
EndChar
StartChar: uni0E02
Encoding: 3586 3586 271
Width: 1340
VWidth: 3555
Flags: W
HStem: 0 128<533 970> 786 117<198.29 342.073> 1082 112<262.601 350.361> 1259 125<308.655 541.361>
VStem: 35 142<921.997 1072.68> 359 129<921.347 1074.44> 366 167<128 620.518> 625 154<902.065 1180.15> 970 167<128 1361>
Fore
488 1007 m 0,0,1
 488 903 488 903 420 844.5 c 128,-1,2
 352 786 352 786 255 786 c 0,3,4
 142 786 142 786 88.5 851.5 c 128,-1,5
 35 917 35 917 35 1024 c 0,6,7
 35 1099 35 1099 63.5 1165 c 128,-1,8
 92 1231 92 1231 140.5 1278.5 c 128,-1,9
 189 1326 189 1326 252.5 1355 c 128,-1,10
 316 1384 316 1384 391 1384 c 0,11,12
 576 1384 576 1384 677.5 1289 c 128,-1,13
 779 1194 779 1194 779 1010 c 0,14,15
 779 953 779 953 739.5 885.5 c 128,-1,16
 700 818 700 818 655.5 752 c 128,-1,17
 611 686 611 686 572 622.5 c 128,-1,18
 533 559 533 559 533 505 c 2,19,-1
 533 128 l 1,20,-1
 970 128 l 1,21,-1
 970 1361 l 1,22,-1
 1137 1361 l 1,23,-1
 1137 0 l 1,24,-1
 366 0 l 1,25,-1
 366 484 l 2,26,27
 366 573 366 573 407 642.5 c 128,-1,28
 448 712 448 712 495.5 775 c 128,-1,29
 543 838 543 838 584 904 c 128,-1,30
 625 970 625 970 625 1052 c 0,31,32
 625 1149 625 1149 556.5 1204 c 128,-1,33
 488 1259 488 1259 394 1259 c 0,34,35
 345 1259 345 1259 313 1243 c 128,-1,36
 281 1227 281 1227 252 1184 c 1,37,38
 271 1187 271 1187 283 1190.5 c 128,-1,39
 295 1194 295 1194 312 1194 c 0,40,41
 339 1194 339 1194 349 1191 c 0,42,43
 431 1174 431 1174 459.5 1123.5 c 128,-1,44
 488 1073 488 1073 488 1007 c 0,0,1
177 991 m 0,45,46
 177 950 177 950 205.5 926.5 c 128,-1,47
 234 903 234 903 278 903 c 0,48,49
 316 903 316 903 337.5 930 c 128,-1,50
 359 957 359 957 359 995 c 0,51,52
 359 1082 359 1082 271 1082 c 0,53,54
 177 1082 177 1082 177 991 c 0,45,46
EndSplineSet
EndChar
StartChar: uni0E03
Encoding: 3587 3587 272
Width: 1350
VWidth: 3555
Flags: W
HStem: 0 149<554 977> 736 109<215.26 341.424> 1003 113<236.011 330.183> 1153 137<389.813 459.502> 1231 153<224.905 281.282 590.535 674.65>
VStem: 43 157<900.149 1108.55> 356 120<860.132 990.051> 384 170<149 612.173> 686 156<978.198 1205.13> 977 172<149 1361>
Fore
384 488 m 1,0,1
 384 569 384 569 431.5 647.5 c 128,-1,2
 479 726 479 726 534.5 807.5 c 128,-1,3
 590 889 590 889 638 972 c 128,-1,4
 686 1055 686 1055 686 1144 c 0,5,6
 686 1177 686 1177 672 1204 c 128,-1,7
 658 1231 658 1231 618 1231 c 0,8,9
 594 1231 594 1231 570.5 1218 c 128,-1,10
 547 1205 547 1205 522.5 1191 c 128,-1,11
 498 1177 498 1177 473 1165 c 128,-1,12
 448 1153 448 1153 420 1153 c 0,13,14
 387 1153 387 1153 364.5 1165 c 128,-1,15
 342 1177 342 1177 322 1191 c 128,-1,16
 302 1205 302 1205 288 1218 c 128,-1,17
 274 1231 274 1231 255 1231 c 256,18,19
 238 1231 238 1231 226 1212.5 c 128,-1,20
 214 1194 214 1194 205 1171.5 c 128,-1,21
 196 1149 196 1149 192.5 1125.5 c 128,-1,22
 189 1102 189 1102 189 1088 c 1,23,24
 214 1099 214 1099 240.5 1107.5 c 128,-1,25
 267 1116 267 1116 295 1116 c 0,26,27
 377 1116 377 1116 426.5 1065 c 128,-1,28
 476 1014 476 1014 476 932 c 0,29,30
 476 838 476 838 416 787 c 128,-1,31
 356 736 356 736 271 736 c 0,32,33
 203 736 203 736 160.5 768 c 128,-1,34
 118 800 118 800 91 849.5 c 128,-1,35
 64 899 64 899 53.5 958 c 128,-1,36
 43 1017 43 1017 43 1069 c 0,37,38
 43 1113 43 1113 52 1168.5 c 128,-1,39
 61 1224 61 1224 83.5 1271.5 c 128,-1,40
 106 1319 106 1319 143.5 1351.5 c 128,-1,41
 181 1384 181 1384 238 1384 c 0,42,43
 278 1384 278 1384 308.5 1369 c 128,-1,44
 339 1354 339 1354 361.5 1336.5 c 128,-1,45
 384 1319 384 1319 402 1304.5 c 128,-1,46
 420 1290 420 1290 434 1290 c 0,47,48
 455 1290 455 1290 476.5 1304.5 c 128,-1,49
 498 1319 498 1319 522.5 1336.5 c 128,-1,50
 547 1354 547 1354 574 1369 c 128,-1,51
 601 1384 601 1384 634 1384 c 0,52,53
 740 1384 740 1384 791 1311 c 128,-1,54
 842 1238 842 1238 842 1137 c 256,55,56
 842 1038 842 1038 797.5 948 c 128,-1,57
 753 858 753 858 698.5 773.5 c 128,-1,58
 644 689 644 689 599 614.5 c 128,-1,59
 554 540 554 540 554 472 c 2,60,-1
 554 149 l 1,61,-1
 977 149 l 1,62,-1
 977 1361 l 1,63,-1
 1149 1361 l 1,64,-1
 1149 0 l 1,65,-1
 384 0 l 1,66,-1
 384 488 l 1,0,1
274 1003 m 0,67,68
 245 1003 245 1003 222.5 980 c 128,-1,69
 200 957 200 957 200 929 c 0,70,71
 200 896 200 896 220.5 870.5 c 128,-1,72
 241 845 241 845 278 845 c 0,73,74
 316 845 316 845 336 868.5 c 128,-1,75
 356 892 356 892 356 929 c 0,76,77
 356 967 356 967 332.5 985 c 128,-1,78
 309 1003 309 1003 274 1003 c 0,67,68
EndSplineSet
EndChar
StartChar: uni0E04
Encoding: 3588 3588 273
Width: 1477
VWidth: 3555
Flags: W
HStem: 0 21G<241 448 1109 1276> 547 125<655.919 805.361> 885 129<654.87 812.953> 1248 136<581.231 797.441>
VStem: 89 175<591.735 974.919> 828 135<696.68 871.675> 1109 167<0 1065.12>
Fore
712 1248 m 0,0,1
 621 1248 621 1248 539.5 1223 c 128,-1,2
 458 1198 458 1198 398.5 1148.5 c 128,-1,3
 339 1099 339 1099 301.5 1026 c 128,-1,4
 264 953 264 953 264 854 c 0,5,6
 264 722 264 722 297 590 c 128,-1,7
 330 458 330 458 366 335 c 1,8,9
 384 398 384 398 398.5 472.5 c 128,-1,10
 413 547 413 547 428.5 623.5 c 128,-1,11
 444 700 444 700 464 771 c 128,-1,12
 484 842 484 842 512 899 c 0,13,14
 543 960 543 960 597 987 c 128,-1,15
 651 1014 651 1014 715 1014 c 0,16,17
 821 1014 821 1014 892 956.5 c 128,-1,18
 963 899 963 899 963 786 c 0,19,20
 963 686 963 686 897.5 616.5 c 128,-1,21
 832 547 832 547 733 547 c 0,22,23
 682 547 682 547 651.5 560 c 128,-1,24
 621 573 621 573 583 601 c 1,25,26
 554 512 554 512 535 423.5 c 128,-1,27
 516 335 516 335 491 245 c 0,28,29
 488 238 488 238 480 211 c 128,-1,30
 472 184 472 184 465 154.5 c 128,-1,31
 458 125 458 125 451 100 c 128,-1,32
 444 75 444 75 444 68 c 2,33,-1
 448 0 l 1,34,-1
 248 0 l 1,35,36
 234 92 234 92 220.5 186.5 c 128,-1,37
 207 281 207 281 181 373 c 0,38,39
 153 479 153 479 121 586 c 128,-1,40
 89 693 89 693 89 807 c 0,41,42
 89 868 89 868 94 928 c 128,-1,43
 99 988 99 988 122 1049 c 0,44,45
 153 1134 153 1134 217 1196.5 c 128,-1,46
 281 1259 281 1259 362.5 1299.5 c 128,-1,47
 444 1340 444 1340 534.5 1362 c 128,-1,48
 625 1384 625 1384 708 1384 c 0,49,50
 804 1384 804 1384 905.5 1360.5 c 128,-1,51
 1007 1337 1007 1337 1090.5 1285.5 c 128,-1,52
 1174 1234 1174 1234 1225 1151.5 c 128,-1,53
 1276 1069 1276 1069 1276 953 c 2,54,-1
 1276 0 l 1,55,-1
 1109 0 l 1,56,-1
 1109 924 l 2,57,58
 1109 1007 1109 1007 1073.5 1067 c 128,-1,59
 1038 1127 1038 1127 981 1167.5 c 128,-1,60
 924 1208 924 1208 853.5 1228 c 128,-1,61
 783 1248 783 1248 712 1248 c 0,0,1
726 885 m 0,62,63
 682 885 682 885 653.5 849.5 c 128,-1,64
 625 814 625 814 625 774 c 0,65,66
 625 672 625 672 736 672 c 0,67,68
 774 672 774 672 801 704 c 128,-1,69
 828 736 828 736 828 774 c 0,70,71
 828 885 828 885 726 885 c 0,62,63
EndSplineSet
EndChar
StartChar: uni0E05
Encoding: 3589 3589 274
Width: 1517
VWidth: 3555
Flags: W
HStem: 0 21G<286.963 476.877 1149 1316> 554 135<674.148 828.269> 882 132<675.638 828.51> 1123 149<701.535 840.384> 1234 150<376.644 520.84>
VStem: 85 179<622.019 1013.29> 849 139<709.548 861.693> 1149 167<0 1019.41>
Fore
278 156 m 2,0,1
 264 207 264 207 251 258 c 128,-1,2
 238 309 238 309 220 359 c 0,3,4
 174 484 174 484 129.5 617 c 128,-1,5
 85 750 85 750 85 885 c 0,6,7
 85 974 85 974 112 1063.5 c 128,-1,8
 139 1153 139 1153 188.5 1223 c 128,-1,9
 238 1293 238 1293 314.5 1338.5 c 128,-1,10
 391 1384 391 1384 491 1384 c 0,11,12
 523 1384 523 1384 551.5 1365.5 c 128,-1,13
 580 1347 580 1347 608.5 1328 c 128,-1,14
 637 1309 637 1309 668.5 1290.5 c 128,-1,15
 700 1272 700 1272 743 1272 c 0,16,17
 828 1272 828 1272 883.5 1308 c 128,-1,18
 939 1344 939 1344 1010 1384 c 1,19,-1
 1017 1384 l 2,20,21
 1038 1384 1038 1384 1066.5 1369 c 128,-1,22
 1095 1354 1095 1354 1113 1340 c 0,23,24
 1227 1266 1227 1266 1271.5 1169.5 c 128,-1,25
 1316 1073 1316 1073 1316 939 c 2,26,-1
 1316 0 l 1,27,-1
 1149 0 l 1,28,-1
 1149 932 l 2,29,30
 1149 995 1149 995 1138 1048.5 c 128,-1,31
 1127 1102 1127 1102 1085 1153 c 0,32,33
 1066 1174 1066 1174 1043.5 1189.5 c 128,-1,34
 1021 1205 1021 1205 991 1205 c 0,35,36
 960 1205 960 1205 933 1192.5 c 128,-1,37
 906 1180 906 1180 877.5 1164.5 c 128,-1,38
 849 1149 849 1149 819.5 1136 c 128,-1,39
 790 1123 790 1123 750 1123 c 0,40,41
 708 1123 708 1123 672.5 1141.5 c 128,-1,42
 637 1160 637 1160 605 1179 c 128,-1,43
 573 1198 573 1198 542.5 1216 c 128,-1,44
 512 1234 512 1234 476 1234 c 0,45,46
 420 1234 420 1234 379.5 1197 c 128,-1,47
 339 1160 339 1160 312 1106 c 128,-1,48
 285 1052 285 1052 274.5 994 c 128,-1,49
 264 936 264 936 264 892 c 0,50,51
 264 743 264 743 303 619 c 128,-1,52
 342 495 342 495 401 366 c 1,53,-1
 472 696 l 2,54,55
 484 757 484 757 500 812.5 c 128,-1,56
 516 868 516 868 544.5 914 c 128,-1,57
 573 960 573 960 619 987 c 128,-1,58
 665 1014 665 1014 736 1014 c 0,59,60
 835 1014 835 1014 911.5 963.5 c 128,-1,61
 988 913 988 913 988 804 c 0,62,63
 988 700 988 700 918.5 627 c 128,-1,64
 849 554 849 554 743 554 c 0,65,66
 658 554 658 554 621 611 c 1,67,-1
 472 0 l 1,68,-1
 288 0 l 1,69,-1
 281 135 l 1,70,-1
 278 156 l 2,0,1
753 882 m 0,71,72
 708 882 708 882 681 853.5 c 128,-1,73
 654 825 654 825 654 779 c 256,74,75
 654 733 654 733 683 711 c 128,-1,76
 712 689 712 689 753 689 c 256,77,78
 797 689 797 689 823 716 c 128,-1,79
 849 743 849 743 849 786 c 256,80,81
 849 828 849 828 823 855 c 128,-1,82
 797 882 797 882 753 882 c 0,71,72
EndSplineSet
EndChar
StartChar: uni0E06
Encoding: 3590 3590 275
Width: 1513
VWidth: 3555
Flags: W
HStem: -14 149<300.618 415.506> 750 111<219.008 332.506> 1017 113<232.334 333.584> 1153 123<401.256 500.565> 1231 153<595.151 685.372> 1238 149<162.5 282.734>
VStem: 28 165<889.207 1114.15 1099 1142.77> 109 172<220.516 384.541> 349 120<877.058 989.7> 424 166<170.063 404 587 678.337> 696 149<1035.61 1186.75> 1141 171<217 1361>
Fore
401 -14 m 0,0,1
 323 -14 323 -14 268.5 13 c 128,-1,2
 214 40 214 40 178 81 c 128,-1,3
 142 122 142 122 125.5 174.5 c 128,-1,4
 109 227 109 227 109 281 c 0,5,6
 109 373 109 373 168 449.5 c 128,-1,7
 227 526 227 526 309 562 c 0,8,9
 339 573 339 573 366.5 576.5 c 128,-1,10
 394 580 394 580 424 587 c 1,11,12
 424 615 424 615 425.5 640 c 128,-1,13
 427 665 427 665 434 693 c 0,14,15
 448 733 448 733 478.5 765 c 128,-1,16
 509 797 509 797 546 834 c 128,-1,17
 583 871 583 871 618.5 924 c 128,-1,18
 654 977 654 977 679 1055 c 1,19,-1
 679 1052 l 1,20,21
 696 1095 696 1095 696 1141 c 0,22,23
 696 1177 696 1177 682 1204 c 128,-1,24
 668 1231 668 1231 634 1231 c 0,25,26
 580 1231 580 1231 528 1192 c 128,-1,27
 476 1153 476 1153 427 1153 c 0,28,29
 398 1153 398 1153 377 1166.5 c 128,-1,30
 356 1180 356 1180 337.5 1196 c 128,-1,31
 319 1212 319 1212 302 1225 c 128,-1,32
 285 1238 285 1238 264 1238 c 0,33,34
 238 1238 238 1238 224 1223 c 128,-1,35
 210 1208 210 1208 203 1187.5 c 128,-1,36
 196 1167 196 1167 194.5 1143.5 c 128,-1,37
 193 1120 193 1120 193 1099 c 1,38,39
 217 1113 217 1113 244 1121.5 c 128,-1,40
 271 1130 271 1130 299 1130 c 0,41,42
 377 1130 377 1130 423 1077 c 128,-1,43
 469 1024 469 1024 469 950 c 0,44,45
 469 842 469 842 407 796 c 128,-1,46
 345 750 345 750 264 750 c 0,47,48
 224 750 224 750 183 762 c 128,-1,49
 142 774 142 774 106.5 806 c 128,-1,50
 71 838 71 838 49.5 890.5 c 128,-1,51
 28 943 28 943 28 1021 c 0,52,53
 28 1180 28 1180 76.5 1283.5 c 128,-1,54
 125 1387 125 1387 200 1387 c 0,55,56
 248 1387 248 1387 280 1369 c 128,-1,57
 312 1351 312 1351 339 1331.5 c 128,-1,58
 366 1312 366 1312 389.5 1294 c 128,-1,59
 413 1276 413 1276 441 1276 c 256,60,61
 469 1276 469 1276 496 1292.5 c 128,-1,62
 523 1309 523 1309 549.5 1330 c 128,-1,63
 576 1351 576 1351 605 1367.5 c 128,-1,64
 634 1384 634 1384 665 1384 c 0,65,66
 719 1384 719 1384 752.5 1358.5 c 128,-1,67
 786 1333 786 1333 807 1292.5 c 128,-1,68
 828 1252 828 1252 836.5 1204 c 128,-1,69
 845 1156 845 1156 845 1113 c 0,70,71
 845 1028 845 1028 806 956.5 c 128,-1,72
 767 885 767 885 719.5 824.5 c 128,-1,73
 672 764 672 764 631 714.5 c 128,-1,74
 590 665 590 665 590 621 c 2,75,-1
 590 580 l 1,76,-1
 858 410 l 2,77,78
 885 391 885 391 910.5 373.5 c 128,-1,79
 936 356 936 356 963 339 c 0,80,81
 1010 309 1010 309 1058 277 c 128,-1,82
 1106 245 1106 245 1141 217 c 1,83,-1
 1141 1361 l 1,84,-1
 1312 1361 l 1,85,-1
 1312 0 l 1,86,-1
 1144 0 l 1,87,-1
 984 125 l 2,88,89
 913 184 913 184 849.5 231 c 128,-1,90
 786 278 786 278 693 339 c 0,91,92
 665 356 665 356 640 371.5 c 128,-1,93
 615 387 615 387 590 404 c 1,94,-1
 590 109 l 1,95,96
 562 28 562 28 508.5 7 c 128,-1,97
 455 -14 455 -14 401 -14 c 0,0,1
271 1017 m 256,98,99
 234 1017 234 1017 211.5 997 c 128,-1,100
 189 977 189 977 189 939 c 0,101,102
 189 910 189 910 213.5 885.5 c 128,-1,103
 238 861 238 861 267 861 c 0,104,105
 302 861 302 861 325.5 883.5 c 128,-1,106
 349 906 349 906 349 943 c 0,107,108
 349 970 349 970 327.5 993.5 c 128,-1,109
 306 1017 306 1017 271 1017 c 256,98,99
420 437 m 1,110,111
 359 424 359 424 320 383 c 128,-1,112
 281 342 281 342 281 278 c 0,113,114
 281 234 281 234 298.5 184.5 c 128,-1,115
 316 135 316 135 370 135 c 0,116,117
 410 135 410 135 415 169 c 128,-1,118
 420 203 420 203 420 241 c 2,119,-1
 420 437 l 1,110,111
EndSplineSet
EndChar
StartChar: uni0E07
Encoding: 3591 3591 276
Width: 1062
VWidth: 3555
Flags: W
HStem: 0 21G<566.611 861> 917 128<535.198 671.458> 1262 122<522.986 690.882>
VStem: 356 153<1070.71 1249.52> 693 168<115 936> 712 149<1078 1232.61>
Fore
611 1262 m 0,0,1
 509 1262 509 1262 509 1156 c 0,2,3
 509 1106 509 1106 541 1075.5 c 128,-1,4
 573 1045 573 1045 615 1045 c 0,5,6
 665 1045 665 1045 688.5 1077 c 128,-1,7
 712 1109 712 1109 712 1160 c 0,8,9
 712 1205 712 1205 686.5 1233.5 c 128,-1,10
 661 1262 661 1262 611 1262 c 0,0,1
693 936 m 1,11,12
 648 917 648 917 611 917 c 0,13,14
 512 917 512 917 434 979.5 c 128,-1,15
 356 1042 356 1042 356 1144 c 0,16,17
 356 1252 356 1252 432.5 1318 c 128,-1,18
 509 1384 509 1384 611 1384 c 256,19,20
 715 1384 715 1384 788 1318 c 128,-1,21
 861 1252 861 1252 861 1149 c 2,22,-1
 861 0 l 1,23,-1
 583 0 l 1,24,-1
 61 637 l 1,25,-1
 255 637 l 1,26,-1
 693 115 l 1,27,-1
 693 936 l 1,11,12
EndSplineSet
EndChar
StartChar: uni0E08
Encoding: 3592 3592 277
Width: 1218
VWidth: 3555
Flags: W
HStem: 0 135<753 868> 455 139<285.644 431.317> 811 125<295.175 442.343> 1241 143<384.072 750.651>
VStem: 106 154<620.272 798.438> 885 170<763 1096.41>
Fore
505 502 m 1,0,1
 469 472 469 472 439.5 463.5 c 128,-1,2
 410 455 410 455 366 455 c 0,3,4
 260 455 260 455 183 533 c 128,-1,5
 106 611 106 611 106 719 c 0,6,7
 106 774 106 774 131 816 c 128,-1,8
 156 858 156 858 195 884 c 128,-1,9
 234 910 234 910 284.5 923 c 128,-1,10
 335 936 335 936 380 936 c 0,11,12
 451 936 451 936 495.5 910.5 c 128,-1,13
 540 885 540 885 567 842.5 c 128,-1,14
 594 800 594 800 601 773 c 0,15,-1
 637 641 l 2,16,-1
 753 135 l 1,17,-1
 868 135 l 1,18,19
 875 319 875 319 880 502.5 c 128,-1,20
 885 686 885 686 885 871 c 0,21,22
 885 1052 885 1052 810.5 1146.5 c 128,-1,23
 736 1241 736 1241 550 1241 c 0,24,25
 391 1241 391 1241 265 1175 c 128,-1,26
 139 1109 139 1109 31 991 c 1,27,-1
 31 1180 l 1,28,29
 75 1238 75 1238 137.5 1277 c 128,-1,30
 200 1316 200 1316 269.5 1338.5 c 128,-1,31
 339 1361 339 1361 413.5 1372.5 c 128,-1,32
 488 1384 488 1384 554 1384 c 0,33,34
 783 1384 783 1384 919 1270 c 128,-1,35
 1055 1156 1055 1156 1055 917 c 2,36,-1
 1055 875 l 1,37,-1
 1007 0 l 1,38,-1
 615 0 l 1,39,-1
 505 502 l 1,0,1
363 811 m 0,40,41
 260 811 260 811 260 705 c 0,42,43
 260 654 260 654 291.5 624 c 128,-1,44
 323 594 323 594 366 594 c 0,45,46
 417 594 417 594 439.5 626 c 128,-1,47
 462 658 462 658 462 708 c 0,48,49
 462 753 462 753 437.5 782 c 128,-1,50
 413 811 413 811 363 811 c 0,40,41
EndSplineSet
EndChar
StartChar: uni0E09
Encoding: 3593 3593 278
Width: 1428
VWidth: 3555
Flags: W
HStem: -17 116<1038.6 1177.35> 413 123<240.505 370.556> 729 129<244.175 396.945> 1248 139<545.801 847.38>
VStem: 68 152<556.317 704.227> 401 175<231 434> 420 156<560.239 699.605> 882 139<119.41 252.608> 1049 170<471.847 1101.25> 1198 146<122.522 285.391>
Fore
1219 547 m 1,0,1
 1219 465 1219 465 1160 417 c 1,2,3
 1238 398 1238 398 1291 341.5 c 128,-1,4
 1344 285 1344 285 1344 203 c 0,5,6
 1344 99 1344 99 1272.5 41 c 128,-1,7
 1201 -17 1201 -17 1106 -17 c 0,8,9
 1014 -17 1014 -17 948 34 c 128,-1,10
 882 85 882 85 882 181 c 0,11,12
 882 238 882 238 903 285 c 1,13,14
 861 264 861 264 812.5 233.5 c 128,-1,15
 764 203 764 203 718 164 c 128,-1,16
 672 125 672 125 633 84 c 128,-1,17
 594 43 594 43 573 0 c 1,18,-1
 401 0 l 1,19,-1
 401 434 l 1,20,21
 356 413 356 413 299 413 c 0,22,23
 207 413 207 413 137.5 462.5 c 128,-1,24
 68 512 68 512 68 611 c 0,25,26
 68 726 68 726 141 792 c 128,-1,27
 214 858 214 858 326 858 c 0,28,29
 462 858 462 858 519 779 c 128,-1,30
 576 700 576 700 576 576 c 2,31,-1
 576 231 l 1,32,33
 625 271 625 271 672 306.5 c 128,-1,34
 719 342 719 342 779 370 c 0,35,36
 811 384 811 384 857 397 c 128,-1,37
 903 410 903 410 945.5 427 c 128,-1,38
 988 444 988 444 1018.5 471 c 128,-1,39
 1049 498 1049 498 1049 540 c 2,40,-1
 1049 899 l 2,41,42
 1049 1082 1049 1082 955 1165 c 128,-1,43
 861 1248 861 1248 679 1248 c 0,44,45
 594 1248 594 1248 512.5 1223 c 128,-1,46
 431 1198 431 1198 354.5 1159 c 128,-1,47
 278 1120 278 1120 205 1072 c 128,-1,48
 132 1024 132 1024 64 974 c 1,49,-1
 64 1180 l 1,50,51
 118 1224 118 1224 192.5 1263 c 128,-1,52
 267 1302 267 1302 349 1328 c 128,-1,53
 431 1354 431 1354 514 1370.5 c 128,-1,54
 597 1387 597 1387 665 1387 c 0,55,56
 736 1387 736 1387 807 1380 c 128,-1,57
 878 1373 878 1373 944 1351.5 c 128,-1,58
 1010 1330 1010 1330 1065 1289 c 128,-1,59
 1120 1248 1120 1248 1160 1180 c 0,60,61
 1219 1078 1219 1078 1219 960 c 2,62,-1
 1219 547 l 1,0,1
1021 196 m 0,63,64
 1021 156 1021 156 1043.5 127.5 c 128,-1,65
 1066 99 1066 99 1106 99 c 0,66,67
 1149 99 1149 99 1173.5 131 c 128,-1,68
 1198 163 1198 163 1198 203 c 0,69,70
 1198 292 1198 292 1116 292 c 0,71,72
 1021 292 1021 292 1021 196 c 0,63,64
316 729 m 0,73,74
 278 729 278 729 249 698.5 c 128,-1,75
 220 668 220 668 220 628 c 256,76,77
 220 590 220 590 247 563 c 128,-1,78
 274 536 274 536 312 536 c 256,79,80
 352 536 352 536 386 559.5 c 128,-1,81
 420 583 420 583 420 625 c 0,82,83
 420 672 420 672 391.5 700.5 c 128,-1,84
 363 729 363 729 316 729 c 0,73,74
EndSplineSet
EndChar
